font.ufo
<glyph name="zero" format="1">
	<unicode hex="0030"/>
	<advance width="480"/>
	<outline>
		<contour>
			<point x="200" y="-12" type="curve" smooth="yes"/>
			<point x="342" y="-12"/>
			<point x="462" y="192"/>
			<point x="462" y="431" type="curve" smooth="yes"/>
			<point x="462" y="555"/>
			<point x="406" y="650"/>
			<point x="306" y="650" type="curve" smooth="yes"/>
			<point x="164" y="650"/>
			<point x="42" y="443"/>
			<point x="42" y="205" type="curve" smooth="yes"/>
			<point x="42" y="80"/>
			<point x="99" y="-12"/>
		</contour>
		<contour>
			<point x="204" y="49" type="curve" smooth="yes"/>
			<point x="142" y="49"/>
			<point x="114" y="114"/>
			<point x="114" y="202" type="curve" smooth="yes"/>
			<point x="114" y="382"/>
			<point x="198" y="588"/>
			<point x="301" y="588" type="curve" smooth="yes"/>
			<point x="362" y="588"/>
			<point x="391" y="523"/>
			<point x="391" y="434" type="curve" smooth="yes"/>
			<point x="391" y="253"/>
			<point x="307" y="49"/>
		</contour>
	</outline>
</glyph>
<glyph name="four" format="1">
	<unicode hex="0034"/>
	<advance width="480"/>
	<outline>
		<contour>
			<point x="316" y="0" type="line"/>
			<point x="351" y="176" type="line"/>
			<point x="434" y="176" type="line"/>
			<point x="447" y="238" type="line"/>
			<point x="363" y="238" type="line"/>
			<point x="443" y="638" type="line"/>
			<point x="359" y="638" type="line"/>
			<point x="17" y="228" type="line"/>
			<point x="8" y="176" type="line"/>
			<point x="280" y="176" type="line"/>
			<point x="244" y="0" type="line"/>
		</contour>
		<contour>
			<point x="102" y="238" type="line"/>
			<point x="279" y="450" type="line" smooth="yes"/>
			<point x="303" y="481"/>
			<point x="329" y="517"/>
			<point x="356" y="554" type="curve"/>
			<point x="360" y="554" type="line"/>
			<point x="350" y="510"/>
			<point x="337" y="465"/>
			<point x="329" y="427" type="curve" smooth="yes"/>
			<point x="292" y="238" type="line"/>
		</contour>
	</outline>
</glyph>
<glyph name="C" format="1">
	<unicode hex="0043"/>
	<advance width="550"/>
	<outline>
		<contour>
			<point x="290" y="-12" type="curve" smooth="yes"/>
			<point x="369" y="-12"/>
			<point x="430" y="22"/>
			<point x="478" y="64" type="curve"/>
			<point x="443" y="114" type="line"/>
			<point x="400" y="78"/>
			<point x="357" y="55"/>
			<point x="304" y="55" type="curve" smooth="yes"/>
			<point x="186" y="55"/>
			<point x="137" y="141"/>
			<point x="137" y="260" type="curve" smooth="yes"/>
			<point x="137" y="419"/>
			<point x="236" y="601"/>
			<point x="392" y="601" type="curve" smooth="yes"/>
			<point x="442" y="601"/>
			<point x="477" y="572"/>
			<point x="503" y="530" type="curve"/>
			<point x="557" y="571" type="line"/>
			<point x="525" y="627"/>
			<point x="471" y="668"/>
			<point x="396" y="668" type="curve" smooth="yes"/>
			<point x="193" y="668"/>
			<point x="57" y="459"/>
			<point x="57" y="253" type="curve" smooth="yes"/>
			<point x="57" y="96"/>
			<point x="140" y="-12"/>
		</contour>
		<contour>
			<point name="aboveUC" x="422" y="682" type="move"/>
		</contour>
		<contour>
			<point name="baseLC" x="281" y="0" type="move"/>
		</contour>
		<contour>
			<point name="belowLC" x="275" y="-22" type="move"/>
		</contour>
	</outline>
</glyph>
<glyph name="d" format="1">
	<unicode hex="0064"/>
	<advance width="535"/>
	<outline>
		<contour>
			<point x="420" y="427" type="line"/>
			<point x="417" y="427" type="line"/>
			<point x="393" y="470"/>
			<point x="354" y="498"/>
			<point x="302" y="498" type="curve" smooth="yes"/>
			<point x="167" y="498"/>
			<point x="39" y="351"/>
			<point x="39" y="164" type="curve" smooth="yes"/>
			<point x="39" y="50"/>
			<point x="94" y="-12"/>
			<point x="179" y="-12" type="curve" smooth="yes"/>
			<point x="240" y="-12"/>
			<point x="301" y="22"/>
			<point x="348" y="72" type="curve"/>
			<point x="352" y="72" type="line"/>
			<point x="344" y="0" type="line"/>
			<point x="407" y="0" type="line"/>
			<point x="551" y="712" type="line"/>
			<point x="474" y="712" type="line"/>
			<point x="436" y="522" type="line"/>
		</contour>
		<contour>
			<point x="207" y="52" type="curve" smooth="yes"/>
			<point x="153" y="52"/>
			<point x="118" y="92"/>
			<point x="118" y="176" type="curve" smooth="yes"/>
			<point x="118" y="310"/>
			<point x="208" y="434"/>
			<point x="305" y="434" type="curve" smooth="yes"/>
			<point x="342" y="434"/>
			<point x="376" y="413"/>
			<point x="404" y="362" type="curve"/>
			<point x="360" y="145" type="line"/>
			<point x="311" y="82"/>
			<point x="258" y="52"/>
		</contour>
		<contour>
			<point name="aboveLC" x="493" y="730" type="move"/>
		</contour>
		<contour>
			<point name="belowLC" x="229" y="-22" type="move"/>
		</contour>
	</outline>
</glyph>
<glyph name="m" format="1">
	<unicode hex="006D"/>
	<advance width="799"/>
	<outline>
		<contour>
			<point x="31" y="0" type="line"/>
			<point x="107" y="0" type="line"/>
			<point x="176" y="344" type="line"/>
			<point x="233" y="405"/>
			<point x="284" y="432"/>
			<point x="313" y="432" type="curve" smooth="yes"/>
			<point x="361" y="432"/>
			<point x="383" y="406"/>
			<point x="383" y="357" type="curve" smooth="yes"/>
			<point x="383" y="340"/>
			<point x="380" y="326"/>
			<point x="375" y="300" type="curve" smooth="yes"/>
			<point x="315" y="0" type="line"/>
			<point x="391" y="0" type="line"/>
			<point x="460" y="344" type="line"/>
			<point x="518" y="405"/>
			<point x="569" y="432"/>
			<point x="597" y="432" type="curve" smooth="yes"/>
			<point x="645" y="432"/>
			<point x="668" y="406"/>
			<point x="668" y="357" type="curve" smooth="yes"/>
			<point x="668" y="340"/>
			<point x="665" y="326"/>
			<point x="660" y="300" type="curve" smooth="yes"/>
			<point x="599" y="0" type="line"/>
			<point x="676" y="0" type="line"/>
			<point x="738" y="310" type="line" smooth="yes"/>
			<point x="743" y="337"/>
			<point x="746" y="354"/>
			<point x="746" y="377" type="curve" smooth="yes"/>
			<point x="746" y="452"/>
			<point x="712" y="498"/>
			<point x="631" y="498" type="curve" smooth="yes"/>
			<point x="581" y="498"/>
			<point x="521" y="462"/>
			<point x="459" y="403" type="curve"/>
			<point x="452" y="456"/>
			<point x="424" y="498"/>
			<point x="347" y="498" type="curve" smooth="yes"/>
			<point x="296" y="498"/>
			<point x="238" y="461"/>
			<point x="187" y="413" type="curve"/>
			<point x="183" y="413" type="line"/>
			<point x="190" y="486" type="line"/>
			<point x="127" y="486" type="line"/>
		</contour>
		<contour>
			<point name="aboveLC" x="476" y="509" type="move"/>
		</contour>
		<contour>
			<point name="belowLC" x="362" y="-22" type="move"/>
		</contour>
	</outline>
</glyph>
<glyph name="braceleft" format="1">
	<unicode hex="007B"/>
	<advance width="290"/>
	<outline>
		<contour>
			<point x="135" y="-152" type="curve" smooth="yes"/>
			<point x="179" y="-152" type="line"/>
			<point x="189" y="-107" type="line"/>
			<point x="165" y="-107" type="line" smooth="yes"/>
			<point x="122" y="-107"/>
			<point x="110" y="-91"/>
			<point x="110" y="-58" type="curve" smooth="yes"/>
			<point x="110" y="5"/>
			<point x="162" y="142"/>
			<point x="162" y="212" type="curve" smooth="yes"/>
			<point x="162" y="241"/>
			<point x="150" y="262"/>
			<point x="118" y="273" type="curve"/>
			<point x="118" y="277" type="line"/>
			<point x="165" y="289"/>
			<point x="189" y="324"/>
			<point x="202" y="389" type="curve" smooth="yes"/>
			<point x="214" y="450"/>
			<point x="221" y="512"/>
			<point x="232" y="569" type="curve" smooth="yes"/>
			<point x="245" y="633"/>
			<point x="263" y="663"/>
			<point x="316" y="663" type="curve" smooth="yes"/>
			<point x="342" y="663" type="line"/>
			<point x="352" y="708" type="line"/>
			<point x="306" y="708" type="line" smooth="yes"/>
			<point x="226" y="708"/>
			<point x="192" y="677"/>
			<point x="172" y="573" type="curve" smooth="yes"/>
			<point x="158" y="505"/>
			<point x="153" y="446"/>
			<point x="141" y="382" type="curve" smooth="yes"/>
			<point x="133" y="345"/>
			<point x="111" y="303"/>
			<point x="43" y="303" type="curve"/>
			<point x="32" y="253" type="line"/>
			<point x="89" y="253"/>
			<point x="102" y="225"/>
			<point x="102" y="197" type="curve" smooth="yes"/>
			<point x="102" y="139"/>
			<point x="47" y="2"/>
			<point x="47" y="-72" type="curve" smooth="yes"/>
			<point x="47" y="-128"/>
			<point x="73" y="-152"/>
		</contour>
	</outline>
</glyph>
<glyph name="plusminus" format="1">
	<unicode hex="00B1"/>
	<advance width="480"/>
	<outline>
		<contour>
			<point x="222" y="130" type="line"/>
			<point x="282" y="130" type="line"/>
			<point x="282" y="315" type="line"/>
			<point x="458" y="315" type="line"/>
			<point x="458" y="373" type="line"/>
			<point x="283" y="373" type="line"/>
			<point x="283" y="554" type="line"/>
			<point x="223" y="554" type="line"/>
			<point x="223" y="373" type="line"/>
			<point x="48" y="373" type="line"/>
			<point x="48" y="315" type="line"/>
			<point x="222" y="315" type="line"/>
		</contour>
		<contour>
			<point x="48" y="0" type="line"/>
			<point x="458" y="0" type="line"/>
			<point x="458" y="58" type="line"/>
			<point x="48" y="58" type="line"/>
		</contour>
	</outline>
</glyph>
<glyph name="multiply" format="1">
	<unicode hex="00D7"/>
	<advance width="480"/>
	<outline>
		<contour>
			<point x="105" y="135" type="line"/>
			<point x="253" y="291" type="line"/>
			<point x="401" y="135" type="line"/>
			<point x="442" y="176" type="line"/>
			<point x="293" y="331" type="line"/>
			<point x="442" y="486" type="line"/>
			<point x="401" y="526" type="line"/>
			<point x="253" y="371" type="line"/>
			<point x="105" y="526" type="line"/>
			<point x="65" y="486" type="line"/>
			<point x="213" y="331" type="line"/>
			<point x="65" y="176" type="line"/>
		</contour>
	</outline>
</glyph>
<glyph name="eth" format="1">
	<unicode hex="00F0"/>
	<advance width="524"/>
	<outline>
		<contour>
			<point x="216" y="-12" type="curve" smooth="yes"/>
			<point x="376" y="-12"/>
			<point x="469" y="157"/>
			<point x="469" y="347" type="curve" smooth="yes"/>
			<point x="469" y="533"/>
			<point x="378" y="653"/>
			<point x="247" y="730" type="curve"/>
			<point x="211" y="684" type="line"/>
			<point x="330" y="607"/>
			<point x="396" y="509"/>
			<point x="396" y="341" type="curve" smooth="yes"/>
			<point x="396" y="186"/>
			<point x="328" y="52"/>
			<point x="225" y="52" type="curve" smooth="yes"/>
			<point x="153" y="52"/>
			<point x="113" y="110"/>
			<point x="113" y="179" type="curve" smooth="yes"/>
			<point x="113" y="282"/>
			<point x="178" y="386"/>
			<point x="281" y="386" type="curve" smooth="yes"/>
			<point x="336" y="386"/>
			<point x="374" y="344"/>
			<point x="400" y="301" type="curve"/>
			<point x="409" y="350" type="line"/>
			<point x="382" y="410"/>
			<point x="331" y="447"/>
			<point x="274" y="447" type="curve" smooth="yes"/>
			<point x="131" y="447"/>
			<point x="43" y="310"/>
			<point x="43" y="172" type="curve" smooth="yes"/>
			<point x="43" y="66"/>
			<point x="117" y="-12"/>
		</contour>
		<contour>
			<point x="187" y="508" type="line"/>
			<point x="530" y="650" type="line"/>
			<point x="514" y="691" type="line"/>
			<point x="171" y="549" type="line"/>
		</contour>
	</outline>
</glyph>
<glyph name="eogonek" format="1">
	<unicode hex="0119"/>
	<advance width="481"/>
	<outline>
		<contour>
			<point x="179" y="-139" type="curve" smooth="yes"/>
			<point x="179" y="-183"/>
			<point x="210" y="-206"/>
			<point x="253" y="-206" type="curve" smooth="yes"/>
			<point x="277" y="-206"/>
			<point x="307" y="-195"/>
			<point x="330" y="-181" type="curve"/>
			<point x="314" y="-143" type="line"/>
			<point x="301" y="-151"/>
			<point x="290" y="-155"/>
			<point x="276" y="-155" type="curve" smooth="yes"/>
			<point x="256" y="-155"/>
			<point x="240" y="-141"/>
			<point x="240" y="-118" type="curve" smooth="yes"/>
			<point x="240" y="-78"/>
			<point x="273" y="-26"/>
			<point x="385" y="40" type="curve"/>
			<point x="355" y="91" type="line"/>
			<point x="324" y="68"/>
			<point x="284" y="49"/>
			<point x="246" y="49" type="curve" smooth="yes"/>
			<point x="161" y="49"/>
			<point x="96" y="102"/>
			<point x="114" y="227" type="curve"/>
			<point x="430" y="227" type="line"/>
			<point x="436" y="245"/>
			<point x="447" y="283"/>
			<point x="447" y="322" type="curve" smooth="yes"/>
			<point x="447" y="422"/>
			<point x="406" y="498"/>
			<point x="297" y="498" type="curve" smooth="yes"/>
			<point x="170" y="498"/>
			<point x="37" y="374"/>
			<point x="37" y="191" type="curve" smooth="yes"/>
			<point x="37" y="61"/>
			<point x="113" y="-12"/>
			<point x="228" y="-12" type="curve" smooth="yes"/>
			<point x="236" y="-12"/>
			<point x="248" y="-11"/>
			<point x="259" y="-8" type="curve"/>
			<point x="231" y="-31"/>
			<point x="179" y="-81"/>
		</contour>
		<contour>
			<point x="122" y="279" type="line"/>
			<point x="147" y="375"/>
			<point x="217" y="437"/>
			<point x="288" y="437" type="curve" smooth="yes"/>
			<point x="358" y="437"/>
			<point x="382" y="384"/>
			<point x="382" y="329" type="curve" smooth="yes"/>
			<point x="382" y="310"/>
			<point x="380" y="295"/>
			<point x="377" y="279" type="curve"/>
		</contour>
		<contour>
			<point name="aboveLC" x="306" y="509" type="move"/>
		</contour>
	</outline>
</glyph>
<glyph name="bstroke" format="1">
	<unicode hex="0180"/>
	<advance width="519"/>
	<outline>
		<contour>
			<point x="94" y="0" type="line"/>
			<point x="114" y="61" type="line"/>
			<point x="117" y="61" type="line"/>
			<point x="140" y="17"/>
			<point x="182" y="-12"/>
			<point x="234" y="-12" type="curve" smooth="yes"/>
			<point x="368" y="-12"/>
			<point x="492" y="131"/>
			<point x="492" y="312" type="curve" smooth="yes"/>
			<point x="492" y="419"/>
			<point x="437" y="478"/>
			<point x="352" y="478" type="curve" smooth="yes"/>
			<point x="292" y="478"/>
			<point x="235" y="445"/>
			<point x="187" y="406" type="curve"/>
			<point x="185" y="406" type="line"/>
			<point x="207" y="502" type="line"/>
			<point x="250" y="712" type="line"/>
			<point x="173" y="712" type="line"/>
			<point x="31" y="0" type="line"/>
		</contour>
		<contour>
			<point x="324" y="414" type="curve" smooth="yes"/>
			<point x="379" y="414"/>
			<point x="413" y="376"/>
			<point x="413" y="301" type="curve" smooth="yes"/>
			<point x="413" y="171"/>
			<point x="328" y="52"/>
			<point x="231" y="52" type="curve" smooth="yes"/>
			<point x="193" y="52"/>
			<point x="159" y="73"/>
			<point x="132" y="124" type="curve"/>
			<point x="174" y="335" type="line"/>
			<point x="220" y="384"/>
			<point x="279" y="414"/>
		</contour>
		<contour>
			<point x="75" y="572" type="line"/>
			<point x="396" y="572" type="line"/>
			<point x="406" y="617" type="line"/>
			<point x="156" y="617" type="line"/>
			<point x="82" y="612" type="line"/>
		</contour>
	</outline>
</glyph>
<glyph name="horncmb" format="1">
	<unicode hex="031B"/>
	<outline>
		<contour>
			<point x="81" y="437" type="line"/>
			<point x="189" y="441"/>
			<point x="243" y="494"/>
			<point x="243" y="557" type="curve" smooth="yes"/>
			<point x="243" y="572"/>
			<point x="240" y="587"/>
			<point x="232" y="604" type="curve"/>
			<point x="173" y="583" type="line"/>
			<point x="177" y="570"/>
			<point x="178" y="561"/>
			<point x="178" y="550" type="curve" smooth="yes"/>
			<point x="178" y="508"/>
			<point x="134" y="478"/>
			<point x="80" y="476" type="curve"/>
		</contour>
		<contour>
			<point name="_hornLC" x="96" y="486" type="move"/>
		</contour>
	</outline>
</glyph>
<glyph name="quoteleft" format="1">
	<unicode hex="2018"/>
	<advance width="242"/>
	<outline>
		<contour>
			<point x="163" y="434" type="curve" smooth="yes"/>
			<point x="195" y="434"/>
			<point x="217" y="460"/>
			<point x="217" y="491" type="curve" smooth="yes"/>
			<point x="217" y="519"/>
			<point x="196" y="535"/>
			<point x="168" y="535" type="curve" smooth="yes"/>
			<point x="158" y="535"/>
			<point x="146" y="531"/>
			<point x="136" y="521" type="curve"/>
			<point x="163" y="469" type="line"/>
			<point x="163" y="533" type="line"/>
			<point x="163" y="572"/>
			<point x="197" y="623"/>
			<point x="258" y="653" type="curve"/>
			<point x="242" y="691" type="line"/>
			<point x="167" y="659"/>
			<point x="110" y="594"/>
			<point x="110" y="502" type="curve" smooth="yes"/>
			<point x="110" y="459"/>
			<point x="132" y="434"/>
		</contour>
	</outline>
</glyph>
<glyph name="guarani" format="1">
	<unicode hex="20B2"/>
	<advance width="480"/>
	<outline>
		<contour>
			<point x="237" y="-12" type="curve" smooth="yes"/>
			<point x="312" y="-12"/>
			<point x="367" y="23"/>
			<point x="406" y="63" type="curve"/>
			<point x="459" y="329" type="line"/>
			<point x="294" y="329" type="line"/>
			<point x="280" y="265" type="line"/>
			<point x="377" y="265" type="line"/>
			<point x="342" y="92" type="line"/>
			<point x="323" y="71"/>
			<point x="289" y="52"/>
			<point x="249" y="52" type="curve" smooth="yes"/>
			<point x="170" y="52"/>
			<point x="125" y="123"/>
			<point x="125" y="237" type="curve" smooth="yes"/>
			<point x="125" y="437"/>
			<point x="231" y="590"/>
			<point x="356" y="590" type="curve" smooth="yes"/>
			<point x="403" y="590"/>
			<point x="428" y="561"/>
			<point x="448" y="520" type="curve"/>
			<point x="505" y="557" type="line"/>
			<point x="478" y="610"/>
			<point x="435" y="653"/>
			<point x="363" y="653" type="curve" smooth="yes"/>
			<point x="198" y="653"/>
			<point x="48" y="481"/>
			<point x="48" y="229" type="curve" smooth="yes"/>
			<point x="48" y="81"/>
			<point x="119" y="-12"/>
		</contour>
		<contour>
			<point x="180" y="-110" type="line"/>
			<point x="236" y="-110" type="line"/>
			<point x="261" y="15" type="line"/>
			<point x="204" y="15" type="line"/>
		</contour>
		<contour>
			<point x="325" y="624" type="line"/>
			<point x="381" y="624" type="line"/>
			<point x="406" y="751" type="line"/>
			<point x="351" y="751" type="line"/>
		</contour>
	</outline>
</glyph>
<glyph name="litre" format="1">
	<unicode hex="2113"/>
	<advance width="394"/>
	<outline>
		<contour>
			<point x="210" y="-12" type="curve" smooth="yes"/>
			<point x="268" y="-12"/>
			<point x="317" y="18"/>
			<point x="358" y="50" type="curve"/>
			<point x="336" y="98" type="line"/>
			<point x="306" y="77"/>
			<point x="272" y="53"/>
			<point x="229" y="53" type="curve" smooth="yes"/>
			<point x="179" y="53"/>
			<point x="146" y="90"/>
			<point x="169" y="196" type="curve" smooth="yes"/>
			<point x="233" y="517" type="line" smooth="yes"/>
			<point x="253" y="616"/>
			<point x="295" y="661"/>
			<point x="327" y="661" type="curve" smooth="yes"/>
			<point x="354" y="661"/>
			<point x="370" y="639"/>
			<point x="370" y="593" type="curve" smooth="yes"/>
			<point x="370" y="467"/>
			<point x="218" y="288"/>
			<point x="7" y="176" type="curve"/>
			<point x="26" y="123" type="line"/>
			<point x="284" y="262"/>
			<point x="436" y="452"/>
			<point x="436" y="603" type="curve" smooth="yes"/>
			<point x="436" y="673"/>
			<point x="398" y="720"/>
			<point x="334" y="720" type="curve" smooth="yes"/>
			<point x="257" y="720"/>
			<point x="185" y="656"/>
			<point x="154" y="502" type="curve" smooth="yes"/>
			<point x="88" y="171" type="line" smooth="yes"/>
			<point x="65" y="52"/>
			<point x="125" y="-12"/>
		</contour>
	</outline>
</glyph>
<glyph name="arrowdown" format="1">
	<unicode hex="2193"/>
	<advance width="593"/>
	<outline>
		<contour>
			<point x="294" y="-27" type="line"/>
			<point x="299" y="-27" type="line"/>
			<point x="563" y="235" type="line"/>
			<point x="521" y="274" type="line"/>
			<point x="328" y="79" type="line"/>
			<point x="328" y="527" type="line"/>
			<point x="265" y="527" type="line"/>
			<point x="265" y="79" type="line"/>
			<point x="72" y="274" type="line"/>
			<point x="30" y="235" type="line"/>
		</contour>
	</outline>
</glyph>
<glyph name="infinity" format="1">
	<unicode hex="221E"/>
	<advance width="752"/>
	<outline>
		<contour>
			<point x="540" y="152" type="curve" smooth="yes"/>
			<point x="636" y="152"/>
			<point x="708" y="228"/>
			<point x="708" y="331" type="curve" smooth="yes"/>
			<point x="708" y="438"/>
			<point x="636" y="506"/>
			<point x="539" y="506" type="curve" smooth="yes"/>
			<point x="460" y="506"/>
			<point x="408" y="453"/>
			<point x="358" y="386" type="curve"/>
			<point x="354" y="386" type="line"/>
			<point x="319" y="433"/>
			<point x="266" y="491"/>
			<point x="187" y="491" type="curve" smooth="yes"/>
			<point x="97" y="491"/>
			<point x="32" y="424"/>
			<point x="32" y="329" type="curve" smooth="yes"/>
			<point x="32" y="237"/>
			<point x="96" y="169"/>
			<point x="180" y="169" type="curve" smooth="yes"/>
			<point x="257" y="169"/>
			<point x="308" y="227"/>
			<point x="341" y="273" type="curve"/>
			<point x="345" y="273" type="line"/>
			<point x="403" y="197"/>
			<point x="459" y="152"/>
		</contour>
		<contour>
			<point x="187" y="227" type="curve" smooth="yes"/>
			<point x="134" y="227"/>
			<point x="92" y="269"/>
			<point x="92" y="326" type="curve" smooth="yes"/>
			<point x="92" y="384"/>
			<point x="131" y="421"/>
			<point x="186" y="421" type="curve" smooth="yes"/>
			<point x="233" y="421"/>
			<point x="277" y="380"/>
			<point x="316" y="323" type="curve"/>
			<point x="283" y="271"/>
			<point x="239" y="227"/>
		</contour>
		<contour>
			<point x="542" y="223" type="curve" smooth="yes"/>
			<point x="483" y="223"/>
			<point x="436" y="263"/>
			<point x="383" y="337" type="curve"/>
			<point x="430" y="405"/>
			<point x="480" y="448"/>
			<point x="536" y="448" type="curve" smooth="yes"/>
			<point x="604" y="448"/>
			<point x="648" y="400"/>
			<point x="648" y="335" type="curve" smooth="yes"/>
			<point x="648" y="273"/>
			<point x="607" y="223"/>
		</contour>
	</outline>
</glyph>
<glyph name="triangleblackup" format="1">
	<unicode hex="25B2"/>
	<advance width="895"/>
	<outline>
		<contour>
			<point x="69" y="-60" type="line"/>
			<point x="862" y="-60" type="line"/>
			<point x="862" y="-58" type="line"/>
			<point x="468" y="765" type="line"/>
			<point x="464" y="765" type="line"/>
			<point x="69" y="-58" type="line"/>
		</contour>
	</outline>
</glyph>
<glyph name="lozenge" format="1">
	<unicode hex="25CA"/>
	<advance width="499"/>
	<outline>
		<contour>
			<point x="228" y="-10" type="line"/>
			<point x="299" y="-10" type="line"/>
			<point x="457" y="330" type="line"/>
			<point x="299" y="670" type="line"/>
			<point x="228" y="670" type="line"/>
			<point x="70" y="330" type="line"/>
		</contour>
		<contour>
			<point x="261" y="54" type="line"/>
			<point x="201" y="187" type="line"/>
			<point x="138" y="330" type="line"/>
			<point x="201" y="471" type="line"/>
			<point x="261" y="606" type="line"/>
			<point x="265" y="606" type="line"/>
			<point x="326" y="471" type="line"/>
			<point x="389" y="330" type="line"/>
			<point x="326" y="187" type="line"/>
			<point x="265" y="54" type="line"/>
		</contour>
	</outline>
</glyph>
<glyph name="A" format="1">
  <advance width="510"/>
  <outline>
    <contour>
      <point x="-53" y="0" type="line"/>
      <point x="33" y="0" type="line"/>
      <point x="227" y="377" type="line" smooth="yes"/>
      <point x="264" y="449"/>
      <point x="297" y="515"/>
      <point x="332" y="591" type="curve"/>
      <point x="336" y="591" type="line"/>
      <point x="341" y="516"/>
      <point x="348" y="446"/>
      <point x="354" y="377" type="curve" smooth="yes"/>
      <point x="388" y="0" type="line"/>
      <point x="469" y="0" type="line"/>
      <point x="393" y="656" type="line"/>
      <point x="303" y="656" type="line"/>
    </contour>
    <contour>
      <point x="106" y="205" type="line"/>
      <point x="396" y="205" type="line"/>
      <point x="410" y="265" type="line"/>
      <point x="122" y="265" type="line"/>
    </contour>
    <contour>
      <point x="357" y="682" type="move" name="aboveUC"/>
    </contour>
    <contour>
      <point x="417" y="0" type="move" name="ogonekUC"/>
    </contour>
    <contour>
      <point x="223" y="-22" type="move" name="belowLC"/>
    </contour>
  </outline>
</glyph>
<glyph name="AE" format="1">
  <advance width="803"/>
  <outline>
    <contour>
      <point x="555" y="694" type="move" name="aboveUC"/>
    </contour>
    <contour>
      <point x="-33" y="0" type="line"/>
      <point x="56" y="0" type="line"/>
      <point x="313" y="380" type="line" smooth="yes"/>
      <point x="363" y="453"/>
      <point x="412" y="523"/>
      <point x="462" y="597" type="curve"/>
      <point x="465" y="597" type="line"/>
      <point x="346" y="0" type="line"/>
      <point x="705" y="0" type="line"/>
      <point x="718" y="66" type="line"/>
      <point x="436" y="66" type="line"/>
      <point x="487" y="312" type="line"/>
      <point x="715" y="312" type="line"/>
      <point x="728" y="378" type="line"/>
      <point x="499" y="378" type="line"/>
      <point x="541" y="591" type="line"/>
      <point x="814" y="591" type="line"/>
      <point x="828" y="656" type="line"/>
      <point x="426" y="656" type="line"/>
    </contour>
    <contour>
      <point x="147" y="194" type="line"/>
      <point x="428" y="194" type="line"/>
      <point x="442" y="256" type="line"/>
      <point x="161" y="256" type="line"/>
    </contour>
  </outline>
</glyph>
<glyph name="Bstroke" format="1">
  <advance width="610"/>
  <outline>
    <contour>
      <point x="53" y="0" type="line"/>
      <point x="263" y="0" type="line" smooth="yes"/>
      <point x="419" y="0"/>
      <point x="536" y="65"/>
      <point x="536" y="213" type="curve" smooth="yes"/>
      <point x="536" y="290"/>
      <point x="483" y="334"/>
      <point x="415" y="350" type="curve"/>
      <point x="416" y="354" type="line"/>
      <point x="488" y="370"/>
      <point x="562" y="428"/>
      <point x="562" y="515" type="curve" smooth="yes"/>
      <point x="562" y="607"/>
      <point x="485" y="656"/>
      <point x="359" y="656" type="curve" smooth="yes"/>
      <point x="184" y="656" type="line"/>
    </contour>
    <contour>
      <point x="206" y="379" type="line"/>
      <point x="249" y="598" type="line"/>
      <point x="340" y="598" type="line" smooth="yes"/>
      <point x="438" y="598"/>
      <point x="483" y="564"/>
      <point x="483" y="503" type="curve" smooth="yes"/>
      <point x="483" y="430"/>
      <point x="423" y="379"/>
      <point x="299" y="379" type="curve" smooth="yes"/>
    </contour>
    <contour>
      <point x="141" y="58" type="line"/>
      <point x="196" y="326" type="line"/>
      <point x="311" y="326" type="line" smooth="yes"/>
      <point x="407" y="326"/>
      <point x="460" y="280"/>
      <point x="460" y="213" type="curve" smooth="yes"/>
      <point x="460" y="105"/>
      <point x="379" y="58"/>
      <point x="256" y="58" type="curve" smooth="yes"/>
    </contour>
    <contour>
      <point x="18" y="179" type="line"/>
      <point x="315" y="179" type="line"/>
      <point x="324" y="223" type="line"/>
      <point x="99" y="223" type="line"/>
      <point x="27" y="219" type="line"/>
    </contour>
  </outline>
</glyph>
<glyph name="D" format="1">
  <advance width="592"/>
  <outline>
    <contour>
      <point x="35" y="0" type="line"/>
      <point x="211" y="0" type="line" smooth="yes"/>
      <point x="433" y="0"/>
      <point x="566" y="162"/>
      <point x="566" y="400" type="curve" smooth="yes"/>
      <point x="566" y="561"/>
      <point x="470" y="656"/>
      <point x="288" y="656" type="curve" smooth="yes"/>
      <point x="166" y="656" type="line"/>
    </contour>
    <contour>
      <point x="125" y="64" type="line"/>
      <point x="231" y="593" type="line"/>
      <point x="285" y="593" type="line" smooth="yes"/>
      <point x="417" y="593"/>
      <point x="487" y="519"/>
      <point x="487" y="395" type="curve" smooth="yes"/>
      <point x="487" y="200"/>
      <point x="381" y="64"/>
      <point x="211" y="64" type="curve" smooth="yes"/>
    </contour>
    <contour>
      <point x="385" y="682" type="move" name="aboveUC"/>
    </contour>
    <contour>
      <point x="262" y="-22" type="move" name="belowLC"/>
    </contour>
  </outline>
</glyph>
<glyph name="E" format="1">
  <advance width="503"/>
  <outline>
    <contour>
      <point x="35" y="0" type="line"/>
      <point x="405" y="0" type="line"/>
      <point x="419" y="66" type="line"/>
      <point x="125" y="66" type="line"/>
      <point x="176" y="312" type="line"/>
      <point x="415" y="312" type="line"/>
      <point x="429" y="378" type="line"/>
      <point x="188" y="378" type="line"/>
      <point x="230" y="591" type="line"/>
      <point x="515" y="591" type="line"/>
      <point x="528" y="656" type="line"/>
      <point x="166" y="656" type="line"/>
    </contour>
    <contour>
      <point x="369" y="682" type="move" name="aboveUC"/>
    </contour>
    <contour>
      <point x="337" y="0" type="move" name="ogonekUC"/>
    </contour>
    <contour>
      <point x="240" y="-22" type="move" name="belowLC"/>
    </contour>
  </outline>
</glyph>
<glyph name="Eogonek" format="1">
  <advance width="503"/>
  <outline>
    <contour>
      <point x="35" y="0" type="line"/>
      <point x="322" y="0" type="line"/>
      <point x="284" y="-26"/>
      <point x="228" y="-84"/>
      <point x="228" y="-142" type="curve" smooth="yes"/>
      <point x="228" y="-187"/>
      <point x="261" y="-211"/>
      <point x="306" y="-211" type="curve" smooth="yes"/>
      <point x="330" y="-211"/>
      <point x="360" y="-202"/>
      <point x="382" y="-188" type="curve"/>
      <point x="365" y="-146" type="line"/>
      <point x="352" y="-154"/>
      <point x="342" y="-157"/>
      <point x="330" y="-157" type="curve" smooth="yes"/>
      <point x="309" y="-157"/>
      <point x="293" y="-143"/>
      <point x="293" y="-119" type="curve" smooth="yes"/>
      <point x="293" y="-77"/>
      <point x="344" y="-7"/>
      <point x="405" y="0" type="curve"/>
      <point x="419" y="66" type="line"/>
      <point x="125" y="66" type="line"/>
      <point x="176" y="312" type="line"/>
      <point x="415" y="312" type="line"/>
      <point x="429" y="378" type="line"/>
      <point x="188" y="378" type="line"/>
      <point x="230" y="591" type="line"/>
      <point x="515" y="591" type="line"/>
      <point x="528" y="656" type="line"/>
      <point x="166" y="656" type="line"/>
    </contour>
    <contour>
      <point x="369" y="682" type="move" name="aboveUC"/>
    </contour>
  </outline>
</glyph>
<glyph name="Eth" format="1">
  <advance width="610"/>
  <outline>
    <contour>
      <point x="47" y="324" type="line"/>
      <point x="344" y="324" type="line"/>
      <point x="354" y="368" type="line"/>
      <point x="128" y="368" type="line"/>
      <point x="56" y="365" type="line"/>
    </contour>
    <component base="D" xOffset="18"/>
  </outline>
</glyph>
<glyph name="Euro" format="1">
  <advance width="480"/>
  <outline>
    <contour>
      <point x="271" y="-12" type="curve" smooth="yes"/>
      <point x="337" y="-12"/>
      <point x="393" y="16"/>
      <point x="442" y="62" type="curve"/>
      <point x="404" y="109" type="line"/>
      <point x="371" y="77"/>
      <point x="332" y="52"/>
      <point x="285" y="52" type="curve" smooth="yes"/>
      <point x="204" y="52"/>
      <point x="155" y="124"/>
      <point x="159" y="255" type="curve" smooth="yes"/>
      <point x="164" y="438"/>
      <point x="255" y="590"/>
      <point x="370" y="590" type="curve" smooth="yes"/>
      <point x="417" y="590"/>
      <point x="442" y="561"/>
      <point x="462" y="520" type="curve"/>
      <point x="520" y="557" type="line"/>
      <point x="492" y="610"/>
      <point x="450" y="653"/>
      <point x="377" y="653" type="curve" smooth="yes"/>
      <point x="222" y="653"/>
      <point x="87" y="481"/>
      <point x="82" y="250" type="curve" smooth="yes"/>
      <point x="79" y="81"/>
      <point x="153" y="-12"/>
    </contour>
    <contour>
      <point x="20" y="240" type="line"/>
      <point x="361" y="240" type="line"/>
      <point x="371" y="285" type="line"/>
      <point x="96" y="285" type="line"/>
      <point x="30" y="280" type="line"/>
    </contour>
    <contour>
      <point x="43" y="355" type="line"/>
      <point x="423" y="355" type="line"/>
      <point x="432" y="399" type="line"/>
      <point x="118" y="399" type="line"/>
      <point x="52" y="395" type="line"/>
    </contour>
  </outline>
</glyph>
<glyph name="F" format="1">
  <advance width="473"/>
  <outline>
    <contour>
      <point x="35" y="0" type="line"/>
      <point x="113" y="0" type="line"/>
      <point x="173" y="297" type="line"/>
      <point x="413" y="297" type="line"/>
      <point x="426" y="363" type="line"/>
      <point x="185" y="363" type="line"/>
      <point x="230" y="591" type="line"/>
      <point x="515" y="591" type="line"/>
      <point x="528" y="656" type="line"/>
      <point x="166" y="656" type="line"/>
    </contour>
    <contour>
      <point x="370" y="682" type="move" name="aboveUC"/>
    </contour>
    <contour>
      <point x="82" y="-22" type="move" name="belowLC"/>
    </contour>
  </outline>
</glyph>
<glyph name="G" format="1">
  <advance width="588"/>
  <outline>
    <contour>
      <point x="420" y="682" type="move" name="aboveUC"/>
    </contour>
    <contour>
      <point x="299" y="-22" type="move" name="belowLC"/>
    </contour>
    <contour>
      <point x="300" y="-12" type="curve" smooth="yes"/>
      <point x="375" y="-12"/>
      <point x="438" y="15"/>
      <point x="486" y="55" type="curve"/>
      <point x="543" y="339" type="line"/>
      <point x="337" y="339" type="line"/>
      <point x="324" y="275" type="line"/>
      <point x="460" y="275" type="line"/>
      <point x="423" y="94" type="line"/>
      <point x="397" y="72"/>
      <point x="359" y="54"/>
      <point x="311" y="54" type="curve" smooth="yes"/>
      <point x="185" y="54"/>
      <point x="137" y="143"/>
      <point x="137" y="260" type="curve" smooth="yes"/>
      <point x="137" y="419"/>
      <point x="237" y="601"/>
      <point x="402" y="601" type="curve" smooth="yes"/>
      <point x="455" y="601"/>
      <point x="491" y="572"/>
      <point x="516" y="530" type="curve"/>
      <point x="571" y="571" type="line"/>
      <point x="538" y="627"/>
      <point x="484" y="668"/>
      <point x="406" y="668" type="curve" smooth="yes"/>
      <point x="191" y="668"/>
      <point x="57" y="461"/>
      <point x="57" y="253" type="curve" smooth="yes"/>
      <point x="57" y="93"/>
      <point x="142" y="-12"/>
    </contour>
  </outline>
</glyph>
<glyph name="Hbar" format="1">
  <advance width="643"/>
  <outline>
    <contour>
      <point x="76" y="493" type="line"/>
      <point x="677" y="493" type="line"/>
      <point x="686" y="537" type="line"/>
      <point x="159" y="537" type="line"/>
      <point x="85" y="534" type="line"/>
    </contour>
    <component base="H" xOffset="9"/>
  </outline>
</glyph>
<glyph name="I" format="1">
  <advance width="252"/>
  <outline>
    <contour>
      <point x="219" y="682" type="move" name="aboveUC"/>
    </contour>
    <contour>
      <point x="72" y="0" type="move" name="ogonekUC"/>
    </contour>
    <contour>
      <point x="80" y="-27" type="move" name="belowLC"/>
    </contour>
    <contour>
      <point x="35" y="0" type="line"/>
      <point x="113" y="0" type="line"/>
      <point x="244" y="656" type="line"/>
      <point x="166" y="656" type="line"/>
    </contour>
  </outline>
</glyph>
<glyph name="I.alt" format="1">
  <advance width="324"/>
  <outline>
    <contour>
      <point x="256" y="682" type="move" name="aboveUC"/>
    </contour>
    <contour>
      <point x="110" y="0" type="move" name="ogonekUC"/>
    </contour>
    <contour>
      <point x="117" y="-27" type="move" name="belowLC"/>
    </contour>
    <contour>
      <point x="-7" y="0" type="line"/>
      <point x="230" y="0" type="line"/>
      <point x="244" y="66" type="line"/>
      <point x="163" y="66" type="line"/>
      <point x="268" y="591" type="line"/>
      <point x="349" y="591" type="line"/>
      <point x="363" y="656" type="line"/>
      <point x="125" y="656" type="line"/>
      <point x="111" y="591" type="line"/>
      <point x="191" y="591" type="line"/>
      <point x="85" y="66" type="line"/>
      <point x="7" y="66" type="line"/>
    </contour>
  </outline>
</glyph>
<glyph name="Iogonek" format="1">
  <advance width="252"/>
  <outline>
    <contour>
      <point x="37" y="-211" type="curve" smooth="yes"/>
      <point x="60" y="-211"/>
      <point x="94" y="-201"/>
      <point x="115" y="-186" type="curve"/>
      <point x="97" y="-146" type="line"/>
      <point x="85" y="-154"/>
      <point x="75" y="-157"/>
      <point x="62" y="-157" type="curve" smooth="yes"/>
      <point x="42" y="-157"/>
      <point x="26" y="-143"/>
      <point x="26" y="-119" type="curve" smooth="yes"/>
      <point x="26" y="-80"/>
      <point x="62" y="-31"/>
      <point x="113" y="0" type="curve"/>
      <point x="244" y="656" type="line"/>
      <point x="166" y="656" type="line"/>
      <point x="35" y="0" type="line"/>
      <point x="50" y="0" type="line"/>
      <point x="16" y="-26"/>
      <point x="-39" y="-84"/>
      <point x="-39" y="-142" type="curve" smooth="yes"/>
      <point x="-39" y="-187"/>
      <point x="-7" y="-211"/>
    </contour>
    <contour>
      <point x="219" y="682" type="move" name="aboveUC"/>
    </contour>
  </outline>
</glyph>
<glyph name="J" format="1">
  <advance width="456"/>
  <outline>
    <contour>
      <point x="159" y="-12" type="curve" smooth="yes"/>
      <point x="273" y="-12"/>
      <point x="340" y="71"/>
      <point x="362" y="184" type="curve" smooth="yes"/>
      <point x="456" y="656" type="line"/>
      <point x="378" y="656" type="line"/>
      <point x="286" y="195" type="line" smooth="yes"/>
      <point x="269" y="108"/>
      <point x="227" y="55"/>
      <point x="161" y="55" type="curve" smooth="yes"/>
      <point x="106" y="55"/>
      <point x="68" y="84"/>
      <point x="49" y="132" type="curve"/>
      <point x="-2" y="89" type="line"/>
      <point x="26" y="28"/>
      <point x="81" y="-12"/>
    </contour>
    <contour>
      <point x="430" y="682" type="move" name="aboveUC"/>
    </contour>
    <contour>
      <point x="141" y="-30" type="move" name="belowLC"/>
    </contour>
  </outline>
</glyph>
<glyph name="K" format="1">
  <advance width="559"/>
  <outline>
    <contour>
      <point x="35" y="0" type="line"/>
      <point x="113" y="0" type="line"/>
      <point x="158" y="220" type="line"/>
      <point x="295" y="354" type="line"/>
      <point x="421" y="0" type="line"/>
      <point x="502" y="0" type="line"/>
      <point x="353" y="404" type="line"/>
      <point x="599" y="656" type="line"/>
      <point x="511" y="656" type="line"/>
      <point x="182" y="332" type="line"/>
      <point x="179" y="332" type="line"/>
      <point x="244" y="656" type="line"/>
      <point x="166" y="656" type="line"/>
    </contour>
    <contour>
      <point x="402" y="682" type="move" name="aboveUC"/>
    </contour>
    <contour>
      <point x="275" y="-22" type="move" name="belowLC"/>
    </contour>
  </outline>
</glyph>
<glyph name="L" format="1">
  <advance width="462"/>
  <outline>
    <contour>
      <point x="35" y="0" type="line"/>
      <point x="389" y="0" type="line"/>
      <point x="402" y="66" type="line"/>
      <point x="126" y="66" type="line"/>
      <point x="244" y="656" type="line"/>
      <point x="166" y="656" type="line"/>
    </contour>
    <contour>
      <point x="226" y="682" type="move" name="aboveUC"/>
    </contour>
    <contour>
      <point x="226" y="-22" type="move" name="belowLC"/>
    </contour>
  </outline>
</glyph>
<glyph name="Lslash" format="1">
  <advance width="462"/>
  <outline>
    <contour>
      <point x="11" y="202" type="line"/>
      <point x="103" y="247" type="line"/>
      <point x="154" y="270" type="line"/>
      <point x="383" y="380" type="line"/>
      <point x="362" y="433" type="line"/>
      <point x="167" y="337" type="line"/>
      <point x="116" y="315" type="line"/>
      <point x="-9" y="255" type="line"/>
    </contour>
    <component base="L"/>
  </outline>
</glyph>
<glyph name="O" format="1">
  <advance width="633"/>
  <outline>
    <contour>
      <point x="287" y="-12" type="curve" smooth="yes"/>
      <point x="475" y="-12"/>
      <point x="606" y="193"/>
      <point x="606" y="394" type="curve" smooth="yes"/>
      <point x="606" y="559"/>
      <point x="526" y="668"/>
      <point x="379" y="668" type="curve" smooth="yes"/>
      <point x="191" y="668"/>
      <point x="60" y="463"/>
      <point x="60" y="263" type="curve" smooth="yes"/>
      <point x="60" y="97"/>
      <point x="140" y="-12"/>
    </contour>
    <contour>
      <point x="291" y="55" type="curve" smooth="yes"/>
      <point x="186" y="55"/>
      <point x="139" y="141"/>
      <point x="139" y="269" type="curve" smooth="yes"/>
      <point x="139" y="423"/>
      <point x="234" y="601"/>
      <point x="375" y="601" type="curve" smooth="yes"/>
      <point x="479" y="601"/>
      <point x="527" y="516"/>
      <point x="527" y="387" type="curve" smooth="yes"/>
      <point x="527" y="234"/>
      <point x="432" y="55"/>
    </contour>
    <contour>
      <point x="416" y="682" type="move" name="aboveUC"/>
    </contour>
    <contour>
      <point x="511" y="648" type="move" name="hornLC"/>
    </contour>
    <contour>
      <point x="286" y="0" type="move" name="ogonekUC"/>
    </contour>
    <contour>
      <point x="280" y="-22" type="move" name="belowLC"/>
    </contour>
  </outline>
</glyph>
<glyph name="OE" format="1">
  <advance width="816"/>
  <outline>
    <contour>
      <point x="338" y="0" type="curve" smooth="yes"/>
      <point x="718" y="0" type="line"/>
      <point x="732" y="66" type="line"/>
      <point x="456" y="66" type="line"/>
      <point x="507" y="312" type="line"/>
      <point x="728" y="312" type="line"/>
      <point x="742" y="378" type="line"/>
      <point x="519" y="378" type="line"/>
      <point x="562" y="591" type="line"/>
      <point x="827" y="591" type="line"/>
      <point x="841" y="656" type="line"/>
      <point x="415" y="656" type="line" smooth="yes"/>
      <point x="193" y="656"/>
      <point x="60" y="495"/>
      <point x="60" y="256" type="curve" smooth="yes"/>
      <point x="60" y="95"/>
      <point x="156" y="0"/>
    </contour>
    <contour>
      <point x="341" y="64" type="line" smooth="yes"/>
      <point x="209" y="64"/>
      <point x="139" y="137"/>
      <point x="139" y="261" type="curve" smooth="yes"/>
      <point x="139" y="457"/>
      <point x="245" y="593"/>
      <point x="415" y="593" type="curve" smooth="yes"/>
      <point x="486" y="593" type="line"/>
      <point x="380" y="64" type="line"/>
    </contour>
    <contour>
      <point x="580" y="682" type="move" name="aboveUC"/>
    </contour>
  </outline>
</glyph>
<glyph name="Ohorn" format="1">
  <advance width="633"/>
  <outline>
    <contour>
      <point x="411" y="682" type="move" name="aboveUC"/>
    </contour>
    <contour>
      <point x="283" y="-22" type="move" name="belowLC"/>
    </contour>
    <contour>
      <point x="535" y="602" type="line"/>
      <point x="611" y="614"/>
      <point x="660" y="660"/>
      <point x="660" y="718" type="curve" smooth="yes"/>
      <point x="660" y="734"/>
      <point x="657" y="748"/>
      <point x="649" y="765" type="curve"/>
      <point x="590" y="745" type="line"/>
      <point x="594" y="731"/>
      <point x="595" y="722"/>
      <point x="595" y="712" type="curve" smooth="yes"/>
      <point x="595" y="669"/>
      <point x="552" y="640"/>
      <point x="493" y="637" type="curve"/>
    </contour>
    <component base="O"/>
  </outline>
</glyph>
<glyph name="Omega.math" format="1">
  <advance width="658"/>
  <outline>
    <contour>
      <point x="-7" y="0" type="line"/>
      <point x="219" y="0" type="line"/>
      <point x="229" y="51" type="line"/>
      <point x="180" y="95"/>
      <point x="143" y="173"/>
      <point x="143" y="273" type="curve" smooth="yes"/>
      <point x="143" y="461"/>
      <point x="253" y="601"/>
      <point x="397" y="601" type="curve" smooth="yes"/>
      <point x="495" y="601"/>
      <point x="551" y="525"/>
      <point x="551" y="414" type="curve" smooth="yes"/>
      <point x="551" y="244"/>
      <point x="457" y="125"/>
      <point x="349" y="51" type="curve"/>
      <point x="338" y="0" type="line"/>
      <point x="565" y="0" type="line"/>
      <point x="576" y="64" type="line"/>
      <point x="452" y="64" type="line"/>
      <point x="454" y="68" type="line"/>
      <point x="536" y="136"/>
      <point x="632" y="250"/>
      <point x="632" y="426" type="curve" smooth="yes"/>
      <point x="632" y="571"/>
      <point x="549" y="668"/>
      <point x="409" y="668" type="curve" smooth="yes"/>
      <point x="215" y="668"/>
      <point x="66" y="504"/>
      <point x="66" y="280" type="curve" smooth="yes"/>
      <point x="66" y="186"/>
      <point x="102" y="110"/>
      <point x="136" y="68" type="curve"/>
      <point x="136" y="64" type="line"/>
      <point x="5" y="64" type="line"/>
    </contour>
  </outline>
</glyph>
<glyph name="Oogonek" format="1">
  <advance width="633"/>
  <outline>
    <contour>
      <point x="416" y="682" type="move" name="aboveUC"/>
    </contour>
    <contour>
      <point x="257" y="-211" type="curve" smooth="yes"/>
      <point x="280" y="-211"/>
      <point x="310" y="-202"/>
      <point x="333" y="-188" type="curve"/>
      <point x="316" y="-146" type="line"/>
      <point x="303" y="-154"/>
      <point x="293" y="-157"/>
      <point x="280" y="-157" type="curve" smooth="yes"/>
      <point x="260" y="-157"/>
      <point x="244" y="-143"/>
      <point x="244" y="-119" type="curve" smooth="yes"/>
      <point x="244" y="-80"/>
      <point x="278" y="-32"/>
      <point x="357" y="-3" type="curve" smooth="yes"/>
      <point x="517" y="55"/>
      <point x="606" y="222"/>
      <point x="606" y="394" type="curve" smooth="yes"/>
      <point x="606" y="559"/>
      <point x="526" y="668"/>
      <point x="379" y="668" type="curve" smooth="yes"/>
      <point x="191" y="668"/>
      <point x="60" y="463"/>
      <point x="60" y="263" type="curve" smooth="yes"/>
      <point x="60" y="104"/>
      <point x="132" y="1"/>
      <point x="263" y="-11" type="curve"/>
      <point x="229" y="-33"/>
      <point x="179" y="-87"/>
      <point x="179" y="-142" type="curve" smooth="yes"/>
      <point x="179" y="-187"/>
      <point x="211" y="-211"/>
    </contour>
    <contour>
      <point x="291" y="55" type="curve" smooth="yes"/>
      <point x="186" y="55"/>
      <point x="139" y="141"/>
      <point x="139" y="269" type="curve" smooth="yes"/>
      <point x="139" y="423"/>
      <point x="234" y="601"/>
      <point x="375" y="601" type="curve" smooth="yes"/>
      <point x="479" y="601"/>
      <point x="527" y="516"/>
      <point x="527" y="387" type="curve" smooth="yes"/>
      <point x="527" y="234"/>
      <point x="432" y="55"/>
    </contour>
  </outline>
</glyph>
<glyph name="Oslash" format="1">
  <advance width="633"/>
  <outline>
    <contour>
      <point x="37" y="-30" type="line"/>
      <point x="673" y="652" type="line"/>
      <point x="637" y="687" type="line"/>
      <point x="-3" y="5" type="line"/>
    </contour>
    <component base="O"/>
    <contour>
      <point x="419" y="682" type="move" name="aboveUC"/>
    </contour>
  </outline>
</glyph>
<glyph name="P" format="1">
  <advance width="550"/>
  <outline>
    <contour>
      <point x="35" y="0" type="line"/>
      <point x="113" y="0" type="line"/>
      <point x="165" y="264" type="line"/>
      <point x="270" y="264" type="line" smooth="yes"/>
      <point x="437" y="264"/>
      <point x="557" y="335"/>
      <point x="557" y="496" type="curve" smooth="yes"/>
      <point x="557" y="610"/>
      <point x="474" y="656"/>
      <point x="351" y="656" type="curve" smooth="yes"/>
      <point x="166" y="656" type="line"/>
    </contour>
    <contour>
      <point x="178" y="327" type="line"/>
      <point x="231" y="594" type="line"/>
      <point x="332" y="594" type="line" smooth="yes"/>
      <point x="428" y="594"/>
      <point x="480" y="562"/>
      <point x="480" y="486" type="curve" smooth="yes"/>
      <point x="480" y="381"/>
      <point x="408" y="327"/>
      <point x="273" y="327" type="curve" smooth="yes"/>
    </contour>
    <contour>
      <point x="383" y="682" type="move" name="aboveUC"/>
    </contour>
    <contour>
      <point x="80" y="-30" type="move" name="belowLC"/>
    </contour>
  </outline>
</glyph>
<glyph name="S" format="1">
  <advance width="506"/>
  <outline>
    <contour>
      <point x="231" y="-12" type="curve" smooth="yes"/>
      <point x="364" y="-12"/>
      <point x="459" y="72"/>
      <point x="459" y="189" type="curve" smooth="yes"/>
      <point x="459" y="262"/>
      <point x="423" y="306"/>
      <point x="360" y="343" type="curve" smooth="yes"/>
      <point x="284" y="388" type="line" smooth="yes"/>
      <point x="236" y="417"/>
      <point x="199" y="444"/>
      <point x="199" y="495" type="curve" smooth="yes"/>
      <point x="199" y="548"/>
      <point x="244" y="601"/>
      <point x="318" y="601" type="curve" smooth="yes"/>
      <point x="379" y="601"/>
      <point x="425" y="570"/>
      <point x="459" y="530" type="curve"/>
      <point x="510" y="576" type="line"/>
      <point x="469" y="629"/>
      <point x="402" y="668"/>
      <point x="324" y="668" type="curve" smooth="yes"/>
      <point x="206" y="668"/>
      <point x="120" y="585"/>
      <point x="120" y="486" type="curve" smooth="yes"/>
      <point x="120" y="412"/>
      <point x="165" y="366"/>
      <point x="221" y="332" type="curve" smooth="yes"/>
      <point x="297" y="286" type="line" smooth="yes"/>
      <point x="346" y="256"/>
      <point x="379" y="226"/>
      <point x="379" y="178" type="curve" smooth="yes"/>
      <point x="379" y="103"/>
      <point x="318" y="54"/>
      <point x="238" y="54" type="curve" smooth="yes"/>
      <point x="165" y="54"/>
      <point x="108" y="89"/>
      <point x="69" y="147" type="curve"/>
      <point x="12" y="104" type="line"/>
      <point x="65" y="26"/>
      <point x="141" y="-12"/>
    </contour>
    <contour>
      <point x="361" y="685" type="move" name="aboveUC"/>
    </contour>
    <contour>
      <point x="231" y="0" type="move" name="baseLC"/>
    </contour>
    <contour>
      <point x="225" y="-30" type="move" name="belowLC"/>
    </contour>
  </outline>
</glyph>
<glyph name="T" format="1">
  <advance width="510"/>
  <outline>
    <contour>
      <point x="348" y="682" type="move" name="aboveUC"/>
    </contour>
    <contour>
      <point x="215" y="0" type="move" name="baseLC"/>
    </contour>
    <contour>
      <point x="209" y="-22" type="move" name="belowLC"/>
    </contour>
    <contour>
      <point x="166" y="0" type="line"/>
      <point x="244" y="0" type="line"/>
      <point x="361" y="589" type="line"/>
      <point x="552" y="589" type="line"/>
      <point x="565" y="656" type="line"/>
      <point x="106" y="656" type="line"/>
      <point x="93" y="589" type="line"/>
      <point x="283" y="589" type="line"/>
    </contour>
  </outline>
</glyph>
<glyph name="Thorn" format="1">
  <advance width="562"/>
  <outline>
    <contour>
      <point x="35" y="0" type="line"/>
      <point x="112" y="0" type="line"/>
      <point x="142" y="152" type="line"/>
      <point x="248" y="152" type="line" smooth="yes"/>
      <point x="415" y="152"/>
      <point x="535" y="224"/>
      <point x="535" y="385" type="curve" smooth="yes"/>
      <point x="535" y="498"/>
      <point x="455" y="545"/>
      <point x="336" y="545" type="curve" smooth="yes"/>
      <point x="221" y="545" type="line"/>
      <point x="244" y="660" type="line"/>
      <point x="166" y="660" type="line"/>
    </contour>
    <contour>
      <point x="156" y="215" type="line"/>
      <point x="208" y="482" type="line"/>
      <point x="313" y="482" type="line" smooth="yes"/>
      <point x="407" y="482"/>
      <point x="458" y="450"/>
      <point x="458" y="374" type="curve" smooth="yes"/>
      <point x="458" y="270"/>
      <point x="386" y="215"/>
      <point x="250" y="215" type="curve" smooth="yes"/>
    </contour>
  </outline>
</glyph>
<glyph name="U" format="1">
  <advance width="616"/>
  <outline>
    <contour>
      <point x="407" y="682" type="move" name="aboveUC"/>
    </contour>
    <contour>
      <point x="588" y="666" type="move" name="hornLC"/>
    </contour>
    <contour>
      <point x="273" y="0" type="move" name="ogonekUC"/>
    </contour>
    <contour>
      <point x="263" y="-22" type="move" name="belowLC"/>
    </contour>
    <contour>
      <point x="89" y="288" type="line"/>
      <point x="83" y="255"/>
      <point x="79" y="223"/>
      <point x="79" y="195" type="curve" smooth="yes"/>
      <point x="79" y="59"/>
      <point x="153" y="-12"/>
      <point x="286" y="-12" type="curve" smooth="yes"/>
      <point x="403" y="-12"/>
      <point x="495" y="62"/>
      <point x="532" y="251" type="curve" smooth="yes"/>
      <point x="614" y="656" type="line"/>
      <point x="538" y="656" type="line"/>
      <point x="457" y="254" type="line" smooth="yes"/>
      <point x="429" y="111"/>
      <point x="365" y="55"/>
      <point x="290" y="55" type="curve" smooth="yes"/>
      <point x="198" y="55"/>
      <point x="157" y="108"/>
      <point x="157" y="202" type="curve" smooth="yes"/>
      <point x="157" y="226"/>
      <point x="160" y="251"/>
      <point x="166" y="281" type="curve" smooth="yes"/>
      <point x="241" y="656" type="line"/>
      <point x="163" y="656" type="line"/>
    </contour>
  </outline>
</glyph>
<glyph name="Uhorn" format="1">
  <advance width="629"/>
  <outline>
    <contour>
      <point x="408" y="682" type="move" name="aboveUC"/>
    </contour>
    <contour>
      <point x="269" y="-22" type="move" name="belowLC"/>
    </contour>
    <contour>
      <point x="603" y="620" type="line"/>
      <point x="683" y="633"/>
      <point x="740" y="675"/>
      <point x="740" y="751" type="curve" smooth="yes"/>
      <point x="740" y="770"/>
      <point x="736" y="787"/>
      <point x="728" y="808" type="curve"/>
      <point x="666" y="787" type="line"/>
      <point x="672" y="771"/>
      <point x="674" y="758"/>
      <point x="674" y="745" type="curve" smooth="yes"/>
      <point x="674" y="692"/>
      <point x="635" y="660"/>
      <point x="569" y="656" type="curve"/>
    </contour>
    <component base="U"/>
  </outline>
</glyph>
<glyph name="V" format="1">
  <advance width="496"/>
  <outline>
    <contour>
      <point x="141" y="0" type="line"/>
      <point x="234" y="0" type="line"/>
      <point x="577" y="656" type="line"/>
      <point x="493" y="656" type="line"/>
      <point x="312" y="292" type="line" smooth="yes"/>
      <point x="277" y="222"/>
      <point x="241" y="146"/>
      <point x="208" y="76" type="curve"/>
      <point x="204" y="76" type="line"/>
      <point x="200" y="148"/>
      <point x="194" y="221"/>
      <point x="188" y="292" type="curve" smooth="yes"/>
      <point x="161" y="656" type="line"/>
      <point x="82" y="656" type="line"/>
    </contour>
    <contour>
      <point x="350" y="682" type="move" name="aboveUC"/>
    </contour>
    <contour>
      <point x="209" y="-30" type="move" name="belowLC"/>
    </contour>
  </outline>
</glyph>
<glyph name="W" format="1">
  <advance width="756"/>
  <outline>
    <contour>
      <point x="474" y="682" type="move" name="aboveUC"/>
    </contour>
    <contour>
      <point x="326" y="-30" type="move" name="belowLC"/>
    </contour>
    <contour>
      <point x="95" y="0" type="line"/>
      <point x="192" y="0" type="line"/>
      <point x="371" y="401" type="line" smooth="yes"/>
      <point x="393" y="453"/>
      <point x="416" y="503"/>
      <point x="435" y="555" type="curve"/>
      <point x="439" y="555" type="line"/>
      <point x="437" y="503"/>
      <point x="436" y="449"/>
      <point x="436" y="401" type="curve" smooth="yes"/>
      <point x="443" y="0" type="line"/>
      <point x="542" y="0" type="line"/>
      <point x="812" y="656" type="line"/>
      <point x="735" y="656" type="line"/>
      <point x="593" y="295" type="line" smooth="yes"/>
      <point x="566" y="225"/>
      <point x="537" y="154"/>
      <point x="510" y="82" type="curve"/>
      <point x="506" y="82" type="line"/>
      <point x="506" y="154"/>
      <point x="506" y="226"/>
      <point x="505" y="295" type="curve" smooth="yes"/>
      <point x="496" y="656" type="line"/>
      <point x="425" y="656" type="line"/>
      <point x="261" y="295" type="line" smooth="yes"/>
      <point x="232" y="225"/>
      <point x="199" y="153"/>
      <point x="168" y="82" type="curve"/>
      <point x="164" y="82" type="line"/>
      <point x="169" y="153"/>
      <point x="170" y="225"/>
      <point x="174" y="295" type="curve" smooth="yes"/>
      <point x="184" y="656" type="line"/>
      <point x="104" y="656" type="line"/>
    </contour>
  </outline>
</glyph>
<glyph name="Z" format="1">
  <advance width="512"/>
  <outline>
    <contour>
      <point x="359" y="682" type="move" name="aboveUC"/>
    </contour>
    <contour>
      <point x="212" y="-30" type="move" name="belowLC"/>
    </contour>
    <contour>
      <point x="-1" y="0" type="line"/>
      <point x="425" y="0" type="line"/>
      <point x="440" y="66" type="line"/>
      <point x="109" y="66" type="line"/>
      <point x="531" y="610" type="line"/>
      <point x="541" y="656" type="line"/>
      <point x="148" y="656" type="line"/>
      <point x="134" y="591" type="line"/>
      <point x="434" y="591" type="line"/>
      <point x="9" y="47" type="line"/>
    </contour>
  </outline>
</glyph>
<glyph name=".notdef" format="1">
  <advance width="628"/>
  <outline>
    <contour>
      <point x="36" y="0" type="line"/>
      <point x="492" y="0" type="line"/>
      <point x="622" y="660" type="line"/>
      <point x="166" y="660" type="line"/>
    </contour>
    <contour>
      <point x="338" y="384" type="line"/>
      <point x="310" y="477" type="line"/>
      <point x="270" y="604" type="line"/>
      <point x="499" y="604" type="line"/>
      <point x="409" y="477" type="line"/>
      <point x="342" y="384" type="line"/>
    </contour>
    <contour>
      <point x="150" y="56" type="line"/>
      <point x="249" y="192" type="line"/>
      <point x="320" y="293" type="line"/>
      <point x="324" y="293" type="line"/>
      <point x="355" y="192" type="line"/>
      <point x="399" y="56" type="line"/>
    </contour>
    <contour>
      <point x="120" y="105" type="line"/>
      <point x="214" y="575" type="line"/>
      <point x="289" y="340" type="line"/>
    </contour>
    <contour>
      <point x="450" y="105" type="line"/>
      <point x="375" y="340" type="line"/>
      <point x="546" y="575" type="line"/>
    </contour>
  </outline>
</glyph>
<glyph name="a" format="1">
  <advance width="537"/>
  <outline>
    <contour>
      <point x="342" y="0" type="move" name="ogonekLC"/>
    </contour>
    <contour>
      <point x="321" y="509" type="move" name="aboveLC"/>
    </contour>
    <contour>
      <point x="234" y="-22" type="move" name="belowLC"/>
    </contour>
    <contour>
      <point x="179" y="-12" type="curve" smooth="yes"/>
      <point x="240" y="-12"/>
      <point x="301" y="22"/>
      <point x="348" y="72" type="curve"/>
      <point x="352" y="72" type="line"/>
      <point x="344" y="0" type="line"/>
      <point x="407" y="0" type="line"/>
      <point x="504" y="486" type="line"/>
      <point x="442" y="486" type="line"/>
      <point x="423" y="425" type="line"/>
      <point x="419" y="425" type="line"/>
      <point x="396" y="469"/>
      <point x="354" y="498"/>
      <point x="302" y="498" type="curve" smooth="yes"/>
      <point x="167" y="498"/>
      <point x="39" y="351"/>
      <point x="39" y="164" type="curve" smooth="yes"/>
      <point x="39" y="50"/>
      <point x="94" y="-12"/>
    </contour>
    <contour>
      <point x="207" y="52" type="curve" smooth="yes"/>
      <point x="153" y="52"/>
      <point x="118" y="92"/>
      <point x="118" y="176" type="curve" smooth="yes"/>
      <point x="118" y="310"/>
      <point x="208" y="434"/>
      <point x="305" y="434" type="curve" smooth="yes"/>
      <point x="342" y="434"/>
      <point x="376" y="413"/>
      <point x="404" y="362" type="curve"/>
      <point x="360" y="145" type="line"/>
      <point x="312" y="82"/>
      <point x="258" y="52"/>
    </contour>
  </outline>
</glyph>
<glyph name="a.supa" format="1">
  <advance width="333"/>
  <outline>
    <contour>
      <point x="58" y="337" type="curve" smooth="yes"/>
      <point x="58" y="287"/>
      <point x="94" y="258"/>
      <point x="140" y="258" type="curve" smooth="yes"/>
      <point x="175" y="258"/>
      <point x="215" y="279"/>
      <point x="242" y="305" type="curve"/>
      <point x="246" y="305" type="line"/>
      <point x="242" y="266" type="line"/>
      <point x="288" y="266" type="line"/>
      <point x="325" y="454" type="line" smooth="yes"/>
      <point x="328" y="469"/>
      <point x="331" y="486"/>
      <point x="331" y="499" type="curve" smooth="yes"/>
      <point x="331" y="568"/>
      <point x="293" y="596"/>
      <point x="228" y="596" type="curve" smooth="yes"/>
      <point x="188" y="596"/>
      <point x="146" y="582"/>
      <point x="110" y="563" type="curve"/>
      <point x="129" y="522" type="line"/>
      <point x="161" y="538"/>
      <point x="189" y="549"/>
      <point x="217" y="549" type="curve" smooth="yes"/>
      <point x="257" y="549"/>
      <point x="273" y="530"/>
      <point x="273" y="493" type="curve" smooth="yes"/>
      <point x="273" y="485"/>
      <point x="273" y="479"/>
      <point x="270" y="468" type="curve"/>
      <point x="149" y="463"/>
      <point x="58" y="429"/>
    </contour>
    <contour>
      <point x="263" y="430" type="curve"/>
      <point x="247" y="348" type="line"/>
      <point x="217" y="321"/>
      <point x="189" y="304"/>
      <point x="160" y="304" type="curve" smooth="yes"/>
      <point x="133" y="304"/>
      <point x="114" y="317"/>
      <point x="114" y="348" type="curve" smooth="yes"/>
      <point x="114" y="399"/>
      <point x="172" y="427"/>
    </contour>
  </outline>
</glyph>
<glyph name="a.sups" format="1">
  <advance width="354"/>
  <outline>
    <contour>
      <point x="85" y="505" type="curve" smooth="yes"/>
      <point x="85" y="428"/>
      <point x="123" y="387"/>
      <point x="179" y="387" type="curve" smooth="yes"/>
      <point x="220" y="387"/>
      <point x="259" y="408"/>
      <point x="291" y="442" type="curve"/>
      <point x="295" y="442" type="line"/>
      <point x="289" y="395" type="line"/>
      <point x="336" y="395" type="line"/>
      <point x="399" y="716" type="line"/>
      <point x="354" y="716" type="line"/>
      <point x="340" y="677" type="line"/>
      <point x="336" y="677" type="line"/>
      <point x="320" y="709"/>
      <point x="293" y="724"/>
      <point x="262" y="724" type="curve" smooth="yes"/>
      <point x="171" y="724"/>
      <point x="85" y="627"/>
    </contour>
    <contour>
      <point x="198" y="435" type="curve" smooth="yes"/>
      <point x="167" y="435"/>
      <point x="144" y="459"/>
      <point x="144" y="512" type="curve" smooth="yes"/>
      <point x="144" y="598"/>
      <point x="204" y="676"/>
      <point x="264" y="676" type="curve" smooth="yes"/>
      <point x="286" y="676"/>
      <point x="307" y="664"/>
      <point x="325" y="631" type="curve"/>
      <point x="299" y="497" type="line"/>
      <point x="269" y="458"/>
      <point x="230" y="435"/>
    </contour>
  </outline>
</glyph>
<glyph name="a.alt" format="1">
  <advance width="492"/>
  <outline>
    <contour>
      <point x="307" y="0" type="move" name="ogonekLC"/>
    </contour>
    <contour>
      <point x="300" y="509" type="move" name="aboveLC"/>
    </contour>
    <contour>
      <point x="207" y="-22" type="move" name="belowLC"/>
    </contour>
    <contour>
      <point x="32" y="106" type="curve" smooth="yes"/>
      <point x="32" y="30"/>
      <point x="88" y="-12"/>
      <point x="153" y="-12" type="curve" smooth="yes"/>
      <point x="208" y="-12"/>
      <point x="269" y="19"/>
      <point x="311" y="57" type="curve"/>
      <point x="314" y="57" type="line"/>
      <point x="310" y="0" type="line"/>
      <point x="372" y="0" type="line"/>
      <point x="429" y="286" type="line"/>
      <point x="434" y="307"/>
      <point x="437" y="333"/>
      <point x="437" y="353" type="curve" smooth="yes"/>
      <point x="437" y="456"/>
      <point x="381" y="498"/>
      <point x="287" y="498" type="curve" smooth="yes"/>
      <point x="228" y="498"/>
      <point x="164" y="476"/>
      <point x="113" y="448" type="curve"/>
      <point x="138" y="392" type="line"/>
      <point x="185" y="419"/>
      <point x="229" y="436"/>
      <point x="273" y="436" type="curve" smooth="yes"/>
      <point x="332" y="436"/>
      <point x="361" y="412"/>
      <point x="361" y="346" type="curve" smooth="yes"/>
      <point x="361" y="332"/>
      <point x="360" y="320"/>
      <point x="355" y="301" type="curve"/>
      <point x="164" y="296"/>
      <point x="32" y="244"/>
    </contour>
    <contour>
      <point x="346" y="250" type="curve"/>
      <point x="319" y="115" type="line"/>
      <point x="270" y="72"/>
      <point x="226" y="49"/>
      <point x="185" y="49" type="curve" smooth="yes"/>
      <point x="140" y="49"/>
      <point x="107" y="72"/>
      <point x="107" y="122" type="curve" smooth="yes"/>
      <point x="107" y="203"/>
      <point x="195" y="246"/>
    </contour>
  </outline>
</glyph>
<glyph name="acutecmb.cap" format="1">
  <advance width="0"/>
  <outline>
    <contour>
      <point x="136" y="682" type="move" name="_aboveUC"/>
    </contour>
    <contour>
      <point x="111" y="699" type="line"/>
      <point x="266" y="801" type="line"/>
      <point x="217" y="844" type="line"/>
      <point x="71" y="733" type="line"/>
    </contour>
  </outline>
</glyph>
<glyph name="acutecmb" format="1">
  <advance width="0"/>
  <outline>
    <contour>
      <point x="108" y="509" type="move" name="_aboveLC"/>
    </contour>
    <contour>
      <point x="91" y="573" type="line"/>
      <point x="250" y="709" type="line"/>
      <point x="191" y="754" type="line"/>
      <point x="48" y="606" type="line"/>
    </contour>
  </outline>
</glyph>
<glyph name="acutecmb.cap" format="1">
  <advance width="0"/>
  <outline>
    <contour>
      <point x="136" y="682" type="move" name="_aboveUC"/>
    </contour>
    <contour>
      <point x="107" y="703" type="line"/>
      <point x="279" y="803" type="line"/>
      <point x="242" y="863" type="line"/>
      <point x="77" y="747" type="line"/>
    </contour>
  </outline>
</glyph>
<glyph name="ae" format="1">
  <advance width="761"/>
  <outline>
    <contour>
      <point x="32" y="106" type="curve" smooth="yes"/>
      <point x="32" y="30"/>
      <point x="89" y="-12"/>
      <point x="157" y="-12" type="curve" smooth="yes"/>
      <point x="229" y="-12"/>
      <point x="294" y="24"/>
      <point x="358" y="84" type="curve"/>
      <point x="381" y="30"/>
      <point x="441" y="-12"/>
      <point x="511" y="-12" type="curve" smooth="yes"/>
      <point x="573" y="-12"/>
      <point x="627" y="12"/>
      <point x="665" y="40" type="curve"/>
      <point x="635" y="91" type="line"/>
      <point x="605" y="68"/>
      <point x="564" y="49"/>
      <point x="526" y="49" type="curve" smooth="yes"/>
      <point x="442" y="49"/>
      <point x="390" y="120"/>
      <point x="407" y="227" type="curve"/>
      <point x="710" y="227" type="line"/>
      <point x="717" y="245"/>
      <point x="728" y="283"/>
      <point x="728" y="322" type="curve" smooth="yes"/>
      <point x="728" y="422"/>
      <point x="686" y="498"/>
      <point x="577" y="498" type="curve" smooth="yes"/>
      <point x="516" y="498"/>
      <point x="455" y="462"/>
      <point x="410" y="403" type="curve"/>
      <point x="399" y="467"/>
      <point x="353" y="498"/>
      <point x="287" y="498" type="curve" smooth="yes"/>
      <point x="228" y="498"/>
      <point x="165" y="476"/>
      <point x="114" y="448" type="curve"/>
      <point x="135" y="392" type="line"/>
      <point x="181" y="418"/>
      <point x="229" y="436"/>
      <point x="271" y="436" type="curve" smooth="yes"/>
      <point x="331" y="436"/>
      <point x="355" y="404"/>
      <point x="355" y="345" type="curve" smooth="yes"/>
      <point x="355" y="331"/>
      <point x="354" y="319"/>
      <point x="350" y="301" type="curve"/>
      <point x="164" y="295"/>
      <point x="32" y="244"/>
    </contour>
    <contour>
      <point x="415" y="279" type="line"/>
      <point x="439" y="375"/>
      <point x="507" y="437"/>
      <point x="568" y="437" type="curve" smooth="yes"/>
      <point x="638" y="437"/>
      <point x="662" y="384"/>
      <point x="662" y="329" type="curve" smooth="yes"/>
      <point x="662" y="310"/>
      <point x="660" y="297"/>
      <point x="657" y="279" type="curve"/>
    </contour>
    <contour>
      <point x="340" y="250" type="curve"/>
      <point x="333" y="207"/>
      <point x="333" y="177"/>
      <point x="338" y="135" type="curve"/>
      <point x="283" y="77"/>
      <point x="226" y="49"/>
      <point x="185" y="49" type="curve" smooth="yes"/>
      <point x="140" y="49"/>
      <point x="107" y="75"/>
      <point x="107" y="122" type="curve" smooth="yes"/>
      <point x="107" y="203"/>
      <point x="195" y="246"/>
    </contour>
  </outline>
</glyph>
<glyph name="ampersand" format="1">
  <advance width="582"/>
  <outline>
    <contour>
      <point x="180" y="-12" type="curve" smooth="yes"/>
      <point x="265" y="-12"/>
      <point x="340" y="27"/>
      <point x="403" y="89" type="curve" smooth="yes"/>
      <point x="478" y="162"/>
      <point x="534" y="254"/>
      <point x="580" y="352" type="curve"/>
      <point x="510" y="352" type="line"/>
      <point x="470" y="264"/>
      <point x="424" y="189"/>
      <point x="358" y="126" type="curve" smooth="yes"/>
      <point x="308" y="79"/>
      <point x="250" y="49"/>
      <point x="194" y="49" type="curve" smooth="yes"/>
      <point x="133" y="49"/>
      <point x="91" y="90"/>
      <point x="91" y="151" type="curve" smooth="yes"/>
      <point x="91" y="325"/>
      <point x="443" y="362"/>
      <point x="443" y="561" type="curve" smooth="yes"/>
      <point x="443" y="622"/>
      <point x="407" y="668"/>
      <point x="335" y="668" type="curve" smooth="yes"/>
      <point x="243" y="668"/>
      <point x="163" y="588"/>
      <point x="163" y="476" type="curve" smooth="yes"/>
      <point x="163" y="345"/>
      <point x="248" y="182"/>
      <point x="350" y="82" type="curve" smooth="yes"/>
      <point x="398" y="35"/>
      <point x="448" y="3"/>
      <point x="495" y="-12" type="curve"/>
      <point x="527" y="50" type="line"/>
      <point x="490" y="63"/>
      <point x="447" y="90"/>
      <point x="404" y="129" type="curve" smooth="yes"/>
      <point x="311" y="217"/>
      <point x="229" y="361"/>
      <point x="229" y="480" type="curve" smooth="yes"/>
      <point x="229" y="558"/>
      <point x="273" y="614"/>
      <point x="330" y="614" type="curve" smooth="yes"/>
      <point x="365" y="614"/>
      <point x="380" y="588"/>
      <point x="380" y="558" type="curve" smooth="yes"/>
      <point x="380" y="389"/>
      <point x="15" y="372"/>
      <point x="15" y="141" type="curve" smooth="yes"/>
      <point x="15" y="48"/>
      <point x="81" y="-12"/>
    </contour>
  </outline>
</glyph>
<glyph name="aogonek.alt" format="1">
  <advance width="492"/>
  <outline>
    <contour>
      <point x="300" y="509" type="move" name="aboveLC"/>
    </contour>
    <contour>
      <point x="311" y="6" type="line"/>
      <point x="259" y="-23"/>
      <point x="201" y="-79"/>
      <point x="201" y="-139" type="curve" smooth="yes"/>
      <point x="201" y="-183"/>
      <point x="233" y="-206"/>
      <point x="276" y="-206" type="curve" smooth="yes"/>
      <point x="299" y="-206"/>
      <point x="330" y="-195"/>
      <point x="352" y="-181" type="curve"/>
      <point x="336" y="-143" type="line"/>
      <point x="324" y="-151"/>
      <point x="312" y="-155"/>
      <point x="298" y="-155" type="curve" smooth="yes"/>
      <point x="278" y="-155"/>
      <point x="262" y="-141"/>
      <point x="262" y="-118" type="curve" smooth="yes"/>
      <point x="262" y="-74"/>
      <point x="304" y="-31"/>
      <point x="372" y="0" type="curve"/>
      <point x="429" y="286" type="line"/>
      <point x="434" y="307"/>
      <point x="437" y="333"/>
      <point x="437" y="353" type="curve" smooth="yes"/>
      <point x="437" y="456"/>
      <point x="381" y="498"/>
      <point x="287" y="498" type="curve" smooth="yes"/>
      <point x="228" y="498"/>
      <point x="164" y="476"/>
      <point x="113" y="448" type="curve"/>
      <point x="138" y="392" type="line"/>
      <point x="185" y="419"/>
      <point x="229" y="436"/>
      <point x="273" y="436" type="curve" smooth="yes"/>
      <point x="332" y="436"/>
      <point x="361" y="412"/>
      <point x="361" y="346" type="curve" smooth="yes"/>
      <point x="361" y="332"/>
      <point x="360" y="320"/>
      <point x="355" y="301" type="curve"/>
      <point x="164" y="296"/>
      <point x="32" y="244"/>
      <point x="32" y="106" type="curve" smooth="yes"/>
      <point x="32" y="30"/>
      <point x="88" y="-12"/>
      <point x="153" y="-12" type="curve" smooth="yes"/>
      <point x="208" y="-12"/>
      <point x="269" y="19"/>
      <point x="311" y="57" type="curve"/>
      <point x="314" y="57" type="line"/>
    </contour>
    <contour>
      <point x="346" y="250" type="curve"/>
      <point x="319" y="115" type="line"/>
      <point x="270" y="72"/>
      <point x="226" y="49"/>
      <point x="185" y="49" type="curve" smooth="yes"/>
      <point x="140" y="49"/>
      <point x="107" y="72"/>
      <point x="107" y="122" type="curve" smooth="yes"/>
      <point x="107" y="203"/>
      <point x="195" y="246"/>
    </contour>
  </outline>
</glyph>
<glyph name="arrowleft" format="1">
  <advance width="593"/>
  <outline>
    <contour>
      <point x="281" y="-16" type="line"/>
      <point x="320" y="26" type="line"/>
      <point x="125" y="219" type="line"/>
      <point x="574" y="219" type="line"/>
      <point x="574" y="282" type="line"/>
      <point x="125" y="282" type="line"/>
      <point x="320" y="475" type="line"/>
      <point x="281" y="517" type="line"/>
      <point x="20" y="253" type="line"/>
      <point x="20" y="248" type="line"/>
    </contour>
  </outline>
</glyph>
<glyph name="arrowup" format="1">
  <advance width="593"/>
  <outline>
    <contour>
      <point x="265" y="-27" type="line"/>
      <point x="328" y="-27" type="line"/>
      <point x="328" y="422" type="line"/>
      <point x="521" y="227" type="line"/>
      <point x="563" y="266" type="line"/>
      <point x="299" y="527" type="line"/>
      <point x="294" y="527" type="line"/>
      <point x="30" y="266" type="line"/>
      <point x="72" y="227" type="line"/>
      <point x="265" y="422" type="line"/>
    </contour>
  </outline>
</glyph>
<glyph name="asciicircum" format="1">
  <advance width="479"/>
  <outline>
    <contour>
      <point x="83" y="283" type="line"/>
      <point x="149" y="283" type="line"/>
      <point x="213" y="461" type="line"/>
      <point x="260" y="594" type="line"/>
      <point x="263" y="594" type="line"/>
      <point x="308" y="461" type="line"/>
      <point x="373" y="283" type="line"/>
      <point x="437" y="283" type="line"/>
      <point x="291" y="670" type="line"/>
      <point x="229" y="670" type="line"/>
    </contour>
  </outline>
</glyph>
<glyph name="asciitilde" format="1">
  <advance width="480"/>
  <outline>
    <contour>
      <point x="332" y="260" type="curve" smooth="yes"/>
      <point x="373" y="260"/>
      <point x="418" y="287"/>
      <point x="451" y="349" type="curve"/>
      <point x="408" y="377" type="line"/>
      <point x="386" y="334"/>
      <point x="363" y="316"/>
      <point x="334" y="316" type="curve" smooth="yes"/>
      <point x="281" y="316"/>
      <point x="237" y="402"/>
      <point x="164" y="402" type="curve" smooth="yes"/>
      <point x="123" y="402"/>
      <point x="78" y="375"/>
      <point x="45" y="313" type="curve"/>
      <point x="88" y="285" type="line"/>
      <point x="110" y="328"/>
      <point x="133" y="346"/>
      <point x="162" y="346" type="curve" smooth="yes"/>
      <point x="215" y="346"/>
      <point x="259" y="260"/>
    </contour>
  </outline>
</glyph>
<glyph name="asterisk" format="1">
  <advance width="403"/>
  <outline>
    <contour>
      <point x="176" y="434" type="line"/>
      <point x="256" y="510" type="line"/>
      <point x="308" y="422" type="line"/>
      <point x="348" y="445" type="line"/>
      <point x="310" y="542" type="line"/>
      <point x="413" y="573" type="line"/>
      <point x="406" y="616" type="line"/>
      <point x="303" y="602" type="line"/>
      <point x="311" y="709" type="line"/>
      <point x="267" y="713" type="line"/>
      <point x="242" y="607" type="line"/>
      <point x="143" y="640" type="line"/>
      <point x="125" y="600" type="line"/>
      <point x="213" y="551" type="line"/>
      <point x="144" y="463" type="line"/>
    </contour>
  </outline>
</glyph>
<glyph name="at.case" format="1">
  <advance width="802"/>
  <outline>
    <contour>
      <point x="368" y="-21" type="curve" smooth="yes"/>
      <point x="419" y="-21"/>
      <point x="476" y="-10"/>
      <point x="527" y="20" type="curve"/>
      <point x="513" y="63" type="line"/>
      <point x="474" y="40"/>
      <point x="425" y="29"/>
      <point x="377" y="29" type="curve" smooth="yes"/>
      <point x="245" y="29"/>
      <point x="154" y="114"/>
      <point x="154" y="262" type="curve" smooth="yes"/>
      <point x="154" y="476"/>
      <point x="324" y="637"/>
      <point x="493" y="637" type="curve" smooth="yes"/>
      <point x="645" y="637"/>
      <point x="715" y="545"/>
      <point x="715" y="419" type="curve" smooth="yes"/>
      <point x="715" y="280"/>
      <point x="654" y="201"/>
      <point x="599" y="201" type="curve" smooth="yes"/>
      <point x="549" y="201"/>
      <point x="536" y="242"/>
      <point x="551" y="304" type="curve" smooth="yes"/>
      <point x="596" y="496" type="line"/>
      <point x="546" y="496" type="line"/>
      <point x="532" y="453" type="line"/>
      <point x="530" y="453" type="line"/>
      <point x="514" y="486"/>
      <point x="490" y="502"/>
      <point x="460" y="502" type="curve" smooth="yes"/>
      <point x="358" y="502"/>
      <point x="279" y="394"/>
      <point x="279" y="289" type="curve" smooth="yes"/>
      <point x="279" y="204"/>
      <point x="327" y="157"/>
      <point x="383" y="157" type="curve" smooth="yes"/>
      <point x="424" y="157"/>
      <point x="465" y="185"/>
      <point x="494" y="223" type="curve"/>
      <point x="497" y="223" type="line"/>
      <point x="506" y="176"/>
      <point x="538" y="149"/>
      <point x="584" y="149" type="curve" smooth="yes"/>
      <point x="681" y="149"/>
      <point x="768" y="246"/>
      <point x="768" y="425" type="curve" smooth="yes"/>
      <point x="768" y="575"/>
      <point x="675" y="686"/>
      <point x="498" y="686" type="curve" smooth="yes"/>
      <point x="293" y="686"/>
      <point x="98" y="506"/>
      <point x="98" y="251" type="curve" smooth="yes"/>
      <point x="98" y="83"/>
      <point x="211" y="-21"/>
    </contour>
    <contour>
      <point x="398" y="210" type="curve" smooth="yes"/>
      <point x="365" y="210"/>
      <point x="339" y="237"/>
      <point x="339" y="296" type="curve" smooth="yes"/>
      <point x="339" y="363"/>
      <point x="387" y="449"/>
      <point x="459" y="449" type="curve" smooth="yes"/>
      <point x="480" y="449"/>
      <point x="498" y="440"/>
      <point x="515" y="405" type="curve"/>
      <point x="485" y="270" type="line"/>
      <point x="455" y="228"/>
      <point x="426" y="210"/>
    </contour>
  </outline>
</glyph>
<glyph name="b" format="1">
  <advance width="536"/>
  <outline>
    <contour>
      <point x="94" y="0" type="line"/>
      <point x="114" y="61" type="line"/>
      <point x="117" y="61" type="line"/>
      <point x="140" y="17"/>
      <point x="182" y="-12"/>
      <point x="234" y="-12" type="curve" smooth="yes"/>
      <point x="368" y="-12"/>
      <point x="496" y="135"/>
      <point x="496" y="322" type="curve" smooth="yes"/>
      <point x="496" y="436"/>
      <point x="441" y="498"/>
      <point x="356" y="498" type="curve" smooth="yes"/>
      <point x="296" y="498"/>
      <point x="239" y="465"/>
      <point x="191" y="426" type="curve"/>
      <point x="189" y="426" type="line"/>
      <point x="211" y="522" type="line"/>
      <point x="250" y="712" type="line"/>
      <point x="173" y="712" type="line"/>
      <point x="31" y="0" type="line"/>
    </contour>
    <contour>
      <point x="328" y="434" type="curve" smooth="yes"/>
      <point x="383" y="434"/>
      <point x="417" y="393"/>
      <point x="417" y="311" type="curve" smooth="yes"/>
      <point x="417" y="176"/>
      <point x="328" y="52"/>
      <point x="231" y="52" type="curve" smooth="yes"/>
      <point x="193" y="52"/>
      <point x="159" y="73"/>
      <point x="132" y="124" type="curve"/>
      <point x="178" y="355" type="line"/>
      <point x="224" y="404"/>
      <point x="283" y="434"/>
    </contour>
    <contour>
      <point x="219" y="730" type="move" name="aboveLC"/>
    </contour>
    <contour>
      <point x="233" y="-22" type="move" name="belowLC"/>
    </contour>
  </outline>
</glyph>
<glyph name="b.sups" format="1">
  <advance width="360"/>
  <outline>
    <contour>
      <point x="101" y="266" type="line"/>
      <point x="115" y="305" type="line"/>
      <point x="119" y="305" type="line"/>
      <point x="135" y="273"/>
      <point x="163" y="258"/>
      <point x="193" y="258" type="curve" smooth="yes"/>
      <point x="284" y="258"/>
      <point x="370" y="356"/>
      <point x="370" y="478" type="curve" smooth="yes"/>
      <point x="370" y="555"/>
      <point x="333" y="596"/>
      <point x="276" y="596" type="curve" smooth="yes"/>
      <point x="235" y="596"/>
      <point x="200" y="577"/>
      <point x="169" y="551" type="curve"/>
      <point x="167" y="551" type="line"/>
      <point x="183" y="616" type="line"/>
      <point x="207" y="735" type="line"/>
      <point x="149" y="735" type="line"/>
      <point x="56" y="266" type="line"/>
    </contour>
    <contour>
      <point x="257" y="548" type="curve" smooth="yes"/>
      <point x="288" y="548"/>
      <point x="311" y="524"/>
      <point x="311" y="470" type="curve" smooth="yes"/>
      <point x="311" y="384"/>
      <point x="251" y="307"/>
      <point x="191" y="307" type="curve" smooth="yes"/>
      <point x="169" y="307"/>
      <point x="148" y="318"/>
      <point x="130" y="352" type="curve"/>
      <point x="158" y="496" type="line"/>
      <point x="189" y="530"/>
      <point x="225" y="548"/>
    </contour>
  </outline>
</glyph>
<glyph name="backslash" format="1">
  <advance width="340"/>
  <outline>
    <contour>
      <point x="203" y="-160" type="line"/>
      <point x="257" y="-160" type="line"/>
      <point x="140" y="710" type="line"/>
      <point x="88" y="710" type="line"/>
    </contour>
  </outline>
</glyph>
<glyph name="bar" format="1">
  <advance width="231"/>
  <outline>
    <contour>
      <point x="95" y="-250" type="line"/>
      <point x="147" y="-250" type="line"/>
      <point x="147" y="750" type="line"/>
      <point x="95" y="750" type="line"/>
    </contour>
  </outline>
</glyph>
<glyph name="braceright" format="1">
  <advance width="293"/>
  <outline>
    <contour>
      <point x="-52" y="-152" type="line"/>
      <point x="-6" y="-152" type="line" smooth="yes"/>
      <point x="72" y="-152"/>
      <point x="107" y="-122"/>
      <point x="128" y="-19" type="curve" smooth="yes"/>
      <point x="142" y="50"/>
      <point x="147" y="110"/>
      <point x="159" y="174" type="curve" smooth="yes"/>
      <point x="166" y="211"/>
      <point x="188" y="253"/>
      <point x="257" y="253" type="curve"/>
      <point x="268" y="303" type="line"/>
      <point x="210" y="303"/>
      <point x="198" y="331"/>
      <point x="198" y="357" type="curve" smooth="yes"/>
      <point x="198" y="416"/>
      <point x="253" y="554"/>
      <point x="253" y="628" type="curve" smooth="yes"/>
      <point x="253" y="682"/>
      <point x="227" y="708"/>
      <point x="164" y="708" type="curve" smooth="yes"/>
      <point x="120" y="708" type="line"/>
      <point x="110" y="663" type="line"/>
      <point x="135" y="663" type="line" smooth="yes"/>
      <point x="177" y="663"/>
      <point x="189" y="647"/>
      <point x="189" y="613" type="curve" smooth="yes"/>
      <point x="189" y="550"/>
      <point x="137" y="413"/>
      <point x="137" y="344" type="curve" smooth="yes"/>
      <point x="137" y="315"/>
      <point x="148" y="294"/>
      <point x="181" y="283" type="curve"/>
      <point x="181" y="279" type="line"/>
      <point x="134" y="267"/>
      <point x="111" y="232"/>
      <point x="97" y="166" type="curve" smooth="yes"/>
      <point x="86" y="104"/>
      <point x="78" y="43"/>
      <point x="67" y="-14" type="curve" smooth="yes"/>
      <point x="55" y="-79"/>
      <point x="36" y="-107"/>
      <point x="-17" y="-107" type="curve" smooth="yes"/>
      <point x="-43" y="-107" type="line"/>
    </contour>
  </outline>
</glyph>
<glyph name="bracketleft" format="1">
  <advance width="292"/>
  <outline>
    <contour>
      <point x="8" y="-152" type="line"/>
      <point x="177" y="-152" type="line"/>
      <point x="188" y="-107" type="line"/>
      <point x="76" y="-107" type="line"/>
      <point x="229" y="663" type="line"/>
      <point x="342" y="663" type="line"/>
      <point x="349" y="708" type="line"/>
      <point x="180" y="708" type="line"/>
    </contour>
  </outline>
</glyph>
<glyph name="bracketright" format="1">
  <advance width="293"/>
  <outline>
    <contour>
      <point x="-49" y="-152" type="line"/>
      <point x="122" y="-152" type="line"/>
      <point x="294" y="708" type="line"/>
      <point x="123" y="708" type="line"/>
      <point x="115" y="663" type="line"/>
      <point x="227" y="663" type="line"/>
      <point x="72" y="-107" type="line"/>
      <point x="-39" y="-107" type="line"/>
    </contour>
  </outline>
</glyph>
<glyph name="brackhalftopleft" format="1">
  <advance width="292"/>
  <outline>
    <contour>
      <point x="94" y="278" type="line"/>
      <point x="154" y="278" type="line"/>
      <point x="231" y="663" type="line"/>
      <point x="342" y="663" type="line"/>
      <point x="351" y="708" type="line"/>
      <point x="180" y="708" type="line"/>
    </contour>
  </outline>
</glyph>
<glyph name="breveacute.cap" format="1">
  <advance width="0"/>
  <outline>
    <contour>
      <point x="89" y="682" type="move" name="_aboveUC"/>
    </contour>
    <contour>
      <point x="50" y="823" type="line"/>
      <point x="94" y="801" type="line"/>
      <point x="214" y="905" type="line"/>
      <point x="157" y="932" type="line"/>
    </contour>
    <contour>
      <point x="78" y="704" type="curve" smooth="yes"/>
      <point x="160" y="704"/>
      <point x="211" y="756"/>
      <point x="228" y="818" type="curve"/>
      <point x="184" y="823" type="line"/>
      <point x="169" y="784"/>
      <point x="135" y="752"/>
      <point x="86" y="752" type="curve" smooth="yes"/>
      <point x="37" y="752"/>
      <point x="16" y="783"/>
      <point x="16" y="823" type="curve"/>
      <point x="-30" y="818" type="line"/>
      <point x="-34" y="756"/>
      <point x="-3" y="704"/>
    </contour>
  </outline>
</glyph>
<glyph name="breveacute" format="1">
  <outline>
    <contour>
      <point x="114" y="571" type="curve" smooth="yes"/>
      <point x="222" y="571"/>
      <point x="280" y="648"/>
      <point x="298" y="722" type="curve"/>
      <point x="252" y="730" type="line"/>
      <point x="234" y="677"/>
      <point x="191" y="622"/>
      <point x="124" y="622" type="curve" smooth="yes"/>
      <point x="57" y="622"/>
      <point x="32" y="677"/>
      <point x="35" y="730" type="curve"/>
      <point x="-14" y="722" type="line"/>
      <point x="-21" y="648"/>
      <point x="9" y="571"/>
    </contour>
    <contour>
      <point x="137" y="705" type="line"/>
      <point x="258" y="801" type="line"/>
      <point x="214" y="845" type="line"/>
      <point x="104" y="736" type="line"/>
    </contour>
    <contour>
      <point x="108" y="509" type="move" name="_aboveLC"/>
    </contour>
  </outline>
</glyph>
<glyph name="brevebelowcmb" format="1">
  <advance width="0"/>
  <outline>
    <contour>
      <point x="-6" y="-30" type="move" name="_belowLC"/>
    </contour>
    <component base="brevecmb" xOffset="-157" yOffset="-790"/>
  </outline>
</glyph>
<glyph name="brevecmb.cap" format="1">
  <outline>
    <contour>
      <point x="123" y="705" type="curve" smooth="yes"/>
      <point x="217" y="705"/>
      <point x="273" y="764"/>
      <point x="293" y="834" type="curve"/>
      <point x="244" y="842" type="line"/>
      <point x="226" y="795"/>
      <point x="190" y="758"/>
      <point x="133" y="758" type="curve" smooth="yes"/>
      <point x="76" y="758"/>
      <point x="51" y="795"/>
      <point x="53" y="842" type="curve"/>
      <point x="1" y="834" type="line"/>
      <point x="-3" y="764"/>
      <point x="31" y="705"/>
    </contour>
    <contour>
      <point x="136" y="682" type="move" name="_aboveUC"/>
    </contour>
  </outline>
</glyph>
<glyph name="brevecmb" format="1">
  <outline>
    <contour>
      <point x="114" y="571" type="curve" smooth="yes"/>
      <point x="222" y="571"/>
      <point x="280" y="648"/>
      <point x="298" y="722" type="curve"/>
      <point x="248" y="730" type="line"/>
      <point x="230" y="679"/>
      <point x="190" y="626"/>
      <point x="125" y="626" type="curve" smooth="yes"/>
      <point x="60" y="626"/>
      <point x="36" y="679"/>
      <point x="39" y="730" type="curve"/>
      <point x="-14" y="722" type="line"/>
      <point x="-21" y="648"/>
      <point x="9" y="571"/>
    </contour>
    <contour>
      <point x="108" y="509" type="move" name="_aboveLC"/>
    </contour>
  </outline>
</glyph>
<glyph name="brevegrave.cap" format="1">
  <outline>
    <contour>
      <point x="123" y="705" type="curve" smooth="yes"/>
      <point x="217" y="705"/>
      <point x="273" y="764"/>
      <point x="293" y="834" type="curve"/>
      <point x="248" y="842" type="line"/>
      <point x="229" y="793"/>
      <point x="191" y="754"/>
      <point x="132" y="754" type="curve" smooth="yes"/>
      <point x="74" y="754"/>
      <point x="48" y="793"/>
      <point x="49" y="842" type="curve"/>
      <point x="1" y="834" type="line"/>
      <point x="-3" y="764"/>
      <point x="31" y="705"/>
    </contour>
    <contour>
      <point x="148" y="814" type="line"/>
      <point x="192" y="839" type="line"/>
      <point x="118" y="962" type="line"/>
      <point x="61" y="931" type="line"/>
    </contour>
    <contour>
      <point x="136" y="682" type="move" name="_aboveUC"/>
    </contour>
  </outline>
</glyph>
<glyph name="brevehoi.cap" format="1">
  <outline>
    <contour>
      <point x="122" y="705" type="curve" smooth="yes"/>
      <point x="216" y="705"/>
      <point x="273" y="764"/>
      <point x="293" y="834" type="curve"/>
      <point x="248" y="842" type="line"/>
      <point x="229" y="793"/>
      <point x="190" y="754"/>
      <point x="132" y="754" type="curve" smooth="yes"/>
      <point x="73" y="754"/>
      <point x="48" y="793"/>
      <point x="49" y="842" type="curve"/>
      <point x="1" y="834" type="line"/>
      <point x="-4" y="764"/>
      <point x="31" y="705"/>
    </contour>
    <contour>
      <point x="118" y="800" type="line"/>
      <point x="167" y="808"/>
      <point x="216" y="828"/>
      <point x="226" y="879" type="curve" smooth="yes"/>
      <point x="235" y="926"/>
      <point x="196" y="949"/>
      <point x="119" y="952" type="curve"/>
      <point x="103" y="910" type="line"/>
      <point x="151" y="907"/>
      <point x="170" y="897"/>
      <point x="166" y="871" type="curve" smooth="yes"/>
      <point x="161" y="850"/>
      <point x="140" y="841"/>
      <point x="114" y="835" type="curve"/>
    </contour>
    <contour>
      <point x="136" y="682" type="move" name="_aboveUC"/>
    </contour>
  </outline>
</glyph>
<glyph name="brevehoi" format="1">
  <outline>
    <contour>
      <point x="113" y="571" type="curve" smooth="yes"/>
      <point x="221" y="571"/>
      <point x="280" y="648"/>
      <point x="299" y="722" type="curve"/>
      <point x="252" y="730" type="line"/>
      <point x="233" y="677"/>
      <point x="190" y="622"/>
      <point x="124" y="622" type="curve" smooth="yes"/>
      <point x="56" y="622"/>
      <point x="32" y="677"/>
      <point x="35" y="730" type="curve"/>
      <point x="-14" y="722" type="line"/>
      <point x="-21" y="648"/>
      <point x="8" y="571"/>
    </contour>
    <contour>
      <point x="108" y="682" type="line"/>
      <point x="160" y="690"/>
      <point x="214" y="712"/>
      <point x="224" y="766" type="curve" smooth="yes"/>
      <point x="234" y="819"/>
      <point x="192" y="846"/>
      <point x="111" y="848" type="curve"/>
      <point x="94" y="798" type="line"/>
      <point x="148" y="796"/>
      <point x="168" y="783"/>
      <point x="163" y="757" type="curve" smooth="yes"/>
      <point x="159" y="736"/>
      <point x="136" y="724"/>
      <point x="106" y="718" type="curve"/>
    </contour>
    <contour>
      <point x="108" y="509" type="move" name="_aboveLC"/>
    </contour>
  </outline>
</glyph>
<glyph name="brevehoi.cap" format="1">
  <advance width="0"/>
  <outline>
    <contour>
      <point x="136" y="682" type="move" name="_aboveUC"/>
    </contour>
    <contour>
      <point x="122" y="705" type="curve" smooth="yes"/>
      <point x="216" y="705"/>
      <point x="273" y="764"/>
      <point x="293" y="834" type="curve"/>
      <point x="248" y="842" type="line"/>
      <point x="229" y="793"/>
      <point x="190" y="754"/>
      <point x="132" y="754" type="curve" smooth="yes"/>
      <point x="73" y="754"/>
      <point x="48" y="793"/>
      <point x="49" y="842" type="curve"/>
      <point x="1" y="834" type="line"/>
      <point x="-4" y="764"/>
      <point x="31" y="705"/>
    </contour>
    <contour>
      <point x="118" y="800" type="line"/>
      <point x="167" y="808"/>
      <point x="216" y="828"/>
      <point x="226" y="879" type="curve" smooth="yes"/>
      <point x="235" y="926"/>
      <point x="196" y="949"/>
      <point x="119" y="952" type="curve"/>
      <point x="103" y="910" type="line"/>
      <point x="151" y="907"/>
      <point x="170" y="897"/>
      <point x="166" y="871" type="curve" smooth="yes"/>
      <point x="161" y="850"/>
      <point x="140" y="841"/>
      <point x="114" y="835" type="curve"/>
    </contour>
  </outline>
</glyph>
<glyph name="brevetilde.cap" format="1">
  <outline>
    <contour>
      <point x="125" y="708" type="curve" smooth="yes"/>
      <point x="218" y="708"/>
      <point x="271" y="758"/>
      <point x="289" y="814" type="curve"/>
      <point x="243" y="822" type="line"/>
      <point x="229" y="786"/>
      <point x="195" y="753"/>
      <point x="134" y="753" type="curve" smooth="yes"/>
      <point x="72" y="753"/>
      <point x="50" y="786"/>
      <point x="49" y="822" type="curve"/>
      <point x="2" y="814" type="line"/>
      <point x="-2" y="758"/>
      <point x="33" y="708"/>
    </contour>
    <contour>
      <point x="216" y="843" type="curve" smooth="yes"/>
      <point x="271" y="843"/>
      <point x="300" y="883"/>
      <point x="312" y="934" type="curve"/>
      <point x="268" y="939" type="line"/>
      <point x="259" y="910"/>
      <point x="246" y="893"/>
      <point x="222" y="893" type="curve" smooth="yes"/>
      <point x="181" y="893"/>
      <point x="166" y="943"/>
      <point x="103" y="943" type="curve" smooth="yes"/>
      <point x="48" y="943"/>
      <point x="19" y="903"/>
      <point x="7" y="851" type="curve"/>
      <point x="51" y="846" type="line"/>
      <point x="60" y="876"/>
      <point x="73" y="893"/>
      <point x="97" y="893" type="curve" smooth="yes"/>
      <point x="138" y="893"/>
      <point x="153" y="843"/>
    </contour>
    <contour>
      <point x="136" y="682" type="move" name="_aboveUC"/>
    </contour>
  </outline>
</glyph>
<glyph name="brevetilde" format="1">
  <advance width="0"/>
  <outline>
    <contour>
      <point x="108" y="509" type="move" name="_aboveLC"/>
    </contour>
    <contour>
      <point x="115" y="571" type="curve" smooth="yes"/>
      <point x="213" y="571"/>
      <point x="263" y="627"/>
      <point x="279" y="678" type="curve"/>
      <point x="233" y="686" type="line"/>
      <point x="222" y="653"/>
      <point x="185" y="618"/>
      <point x="123" y="618" type="curve" smooth="yes"/>
      <point x="61" y="618"/>
      <point x="38" y="653"/>
      <point x="38" y="686" type="curve"/>
      <point x="-9" y="678" type="line"/>
      <point x="-13" y="627"/>
      <point x="16" y="571"/>
    </contour>
    <contour>
      <point x="205" y="710" type="curve" smooth="yes"/>
      <point x="254" y="710"/>
      <point x="283" y="747"/>
      <point x="297" y="798" type="curve"/>
      <point x="251" y="802" type="line"/>
      <point x="241" y="774"/>
      <point x="230" y="760"/>
      <point x="210" y="760" type="curve" smooth="yes"/>
      <point x="172" y="760"/>
      <point x="151" y="802"/>
      <point x="92" y="802" type="curve" smooth="yes"/>
      <point x="43" y="802"/>
      <point x="14" y="765"/>
      <point x="1" y="714" type="curve"/>
      <point x="46" y="709" type="line"/>
      <point x="56" y="738"/>
      <point x="67" y="752"/>
      <point x="87" y="752" type="curve" smooth="yes"/>
      <point x="125" y="752"/>
      <point x="147" y="710"/>
    </contour>
  </outline>
</glyph>
<glyph name="brevetilde.cap" format="1">
  <advance width="0"/>
  <outline>
    <contour>
      <point x="136" y="682" type="move" name="_aboveUC"/>
    </contour>
    <contour>
      <point x="125" y="708" type="curve" smooth="yes"/>
      <point x="218" y="708"/>
      <point x="271" y="758"/>
      <point x="289" y="814" type="curve"/>
      <point x="243" y="822" type="line"/>
      <point x="229" y="786"/>
      <point x="195" y="753"/>
      <point x="134" y="753" type="curve" smooth="yes"/>
      <point x="72" y="753"/>
      <point x="50" y="786"/>
      <point x="49" y="822" type="curve"/>
      <point x="2" y="814" type="line"/>
      <point x="-2" y="758"/>
      <point x="33" y="708"/>
    </contour>
    <contour>
      <point x="216" y="843" type="curve" smooth="yes"/>
      <point x="271" y="843"/>
      <point x="300" y="883"/>
      <point x="312" y="934" type="curve"/>
      <point x="268" y="939" type="line"/>
      <point x="259" y="910"/>
      <point x="246" y="893"/>
      <point x="222" y="893" type="curve" smooth="yes"/>
      <point x="181" y="893"/>
      <point x="166" y="943"/>
      <point x="103" y="943" type="curve" smooth="yes"/>
      <point x="48" y="943"/>
      <point x="19" y="903"/>
      <point x="7" y="851" type="curve"/>
      <point x="51" y="846" type="line"/>
      <point x="60" y="876"/>
      <point x="73" y="893"/>
      <point x="97" y="893" type="curve" smooth="yes"/>
      <point x="138" y="893"/>
      <point x="153" y="843"/>
    </contour>
  </outline>
</glyph>
<glyph name="brokenbar" format="1">
  <advance width="231"/>
  <outline>
    <contour>
      <point x="95" y="289" type="line"/>
      <point x="147" y="289" type="line"/>
      <point x="147" y="750" type="line"/>
      <point x="95" y="750" type="line"/>
    </contour>
    <contour>
      <point x="95" y="-250" type="line"/>
      <point x="147" y="-250" type="line"/>
      <point x="147" y="213" type="line"/>
      <point x="95" y="213" type="line"/>
    </contour>
  </outline>
</glyph>
<glyph name="c" format="1">
  <advance width="435"/>
  <outline>
    <contour>
      <point x="216" y="-12" type="curve" smooth="yes"/>
      <point x="287" y="-12"/>
      <point x="337" y="18"/>
      <point x="372" y="45" type="curve"/>
      <point x="338" y="95" type="line"/>
      <point x="308" y="72"/>
      <point x="273" y="52"/>
      <point x="230" y="52" type="curve" smooth="yes"/>
      <point x="153" y="52"/>
      <point x="115" y="100"/>
      <point x="115" y="188" type="curve" smooth="yes"/>
      <point x="115" y="321"/>
      <point x="206" y="435"/>
      <point x="303" y="435" type="curve" smooth="yes"/>
      <point x="341" y="435"/>
      <point x="364" y="421"/>
      <point x="389" y="391" type="curve"/>
      <point x="434" y="439" type="line"/>
      <point x="405" y="472"/>
      <point x="366" y="498"/>
      <point x="308" y="498" type="curve" smooth="yes"/>
      <point x="167" y="498"/>
      <point x="37" y="364"/>
      <point x="37" y="183" type="curve" smooth="yes"/>
      <point x="37" y="59"/>
      <point x="110" y="-12"/>
    </contour>
    <contour>
      <point x="310" y="509" type="move" name="aboveLC"/>
    </contour>
    <contour>
      <point x="200" y="0" type="move" name="baseLC"/>
    </contour>
    <contour>
      <point x="219" y="-22" type="move" name="belowLC"/>
    </contour>
  </outline>
</glyph>
<glyph name="c.sups" format="1">
  <advance width="292"/>
  <outline>
    <contour>
      <point x="183" y="258" type="curve" smooth="yes"/>
      <point x="225" y="258"/>
      <point x="260" y="275"/>
      <point x="281" y="291" type="curve"/>
      <point x="261" y="329" type="line"/>
      <point x="242" y="318"/>
      <point x="220" y="306"/>
      <point x="194" y="306" type="curve" smooth="yes"/>
      <point x="152" y="306"/>
      <point x="117" y="335"/>
      <point x="117" y="394" type="curve" smooth="yes"/>
      <point x="117" y="464"/>
      <point x="168" y="549"/>
      <point x="237" y="549" type="curve" smooth="yes"/>
      <point x="262" y="549"/>
      <point x="278" y="540"/>
      <point x="294" y="521" type="curve"/>
      <point x="329" y="557" type="line"/>
      <point x="308" y="580"/>
      <point x="279" y="596"/>
      <point x="241" y="596" type="curve" smooth="yes"/>
      <point x="134" y="596"/>
      <point x="59" y="490"/>
      <point x="59" y="387" type="curve" smooth="yes"/>
      <point x="59" y="307"/>
      <point x="112" y="258"/>
    </contour>
  </outline>
</glyph>
<glyph name="caron.alt" format="1">
  <outline>
    <contour>
      <point x="24" y="548" type="line"/>
      <point x="63" y="548" type="line"/>
      <point x="107" y="703" type="line"/>
      <point x="118" y="760" type="line"/>
      <point x="64" y="760" type="line"/>
    </contour>
  </outline>
</glyph>
<glyph name="caron.alt" format="1">
  <advance width="0"/>
  <outline>
    <contour>
      <point x="24" y="548" type="line"/>
      <point x="63" y="548" type="line"/>
      <point x="107" y="703" type="line"/>
      <point x="118" y="760" type="line"/>
      <point x="64" y="760" type="line"/>
    </contour>
  </outline>
</glyph>
<glyph name="caroncmb.cap" format="1">
  <outline>
    <contour>
      <point x="78" y="706" type="line"/>
      <point x="165" y="706" type="line"/>
      <point x="289" y="817" type="line"/>
      <point x="256" y="845" type="line"/>
      <point x="127" y="751" type="line"/>
      <point x="123" y="751" type="line"/>
      <point x="33" y="844" type="line"/>
      <point x="-6" y="819" type="line"/>
    </contour>
    <contour>
      <point x="136" y="682" type="move" name="_aboveUC"/>
    </contour>
  </outline>
</glyph>
<glyph name="caroncmb" format="1">
  <advance width="0"/>
  <outline>
    <contour>
      <point x="108" y="509" type="move" name="_aboveLC"/>
    </contour>
    <contour>
      <point x="67" y="575" type="line"/>
      <point x="150" y="575" type="line"/>
      <point x="288" y="713" type="line"/>
      <point x="256" y="747" type="line"/>
      <point x="115" y="631" type="line"/>
      <point x="111" y="631" type="line"/>
      <point x="16" y="747" type="line"/>
      <point x="-22" y="716" type="line"/>
    </contour>
  </outline>
</glyph>
<glyph name="caroncmb.cap" format="1">
  <advance width="0"/>
  <outline>
    <contour>
      <point x="136" y="682" type="move" name="_aboveUC"/>
    </contour>
    <contour>
      <point x="78" y="706" type="line"/>
      <point x="165" y="706" type="line"/>
      <point x="289" y="817" type="line"/>
      <point x="256" y="845" type="line"/>
      <point x="127" y="751" type="line"/>
      <point x="123" y="751" type="line"/>
      <point x="33" y="844" type="line"/>
      <point x="-6" y="819" type="line"/>
    </contour>
  </outline>
</glyph>
<glyph name="cedi" format="1">
  <advance width="480"/>
  <outline>
    <contour>
      <point x="251" y="-12" type="curve" smooth="yes"/>
      <point x="317" y="-12"/>
      <point x="372" y="16"/>
      <point x="422" y="62" type="curve"/>
      <point x="383" y="109" type="line"/>
      <point x="350" y="77"/>
      <point x="311" y="52"/>
      <point x="264" y="52" type="curve" smooth="yes"/>
      <point x="183" y="52"/>
      <point x="138" y="123"/>
      <point x="138" y="237" type="curve" smooth="yes"/>
      <point x="138" y="438"/>
      <point x="234" y="590"/>
      <point x="352" y="590" type="curve" smooth="yes"/>
      <point x="403" y="590"/>
      <point x="429" y="561"/>
      <point x="452" y="516" type="curve"/>
      <point x="507" y="552" type="line"/>
      <point x="478" y="607"/>
      <point x="435" y="653"/>
      <point x="359" y="653" type="curve" smooth="yes"/>
      <point x="201" y="653"/>
      <point x="62" y="481"/>
      <point x="62" y="229" type="curve" smooth="yes"/>
      <point x="62" y="81"/>
      <point x="132" y="-12"/>
    </contour>
    <contour>
      <point x="194" y="-110" type="line"/>
      <point x="244" y="-110" type="line"/>
      <point x="415" y="747" type="line"/>
      <point x="366" y="747" type="line"/>
    </contour>
  </outline>
</glyph>
<glyph name="cedillacmb" format="1">
  <advance width="0"/>
  <outline>
    <contour>
      <point x="0" y="0" type="move" name="_baseLC"/>
    </contour>
    <contour>
      <point x="-120" y="-221" type="line"/>
      <point x="-31" y="-213"/>
      <point x="36" y="-184"/>
      <point x="41" y="-122" type="curve" smooth="yes"/>
      <point x="43" y="-88"/>
      <point x="21" y="-69"/>
      <point x="-13" y="-60" type="curve"/>
      <point x="30" y="3" type="line"/>
      <point x="-24" y="3" type="line"/>
      <point x="-83" y="-82" type="line"/>
      <point x="-36" y="-91"/>
      <point x="-20" y="-103"/>
      <point x="-21" y="-126" type="curve" smooth="yes"/>
      <point x="-23" y="-159"/>
      <point x="-59" y="-175"/>
      <point x="-122" y="-184" type="curve"/>
    </contour>
  </outline>
</glyph>
<glyph name="cent" format="1">
  <advance width="480"/>
  <outline>
    <contour>
      <point x="256" y="90" type="curve" smooth="yes"/>
      <point x="326" y="90"/>
      <point x="376" y="117"/>
      <point x="422" y="146" type="curve"/>
      <point x="395" y="198" type="line"/>
      <point x="361" y="174"/>
      <point x="321" y="154"/>
      <point x="272" y="154" type="curve" smooth="yes"/>
      <point x="194" y="154"/>
      <point x="154" y="210"/>
      <point x="154" y="300" type="curve" smooth="yes"/>
      <point x="154" y="423"/>
      <point x="245" y="506"/>
      <point x="333" y="506" type="curve" smooth="yes"/>
      <point x="378" y="506"/>
      <point x="403" y="488"/>
      <point x="431" y="456" type="curve"/>
      <point x="478" y="501" type="line"/>
      <point x="446" y="538"/>
      <point x="405" y="569"/>
      <point x="340" y="569" type="curve" smooth="yes"/>
      <point x="217" y="569"/>
      <point x="78" y="463"/>
      <point x="78" y="287" type="curve" smooth="yes"/>
      <point x="78" y="161"/>
      <point x="148" y="90"/>
    </contour>
    <contour>
      <point x="203" y="-14" type="line"/>
      <point x="253" y="-14" type="line"/>
      <point x="388" y="670" type="line"/>
      <point x="339" y="670" type="line"/>
    </contour>
  </outline>
</glyph>
<glyph name="check" format="1">
  <advance width="542"/>
  <outline>
    <contour>
      <point x="72" y="-20" type="curve"/>
      <point x="152" y="-11" type="line"/>
      <point x="272" y="257"/>
      <point x="461" y="487"/>
      <point x="647" y="637" type="curve"/>
      <point x="605" y="682" type="line"/>
      <point x="419" y="525"/>
      <point x="229" y="280"/>
      <point x="121" y="43" type="curve"/>
      <point x="117" y="43" type="line"/>
      <point x="105" y="133"/>
      <point x="80" y="224"/>
      <point x="44" y="308" type="curve"/>
      <point x="-14" y="278" type="line"/>
      <point x="28" y="188"/>
      <point x="56" y="89"/>
    </contour>
  </outline>
</glyph>
<glyph name="checkbox" format="1">
  <advance width="765"/>
  <outline>
    <contour>
      <point x="70" y="-10" type="line"/>
      <point x="645" y="-10" type="line"/>
      <point x="695" y="50" type="line"/>
      <point x="695" y="671" type="line"/>
      <point x="130" y="671" type="line"/>
      <point x="70" y="619" type="line"/>
    </contour>
    <contour>
      <point x="111" y="31" type="line"/>
      <point x="111" y="597" type="line"/>
      <point x="624" y="597" type="line"/>
      <point x="624" y="31" type="line"/>
    </contour>
  </outline>
</glyph>
<glyph name="circumflexacute.cap" format="1">
  <advance width="0"/>
  <outline>
    <contour>
      <point x="89" y="682" type="move" name="_aboveUC"/>
    </contour>
    <contour>
      <point x="-1" y="699" type="line"/>
      <point x="90" y="770" type="line"/>
      <point x="94" y="770" type="line"/>
      <point x="159" y="699" type="line"/>
      <point x="203" y="715" type="line"/>
      <point x="133" y="814" type="line"/>
      <point x="63" y="814" type="line"/>
      <point x="-43" y="715" type="line"/>
    </contour>
    <contour>
      <point x="208" y="765" type="line"/>
      <point x="309" y="854" type="line"/>
      <point x="274" y="880" type="line"/>
      <point x="176" y="788" type="line"/>
    </contour>
  </outline>
</glyph>
<glyph name="circumflexacute" format="1">
  <advance width="0"/>
  <outline>
    <contour>
      <point x="81" y="509" type="move" name="_aboveLC"/>
    </contour>
    <contour>
      <point x="7" y="568" type="line"/>
      <point x="99" y="640" type="line"/>
      <point x="103" y="640" type="line"/>
      <point x="167" y="568" type="line"/>
      <point x="206" y="590" type="line"/>
      <point x="141" y="695" type="line"/>
      <point x="80" y="695" type="line"/>
      <point x="-26" y="590" type="line"/>
    </contour>
    <contour>
      <point x="194" y="657" type="line"/>
      <point x="231" y="637" type="line"/>
      <point x="341" y="747" type="line"/>
      <point x="289" y="771" type="line"/>
    </contour>
  </outline>
</glyph>
<glyph name="circumflexbreve.cap" format="1">
  <outline>
    <contour>
      <point x="32" y="699" type="line"/>
      <point x="137" y="768" type="line"/>
      <point x="141" y="768" type="line"/>
      <point x="222" y="699" type="line"/>
      <point x="259" y="725" type="line"/>
      <point x="182" y="812" type="line"/>
      <point x="110" y="812" type="line"/>
      <point x="4" y="725" type="line"/>
    </contour>
    <contour>
      <point x="152" y="841" type="curve" smooth="yes"/>
      <point x="240" y="841"/>
      <point x="291" y="885"/>
      <point x="305" y="935" type="curve"/>
      <point x="260" y="943" type="line"/>
      <point x="248" y="913"/>
      <point x="217" y="887"/>
      <point x="160" y="887" type="curve" smooth="yes"/>
      <point x="102" y="887"/>
      <point x="79" y="913"/>
      <point x="78" y="943" type="curve"/>
      <point x="31" y="935" type="line"/>
      <point x="29" y="885"/>
      <point x="63" y="841"/>
    </contour>
    <contour>
      <point x="89" y="682" type="move" name="_aboveUC"/>
    </contour>
  </outline>
</glyph>
<glyph name="circumflexbreve" format="1">
  <advance width="0"/>
  <outline>
    <contour>
      <point x="81" y="509" type="move" name="_aboveLC"/>
    </contour>
    <contour>
      <point x="9" y="567" type="line"/>
      <point x="97" y="630" type="line"/>
      <point x="101" y="630" type="line"/>
      <point x="167" y="567" type="line"/>
      <point x="207" y="580" type="line"/>
      <point x="139" y="674" type="line"/>
      <point x="74" y="674" type="line"/>
      <point x="-30" y="580" type="line"/>
    </contour>
    <contour>
      <point x="111" y="701" type="curve" smooth="yes"/>
      <point x="189" y="701"/>
      <point x="226" y="747"/>
      <point x="245" y="792" type="curve"/>
      <point x="209" y="799" type="line"/>
      <point x="192" y="769"/>
      <point x="164" y="745"/>
      <point x="118" y="745" type="curve" smooth="yes"/>
      <point x="71" y="745"/>
      <point x="52" y="768"/>
      <point x="51" y="799" type="curve"/>
      <point x="14" y="792" type="line"/>
      <point x="14" y="747"/>
      <point x="33" y="701"/>
    </contour>
  </outline>
</glyph>
<glyph name="circumflexbreve.cap" format="1">
  <advance width="0"/>
  <outline>
    <contour>
      <point x="89" y="682" type="move" name="_aboveUC"/>
    </contour>
    <contour>
      <point x="32" y="699" type="line"/>
      <point x="137" y="768" type="line"/>
      <point x="141" y="768" type="line"/>
      <point x="222" y="699" type="line"/>
      <point x="259" y="725" type="line"/>
      <point x="182" y="812" type="line"/>
      <point x="110" y="812" type="line"/>
      <point x="4" y="725" type="line"/>
    </contour>
    <contour>
      <point x="152" y="841" type="curve" smooth="yes"/>
      <point x="240" y="841"/>
      <point x="291" y="885"/>
      <point x="305" y="935" type="curve"/>
      <point x="260" y="943" type="line"/>
      <point x="248" y="913"/>
      <point x="217" y="887"/>
      <point x="160" y="887" type="curve" smooth="yes"/>
      <point x="102" y="887"/>
      <point x="79" y="913"/>
      <point x="78" y="943" type="curve"/>
      <point x="31" y="935" type="line"/>
      <point x="29" y="885"/>
      <point x="63" y="841"/>
    </contour>
  </outline>
</glyph>
<glyph name="circumflexcmb.cap" format="1">
  <advance width="0"/>
  <outline>
    <contour>
      <point x="136" y="683" type="move" name="_aboveUC"/>
    </contour>
    <contour>
      <point x="37" y="699" type="line"/>
      <point x="137" y="776" type="line"/>
      <point x="141" y="776" type="line"/>
      <point x="210" y="699" type="line"/>
      <point x="257" y="715" type="line"/>
      <point x="188" y="820" type="line"/>
      <point x="103" y="820" type="line"/>
      <point x="-6" y="715" type="line"/>
    </contour>
  </outline>
</glyph>
<glyph name="circumflexcmb" format="1">
  <outline>
    <contour>
      <point x="-5" y="568" type="line"/>
      <point x="137" y="684" type="line"/>
      <point x="141" y="684" type="line"/>
      <point x="235" y="568" type="line"/>
      <point x="274" y="599" type="line"/>
      <point x="185" y="740" type="line"/>
      <point x="102" y="740" type="line"/>
      <point x="-36" y="602" type="line"/>
    </contour>
    <contour>
      <point x="108" y="509" type="move" name="_aboveLC"/>
    </contour>
    <contour>
      <point x="148" y="721" type="move" name="aboveLC"/>
    </contour>
  </outline>
</glyph>
<glyph name="circumflexgrave.cap" format="1">
  <advance width="0"/>
  <outline>
    <contour>
      <point x="89" y="682" type="move" name="_aboveUC"/>
    </contour>
    <contour>
      <point x="-1" y="699" type="line"/>
      <point x="90" y="770" type="line"/>
      <point x="94" y="770" type="line"/>
      <point x="159" y="699" type="line"/>
      <point x="203" y="715" type="line"/>
      <point x="133" y="814" type="line"/>
      <point x="63" y="814" type="line"/>
      <point x="-43" y="715" type="line"/>
    </contour>
    <contour>
      <point x="98" y="764" type="line"/>
      <point x="134" y="782" type="line"/>
      <point x="68" y="882" type="line"/>
      <point x="25" y="859" type="line"/>
    </contour>
  </outline>
</glyph>
<glyph name="circumflexgrave" format="1">
  <advance width="0"/>
  <outline>
    <contour>
      <point x="108" y="509" type="move" name="_aboveLC"/>
    </contour>
    <contour>
      <point x="12" y="570" type="line"/>
      <point x="132" y="645" type="line"/>
      <point x="136" y="645" type="line"/>
      <point x="223" y="570" type="line"/>
      <point x="256" y="601" type="line"/>
      <point x="172" y="696" type="line"/>
      <point x="104" y="696" type="line"/>
      <point x="-12" y="605" type="line"/>
    </contour>
    <contour>
      <point x="-12" y="639" type="line"/>
      <point x="27" y="665" type="line"/>
      <point x="-50" y="786" type="line"/>
      <point x="-104" y="755" type="line"/>
    </contour>
  </outline>
</glyph>
<glyph name="circumflexhoi.cap" format="1">
  <advance width="0"/>
  <outline>
    <contour>
      <point x="136" y="682" type="move" name="_aboveUC"/>
    </contour>
    <contour>
      <point x="32" y="699" type="line"/>
      <point x="140" y="768" type="line"/>
      <point x="144" y="768" type="line"/>
      <point x="222" y="699" type="line"/>
      <point x="260" y="724" type="line"/>
      <point x="183" y="815" type="line"/>
      <point x="111" y="815" type="line"/>
      <point x="1" y="725" type="line"/>
    </contour>
    <contour>
      <point x="250" y="756" type="line"/>
      <point x="298" y="763"/>
      <point x="347" y="783"/>
      <point x="355" y="833" type="curve" smooth="yes"/>
      <point x="365" y="879"/>
      <point x="325" y="903"/>
      <point x="247" y="906" type="curve"/>
      <point x="233" y="865" type="line"/>
      <point x="283" y="863"/>
      <point x="302" y="852"/>
      <point x="297" y="825" type="curve" smooth="yes"/>
      <point x="293" y="804"/>
      <point x="272" y="795"/>
      <point x="246" y="789" type="curve"/>
    </contour>
  </outline>
</glyph>
<glyph name="circumflexhoi" format="1">
  <advance width="0"/>
  <outline>
    <contour>
      <point x="81" y="509" type="move" name="_aboveLC"/>
    </contour>
    <contour>
      <point x="7" y="568" type="line"/>
      <point x="99" y="640" type="line"/>
      <point x="103" y="640" type="line"/>
      <point x="167" y="568" type="line"/>
      <point x="206" y="590" type="line"/>
      <point x="141" y="695" type="line"/>
      <point x="80" y="695" type="line"/>
      <point x="-26" y="590" type="line"/>
    </contour>
    <contour>
      <point x="207" y="636" type="line"/>
      <point x="268" y="647"/>
      <point x="311" y="668"/>
      <point x="315" y="723" type="curve" smooth="yes"/>
      <point x="318" y="760"/>
      <point x="288" y="788"/>
      <point x="208" y="796" type="curve"/>
      <point x="195" y="757" type="line"/>
      <point x="244" y="750"/>
      <point x="259" y="738"/>
      <point x="257" y="716" type="curve" smooth="yes"/>
      <point x="256" y="693"/>
      <point x="239" y="679"/>
      <point x="202" y="669" type="curve"/>
    </contour>
  </outline>
</glyph>
<glyph name="circumflextilde.cap" format="1">
  <advance width="0"/>
  <outline>
    <contour>
      <point x="89" y="682" type="move" name="_aboveUC"/>
    </contour>
    <contour>
      <point x="-2" y="699" type="line"/>
      <point x="90" y="766" type="line"/>
      <point x="94" y="766" type="line"/>
      <point x="158" y="699" type="line"/>
      <point x="203" y="715" type="line"/>
      <point x="132" y="810" type="line"/>
      <point x="62" y="810" type="line"/>
      <point x="-43" y="715" type="line"/>
    </contour>
    <contour>
      <point x="160" y="838" type="curve" smooth="yes"/>
      <point x="206" y="838"/>
      <point x="240" y="877"/>
      <point x="251" y="932" type="curve"/>
      <point x="209" y="936" type="line"/>
      <point x="199" y="905"/>
      <point x="186" y="887"/>
      <point x="164" y="887" type="curve" smooth="yes"/>
      <point x="131" y="887"/>
      <point x="114" y="939"/>
      <point x="66" y="939" type="curve" smooth="yes"/>
      <point x="20" y="939"/>
      <point x="-14" y="900"/>
      <point x="-26" y="845" type="curve"/>
      <point x="18" y="841" type="line"/>
      <point x="28" y="873"/>
      <point x="41" y="890"/>
      <point x="63" y="890" type="curve" smooth="yes"/>
      <point x="95" y="890"/>
      <point x="112" y="838"/>
    </contour>
  </outline>
</glyph>
<glyph name="circumflextilde" format="1">
  <advance width="0"/>
  <outline>
    <contour>
      <point x="81" y="509" type="move" name="_aboveLC"/>
    </contour>
    <contour>
      <point x="2" y="568" type="line"/>
      <point x="97" y="627" type="line"/>
      <point x="101" y="627" type="line"/>
      <point x="174" y="568" type="line"/>
      <point x="214" y="590" type="line"/>
      <point x="140" y="679" type="line"/>
      <point x="75" y="679" type="line"/>
      <point x="-33" y="590" type="line"/>
    </contour>
    <contour>
      <point x="-11" y="713" type="curve"/>
      <point x="30" y="710" type="line"/>
      <point x="40" y="736"/>
      <point x="58" y="754"/>
      <point x="73" y="754" type="curve" smooth="yes"/>
      <point x="108" y="754"/>
      <point x="116" y="707"/>
      <point x="170" y="707" type="curve" smooth="yes"/>
      <point x="209" y="707"/>
      <point x="242" y="742"/>
      <point x="257" y="796" type="curve"/>
      <point x="215" y="799" type="line"/>
      <point x="207" y="773"/>
      <point x="188" y="756"/>
      <point x="173" y="756" type="curve" smooth="yes"/>
      <point x="138" y="756"/>
      <point x="131" y="803"/>
      <point x="77" y="803" type="curve" smooth="yes"/>
      <point x="37" y="803"/>
      <point x="4" y="767"/>
    </contour>
  </outline>
</glyph>
<glyph name="colonmonetary" format="1">
  <advance width="480"/>
  <outline>
    <contour>
      <point x="251" y="-12" type="curve" smooth="yes"/>
      <point x="318" y="-12"/>
      <point x="374" y="16"/>
      <point x="425" y="62" type="curve"/>
      <point x="387" y="109" type="line"/>
      <point x="353" y="77"/>
      <point x="312" y="52"/>
      <point x="264" y="52" type="curve" smooth="yes"/>
      <point x="183" y="52"/>
      <point x="136" y="123"/>
      <point x="136" y="237" type="curve" smooth="yes"/>
      <point x="136" y="438"/>
      <point x="234" y="590"/>
      <point x="352" y="590" type="curve" smooth="yes"/>
      <point x="406" y="590"/>
      <point x="434" y="559"/>
      <point x="459" y="513" type="curve"/>
      <point x="515" y="548" type="line"/>
      <point x="484" y="605"/>
      <point x="439" y="653"/>
      <point x="359" y="653" type="curve" smooth="yes"/>
      <point x="201" y="653"/>
      <point x="62" y="481"/>
      <point x="62" y="229" type="curve" smooth="yes"/>
      <point x="62" y="81"/>
      <point x="132" y="-12"/>
    </contour>
    <contour>
      <point x="92" y="-110" type="line"/>
      <point x="128" y="-110" type="line"/>
      <point x="396" y="751" type="line"/>
      <point x="361" y="751" type="line"/>
    </contour>
    <contour>
      <point x="185" y="-110" type="line"/>
      <point x="220" y="-110" type="line"/>
      <point x="489" y="751" type="line"/>
      <point x="453" y="751" type="line"/>
    </contour>
  </outline>
</glyph>
<glyph name="comma.dnom" format="1">
	<advance width="170"/>
	<outline>
		<contour>
			<point x="-24" y="-114" type="line"/>
			<point x="46" y="-88"/>
			<point x="91" y="-37"/>
			<point x="91" y="31" type="curve" smooth="yes"/>
			<point x="91" y="63"/>
			<point x="74" y="84"/>
			<point x="49" y="84" type="curve" smooth="yes"/>
			<point x="23" y="84"/>
			<point x="0" y="68"/>
			<point x="0" y="36" type="curve" smooth="yes"/>
			<point x="0" y="13"/>
			<point x="17" y="-1"/>
			<point x="37" y="-1" type="curve" smooth="yes"/>
			<point x="47" y="-1"/>
			<point x="55" y="2"/>
			<point x="65" y="10" type="curve"/>
			<point x="45" y="53" type="line"/>
			<point x="41" y="1" type="line"/>
			<point x="35" y="-37"/>
			<point x="7" y="-61"/>
			<point x="-35" y="-78" type="curve"/>
		</contour>
	</outline>
</glyph>
<glyph name="comma" format="1">
  <advance width="242"/>
  <outline>
    <contour>
      <point x="-20" y="-164" type="line"/>
      <point x="78" y="-136"/>
      <point x="144" y="-56"/>
      <point x="144" y="42" type="curve" smooth="yes"/>
      <point x="144" y="82"/>
      <point x="125" y="108"/>
      <point x="90" y="108" type="curve" smooth="yes"/>
      <point x="51" y="108"/>
      <point x="26" y="77"/>
      <point x="26" y="44" type="curve" smooth="yes"/>
      <point x="26" y="14"/>
      <point x="48" y="-4"/>
      <point x="78" y="-4" type="curve" smooth="yes"/>
      <point x="89" y="-4"/>
      <point x="104" y="1"/>
      <point x="113" y="10" type="curve"/>
      <point x="86" y="73" type="line"/>
      <point x="80" y="-2" type="line"/>
      <point x="71" y="-52"/>
      <point x="32" y="-94"/>
      <point x="-31" y="-118" type="curve"/>
    </contour>
  </outline>
</glyph>
<glyph name="commaabovecmb" format="1">
  <advance width="0"/>
  <outline>
    <contour>
      <point x="108" y="509" type="move" name="_aboveLC"/>
    </contour>
    <contour>
      <point x="79" y="543" type="line"/>
      <point x="156" y="570"/>
      <point x="187" y="618"/>
      <point x="187" y="673" type="curve" smooth="yes"/>
      <point x="187" y="705"/>
      <point x="170" y="729"/>
      <point x="144" y="729" type="curve" smooth="yes"/>
      <point x="117" y="729"/>
      <point x="95" y="712"/>
      <point x="95" y="681" type="curve" smooth="yes"/>
      <point x="95" y="659"/>
      <point x="113" y="643"/>
      <point x="132" y="643" type="curve" smooth="yes"/>
      <point x="144" y="643"/>
      <point x="156" y="646"/>
      <point x="168" y="659" type="curve"/>
      <point x="140" y="700" type="line"/>
      <point x="143" y="649" type="line"/>
      <point x="135" y="616"/>
      <point x="115" y="593"/>
      <point x="69" y="575" type="curve"/>
    </contour>
  </outline>
</glyph>
<glyph name="commabelowcmb.alt" format="1">
  <advance width="0"/>
  <outline>
    <contour>
      <point x="60" y="509" type="move" name="_aboveLC"/>
    </contour>
    <contour>
      <point x="90" y="550" type="curve"/>
      <point x="117" y="583" type="line"/>
      <point x="89" y="591"/>
      <point x="70" y="601"/>
      <point x="73" y="623" type="curve" smooth="yes"/>
      <point x="76" y="654"/>
      <point x="114" y="668"/>
      <point x="178" y="673" type="curve"/>
      <point x="179" y="709" type="line"/>
      <point x="92" y="710"/>
      <point x="21" y="686"/>
      <point x="12" y="625" type="curve" smooth="yes"/>
      <point x="5" y="588"/>
      <point x="31" y="566"/>
    </contour>
  </outline>
</glyph>
<glyph name="commabelowcmb" format="1">
  <advance width="0"/>
  <outline>
    <contour>
      <point x="-6" y="-30" type="move" name="_belowLC"/>
    </contour>
    <contour>
      <point x="-127" y="-214" type="line"/>
      <point x="-39" y="-214"/>
      <point x="32" y="-190"/>
      <point x="41" y="-129" type="curve" smooth="yes"/>
      <point x="47" y="-92"/>
      <point x="21" y="-70"/>
      <point x="-38" y="-54" type="curve"/>
      <point x="-64" y="-87" type="line"/>
      <point x="-36" y="-95"/>
      <point x="-18" y="-105"/>
      <point x="-21" y="-127" type="curve" smooth="yes"/>
      <point x="-23" y="-158"/>
      <point x="-62" y="-173"/>
      <point x="-126" y="-177" type="curve"/>
    </contour>
  </outline>
</glyph>
<glyph name="commaturnedabovecmb" format="1">
  <outline>
    <contour>
      <point x="105" y="543" type="curve" smooth="yes"/>
      <point x="133" y="543"/>
      <point x="154" y="560"/>
      <point x="154" y="591" type="curve" smooth="yes"/>
      <point x="154" y="613"/>
      <point x="136" y="629"/>
      <point x="117" y="629" type="curve" smooth="yes"/>
      <point x="105" y="629"/>
      <point x="93" y="625"/>
      <point x="81" y="613" type="curve"/>
      <point x="109" y="571" type="line"/>
      <point x="106" y="623" type="line"/>
      <point x="114" y="656"/>
      <point x="134" y="679"/>
      <point x="180" y="697" type="curve"/>
      <point x="171" y="729" type="line"/>
      <point x="93" y="702"/>
      <point x="62" y="654"/>
      <point x="62" y="598" type="curve" smooth="yes"/>
      <point x="62" y="567"/>
      <point x="79" y="543"/>
    </contour>
    <contour>
      <point x="108" y="509" type="move" name="_aboveLC"/>
    </contour>
  </outline>
</glyph>
<glyph name="d.sups" format="1">
  <advance width="365"/>
  <outline>
    <contour>
      <point x="314" y="551" type="line"/>
      <point x="310" y="551" type="line"/>
      <point x="295" y="581"/>
      <point x="267" y="596"/>
      <point x="236" y="596" type="curve" smooth="yes"/>
      <point x="146" y="596"/>
      <point x="60" y="499"/>
      <point x="60" y="377" type="curve" smooth="yes"/>
      <point x="60" y="300"/>
      <point x="97" y="258"/>
      <point x="154" y="258" type="curve" smooth="yes"/>
      <point x="194" y="258"/>
      <point x="234" y="280"/>
      <point x="265" y="314" type="curve"/>
      <point x="269" y="314" type="line"/>
      <point x="263" y="266" type="line"/>
      <point x="310" y="266" type="line"/>
      <point x="402" y="731" type="line"/>
      <point x="345" y="731" type="line"/>
      <point x="321" y="615" type="line"/>
    </contour>
    <contour>
      <point x="173" y="307" type="curve" smooth="yes"/>
      <point x="141" y="307"/>
      <point x="118" y="331"/>
      <point x="118" y="384" type="curve" smooth="yes"/>
      <point x="118" y="470"/>
      <point x="178" y="548"/>
      <point x="238" y="548" type="curve" smooth="yes"/>
      <point x="260" y="548"/>
      <point x="281" y="536"/>
      <point x="299" y="502" type="curve"/>
      <point x="273" y="369" type="line"/>
      <point x="243" y="330"/>
      <point x="204" y="307"/>
    </contour>
  </outline>
</glyph>
<glyph name="d.sups" format="1">
  <advance width="365"/>
  <outline>
    <contour>
      <point x="314" y="679" type="line"/>
      <point x="310" y="679" type="line"/>
      <point x="295" y="709"/>
      <point x="267" y="724"/>
      <point x="236" y="724" type="curve" smooth="yes"/>
      <point x="146" y="724"/>
      <point x="60" y="627"/>
      <point x="60" y="505" type="curve" smooth="yes"/>
      <point x="60" y="428"/>
      <point x="97" y="387"/>
      <point x="154" y="387" type="curve" smooth="yes"/>
      <point x="194" y="387"/>
      <point x="234" y="408"/>
      <point x="265" y="442" type="curve"/>
      <point x="269" y="442" type="line"/>
      <point x="263" y="395" type="line"/>
      <point x="310" y="395" type="line"/>
      <point x="402" y="860" type="line"/>
      <point x="345" y="860" type="line"/>
      <point x="321" y="744" type="line"/>
    </contour>
    <contour>
      <point x="173" y="435" type="curve" smooth="yes"/>
      <point x="141" y="435"/>
      <point x="118" y="459"/>
      <point x="118" y="512" type="curve" smooth="yes"/>
      <point x="118" y="598"/>
      <point x="178" y="676"/>
      <point x="238" y="676" type="curve" smooth="yes"/>
      <point x="260" y="676"/>
      <point x="281" y="664"/>
      <point x="299" y="631" type="curve"/>
      <point x="273" y="497" type="line"/>
      <point x="243" y="458"/>
      <point x="204" y="435"/>
    </contour>
  </outline>
</glyph>
<glyph name="daggerdbl" format="1">
  <advance width="435"/>
  <outline>
    <contour>
      <point x="119" y="-80" type="line"/>
      <point x="185" y="-80" type="line"/>
      <point x="212" y="79" type="line"/>
      <point x="347" y="74" type="line"/>
      <point x="360" y="140" type="line"/>
      <point x="222" y="134" type="line"/>
      <point x="263" y="316" type="line"/>
      <point x="295" y="498" type="line"/>
      <point x="430" y="491" type="line"/>
      <point x="443" y="557" type="line"/>
      <point x="306" y="552" type="line"/>
      <point x="341" y="712" type="line"/>
      <point x="276" y="712" type="line"/>
      <point x="248" y="552" type="line"/>
      <point x="113" y="557" type="line"/>
      <point x="101" y="491" type="line"/>
      <point x="239" y="498" type="line"/>
      <point x="197" y="316" type="line"/>
      <point x="166" y="134" type="line"/>
      <point x="31" y="140" type="line"/>
      <point x="18" y="74" type="line"/>
      <point x="154" y="79" type="line"/>
    </contour>
  </outline>
</glyph>
<glyph name="dblgravecmb.cap" format="1">
  <advance width="0"/>
  <outline>
    <contour>
      <point x="136" y="682" type="move" name="_aboveUC"/>
    </contour>
    <contour>
      <point x="26" y="702" type="line"/>
      <point x="74" y="714" type="line"/>
      <point x="10" y="843" type="line"/>
      <point x="-54" y="825" type="line"/>
    </contour>
    <contour>
      <point x="183" y="702" type="line"/>
      <point x="232" y="714" type="line"/>
      <point x="168" y="843" type="line"/>
      <point x="104" y="825" type="line"/>
    </contour>
  </outline>
</glyph>
<glyph name="dblgravecmb" format="1">
  <advance width="0"/>
  <outline>
    <contour>
      <point x="108" y="509" type="move" name="_aboveLC"/>
    </contour>
    <contour>
      <point x="6" y="568" type="line"/>
      <point x="56" y="580" type="line"/>
      <point x="7" y="735" type="line"/>
      <point x="-58" y="721" type="line"/>
    </contour>
    <contour>
      <point x="153" y="568" type="line"/>
      <point x="203" y="580" type="line"/>
      <point x="154" y="735" type="line"/>
      <point x="89" y="721" type="line"/>
    </contour>
  </outline>
</glyph>
<glyph name="dcroat" format="1">
  <advance width="535"/>
  <outline>
    <contour>
      <point x="179" y="-12" type="curve" smooth="yes"/>
      <point x="240" y="-12"/>
      <point x="301" y="22"/>
      <point x="348" y="72" type="curve"/>
      <point x="352" y="72" type="line"/>
      <point x="344" y="0" type="line"/>
      <point x="407" y="0" type="line"/>
      <point x="551" y="712" type="line"/>
      <point x="474" y="712" type="line"/>
      <point x="432" y="502" type="line"/>
      <point x="416" y="407" type="line"/>
      <point x="413" y="407" type="line"/>
      <point x="391" y="450"/>
      <point x="352" y="478"/>
      <point x="300" y="478" type="curve" smooth="yes"/>
      <point x="166" y="478"/>
      <point x="39" y="330"/>
      <point x="39" y="164" type="curve" smooth="yes"/>
      <point x="39" y="50"/>
      <point x="94" y="-12"/>
    </contour>
    <contour>
      <point x="207" y="52" type="curve" smooth="yes"/>
      <point x="153" y="52"/>
      <point x="118" y="92"/>
      <point x="118" y="176" type="curve" smooth="yes"/>
      <point x="118" y="291"/>
      <point x="206" y="414"/>
      <point x="303" y="414" type="curve" smooth="yes"/>
      <point x="340" y="414"/>
      <point x="374" y="393"/>
      <point x="400" y="342" type="curve"/>
      <point x="360" y="145" type="line"/>
      <point x="311" y="82"/>
      <point x="258" y="52"/>
    </contour>
    <contour>
      <point x="291" y="572" type="line"/>
      <point x="520" y="572" type="line"/>
      <point x="593" y="577" type="line"/>
      <point x="603" y="617" type="line"/>
      <point x="299" y="617" type="line"/>
    </contour>
  </outline>
</glyph>
<glyph name="diamondblack" format="1">
  <advance width="291"/>
  <outline>
    <contour>
      <point x="146" y="127" type="line"/>
      <point x="280" y="263" type="line"/>
      <point x="146" y="400" type="line"/>
      <point x="12" y="263" type="line"/>
    </contour>
  </outline>
</glyph>
<glyph name="dieresisacute.cap" format="1">
  <advance width="0"/>
  <outline>
    <contour>
      <point x="89" y="682" type="move" name="_aboveUC"/>
    </contour>
    <contour>
      <point x="-3" y="715" type="curve" smooth="yes"/>
      <point x="27" y="715"/>
      <point x="47" y="740"/>
      <point x="47" y="766" type="curve" smooth="yes"/>
      <point x="47" y="789"/>
      <point x="30" y="805"/>
      <point x="10" y="805" type="curve" smooth="yes"/>
      <point x="-18" y="805"/>
      <point x="-40" y="778"/>
      <point x="-40" y="753" type="curve" smooth="yes"/>
      <point x="-40" y="729"/>
      <point x="-23" y="715"/>
    </contour>
    <contour>
      <point x="107" y="827" type="line"/>
      <point x="237" y="936" type="line"/>
      <point x="179" y="963" type="line"/>
      <point x="65" y="846" type="line"/>
    </contour>
    <contour>
      <point x="170" y="715" type="curve" smooth="yes"/>
      <point x="198" y="715"/>
      <point x="219" y="740"/>
      <point x="219" y="766" type="curve" smooth="yes"/>
      <point x="219" y="789"/>
      <point x="203" y="805"/>
      <point x="182" y="805" type="curve" smooth="yes"/>
      <point x="153" y="805"/>
      <point x="133" y="778"/>
      <point x="133" y="753" type="curve" smooth="yes"/>
      <point x="133" y="729"/>
      <point x="148" y="715"/>
    </contour>
  </outline>
</glyph>
<glyph name="dieresisacute" format="1">
  <advance width="0"/>
  <outline>
    <contour>
      <point x="63" y="509" type="move" name="_aboveLC"/>
    </contour>
    <contour>
      <point x="101" y="711" type="line"/>
      <point x="207" y="811" type="line"/>
      <point x="154" y="835" type="line"/>
      <point x="63" y="727" type="line"/>
    </contour>
    <contour>
      <point x="-10" y="589" type="curve" smooth="yes"/>
      <point x="16" y="589"/>
      <point x="38" y="612"/>
      <point x="38" y="640" type="curve" smooth="yes"/>
      <point x="38" y="663"/>
      <point x="23" y="677"/>
      <point x="1" y="677" type="curve" smooth="yes"/>
      <point x="-25" y="677"/>
      <point x="-47" y="654"/>
      <point x="-47" y="625" type="curve" smooth="yes"/>
      <point x="-47" y="604"/>
      <point x="-32" y="589"/>
    </contour>
    <contour>
      <point x="162" y="589" type="curve" smooth="yes"/>
      <point x="188" y="589"/>
      <point x="210" y="612"/>
      <point x="210" y="640" type="curve" smooth="yes"/>
      <point x="210" y="663"/>
      <point x="195" y="677"/>
      <point x="173" y="677" type="curve" smooth="yes"/>
      <point x="148" y="677"/>
      <point x="126" y="654"/>
      <point x="126" y="625" type="curve" smooth="yes"/>
      <point x="126" y="604"/>
      <point x="140" y="589"/>
    </contour>
  </outline>
</glyph>
<glyph name="dieresisbelowcmb" format="1">
  <advance width="0"/>
  <outline>
    <contour>
      <point x="-6" y="-30" type="move" name="_belowLC"/>
    </contour>
    <component base="dieresiscmb" xOffset="-157" yOffset="-789"/>
  </outline>
</glyph>
<glyph name="dieresiscaron.cap" format="1">
  <advance width="0"/>
  <outline>
    <contour>
      <point x="89" y="682" type="move" name="_aboveUC"/>
    </contour>
    <contour>
      <point x="69" y="839" type="line"/>
      <point x="139" y="839" type="line"/>
      <point x="249" y="941" type="line"/>
      <point x="207" y="957" type="line"/>
      <point x="112" y="883" type="line"/>
      <point x="108" y="883" type="line"/>
      <point x="42" y="957" type="line"/>
      <point x="-2" y="941" type="line"/>
    </contour>
    <contour>
      <point x="-3" y="715" type="curve" smooth="yes"/>
      <point x="27" y="715"/>
      <point x="47" y="740"/>
      <point x="47" y="766" type="curve" smooth="yes"/>
      <point x="47" y="789"/>
      <point x="30" y="805"/>
      <point x="10" y="805" type="curve" smooth="yes"/>
      <point x="-18" y="805"/>
      <point x="-40" y="778"/>
      <point x="-40" y="753" type="curve" smooth="yes"/>
      <point x="-40" y="729"/>
      <point x="-23" y="715"/>
    </contour>
    <contour>
      <point x="170" y="715" type="curve" smooth="yes"/>
      <point x="198" y="715"/>
      <point x="219" y="740"/>
      <point x="219" y="766" type="curve" smooth="yes"/>
      <point x="219" y="789"/>
      <point x="203" y="805"/>
      <point x="182" y="805" type="curve" smooth="yes"/>
      <point x="153" y="805"/>
      <point x="133" y="778"/>
      <point x="133" y="753" type="curve" smooth="yes"/>
      <point x="133" y="729"/>
      <point x="148" y="715"/>
    </contour>
  </outline>
</glyph>
<glyph name="dieresiscaron" format="1">
  <advance width="0"/>
  <outline>
    <contour>
      <point x="63" y="509" type="move" name="_aboveLC"/>
    </contour>
    <contour>
      <point x="33" y="832" type="line"/>
      <point x="-5" y="813" type="line"/>
      <point x="71" y="720" type="line"/>
      <point x="133" y="720" type="line"/>
      <point x="239" y="813" type="line"/>
      <point x="204" y="832" type="line"/>
      <point x="111" y="767" type="line"/>
      <point x="107" y="767" type="line"/>
    </contour>
    <contour>
      <point x="-10" y="589" type="curve" smooth="yes"/>
      <point x="16" y="589"/>
      <point x="38" y="612"/>
      <point x="38" y="640" type="curve" smooth="yes"/>
      <point x="38" y="663"/>
      <point x="23" y="677"/>
      <point x="1" y="677" type="curve" smooth="yes"/>
      <point x="-25" y="677"/>
      <point x="-47" y="654"/>
      <point x="-47" y="625" type="curve" smooth="yes"/>
      <point x="-47" y="604"/>
      <point x="-32" y="589"/>
    </contour>
    <contour>
      <point x="162" y="589" type="curve" smooth="yes"/>
      <point x="188" y="589"/>
      <point x="210" y="612"/>
      <point x="210" y="640" type="curve" smooth="yes"/>
      <point x="210" y="663"/>
      <point x="195" y="677"/>
      <point x="173" y="677" type="curve" smooth="yes"/>
      <point x="148" y="677"/>
      <point x="126" y="654"/>
      <point x="126" y="625" type="curve" smooth="yes"/>
      <point x="126" y="604"/>
      <point x="140" y="589"/>
    </contour>
  </outline>
</glyph>
<glyph name="dieresiscaron.cap" format="1">
  <advance width="0"/>
  <outline>
    <contour>
      <point x="136" y="682" type="move" name="_aboveUC"/>
    </contour>
    <contour>
      <point x="39" y="715" type="curve" smooth="yes"/>
      <point x="65" y="715"/>
      <point x="86" y="739"/>
      <point x="86" y="765" type="curve" smooth="yes"/>
      <point x="86" y="789"/>
      <point x="71" y="803"/>
      <point x="49" y="803" type="curve" smooth="yes"/>
      <point x="23" y="803"/>
      <point x="2" y="779"/>
      <point x="2" y="752" type="curve" smooth="yes"/>
      <point x="2" y="729"/>
      <point x="17" y="715"/>
    </contour>
    <contour>
      <point x="223" y="715" type="curve" smooth="yes"/>
      <point x="248" y="715"/>
      <point x="270" y="739"/>
      <point x="270" y="765" type="curve" smooth="yes"/>
      <point x="270" y="789"/>
      <point x="254" y="803"/>
      <point x="233" y="803" type="curve" smooth="yes"/>
      <point x="207" y="803"/>
      <point x="186" y="779"/>
      <point x="186" y="752" type="curve" smooth="yes"/>
      <point x="186" y="729"/>
      <point x="201" y="715"/>
    </contour>
    <contour>
      <point x="115" y="839" type="line"/>
      <point x="187" y="839" type="line"/>
      <point x="297" y="929" type="line"/>
      <point x="266" y="955" type="line"/>
      <point x="159" y="885" type="line"/>
      <point x="155" y="885" type="line"/>
      <point x="76" y="955" type="line"/>
      <point x="39" y="930" type="line"/>
    </contour>
  </outline>
</glyph>
<glyph name="dieresiscmb.cap" format="1">
  <outline>
    <contour>
      <point x="36" y="715" type="curve" smooth="yes"/>
      <point x="64" y="715"/>
      <point x="87" y="741"/>
      <point x="87" y="769" type="curve" smooth="yes"/>
      <point x="87" y="795"/>
      <point x="69" y="810"/>
      <point x="47" y="810" type="curve" smooth="yes"/>
      <point x="19" y="810"/>
      <point x="-4" y="784"/>
      <point x="-4" y="755" type="curve" smooth="yes"/>
      <point x="-4" y="730"/>
      <point x="13" y="715"/>
    </contour>
    <contour>
      <point x="222" y="715" type="curve" smooth="yes"/>
      <point x="250" y="715"/>
      <point x="272" y="741"/>
      <point x="272" y="769" type="curve" smooth="yes"/>
      <point x="272" y="795"/>
      <point x="255" y="810"/>
      <point x="233" y="810" type="curve" smooth="yes"/>
      <point x="205" y="810"/>
      <point x="182" y="784"/>
      <point x="182" y="755" type="curve" smooth="yes"/>
      <point x="182" y="730"/>
      <point x="199" y="715"/>
    </contour>
    <contour>
      <point x="136" y="682" type="move" name="_aboveUC"/>
    </contour>
  </outline>
</glyph>
<glyph name="dieresiscmb" format="1">
  <advance width="0"/>
  <outline>
    <contour>
      <point x="108" y="509" type="move" name="_aboveLC"/>
    </contour>
    <contour>
      <point x="140" y="698" type="move" name="aboveLC"/>
    </contour>
    <contour>
      <point x="34" y="589" type="curve" smooth="yes"/>
      <point x="62" y="589"/>
      <point x="85" y="612"/>
      <point x="85" y="642" type="curve" smooth="yes"/>
      <point x="85" y="668"/>
      <point x="68" y="684"/>
      <point x="44" y="684" type="curve" smooth="yes"/>
      <point x="16" y="684"/>
      <point x="-7" y="659"/>
      <point x="-7" y="629" type="curve" smooth="yes"/>
      <point x="-7" y="604"/>
      <point x="10" y="589"/>
    </contour>
    <contour>
      <point x="207" y="589" type="curve" smooth="yes"/>
      <point x="235" y="589"/>
      <point x="258" y="612"/>
      <point x="258" y="642" type="curve" smooth="yes"/>
      <point x="258" y="668"/>
      <point x="241" y="684"/>
      <point x="217" y="684" type="curve" smooth="yes"/>
      <point x="190" y="684"/>
      <point x="166" y="659"/>
      <point x="166" y="629" type="curve" smooth="yes"/>
      <point x="166" y="604"/>
      <point x="183" y="589"/>
    </contour>
  </outline>
</glyph>
<glyph name="dieresiscmb.cap" format="1">
  <advance width="0"/>
  <outline>
    <contour>
      <point x="136" y="682" type="move" name="_aboveUC"/>
    </contour>
    <contour>
      <point x="36" y="715" type="curve" smooth="yes"/>
      <point x="64" y="715"/>
      <point x="87" y="741"/>
      <point x="87" y="769" type="curve" smooth="yes"/>
      <point x="87" y="795"/>
      <point x="69" y="810"/>
      <point x="47" y="810" type="curve" smooth="yes"/>
      <point x="19" y="810"/>
      <point x="-4" y="784"/>
      <point x="-4" y="755" type="curve" smooth="yes"/>
      <point x="-4" y="730"/>
      <point x="13" y="715"/>
    </contour>
    <contour>
      <point x="222" y="715" type="curve" smooth="yes"/>
      <point x="250" y="715"/>
      <point x="272" y="741"/>
      <point x="272" y="769" type="curve" smooth="yes"/>
      <point x="272" y="795"/>
      <point x="255" y="810"/>
      <point x="233" y="810" type="curve" smooth="yes"/>
      <point x="205" y="810"/>
      <point x="182" y="784"/>
      <point x="182" y="755" type="curve" smooth="yes"/>
      <point x="182" y="730"/>
      <point x="199" y="715"/>
    </contour>
  </outline>
</glyph>
<glyph name="dieresisgrave" format="1">
  <advance width="0"/>
  <outline>
    <contour>
      <point x="108" y="509" type="move" name="_aboveLC"/>
    </contour>
    <contour>
      <point x="27" y="589" type="curve" smooth="yes"/>
      <point x="54" y="589"/>
      <point x="76" y="612"/>
      <point x="76" y="640" type="curve" smooth="yes"/>
      <point x="76" y="663"/>
      <point x="61" y="677"/>
      <point x="39" y="677" type="curve" smooth="yes"/>
      <point x="13" y="677"/>
      <point x="-9" y="654"/>
      <point x="-9" y="625" type="curve" smooth="yes"/>
      <point x="-9" y="604"/>
      <point x="6" y="589"/>
    </contour>
    <contour>
      <point x="213" y="589" type="curve" smooth="yes"/>
      <point x="238" y="589"/>
      <point x="260" y="612"/>
      <point x="260" y="640" type="curve" smooth="yes"/>
      <point x="260" y="663"/>
      <point x="246" y="677"/>
      <point x="224" y="677" type="curve" smooth="yes"/>
      <point x="198" y="677"/>
      <point x="176" y="654"/>
      <point x="176" y="625" type="curve" smooth="yes"/>
      <point x="176" y="604"/>
      <point x="191" y="589"/>
    </contour>
    <contour>
      <point x="141" y="702" type="line"/>
      <point x="179" y="723" type="line"/>
      <point x="115" y="845" type="line"/>
      <point x="64" y="815" type="line"/>
    </contour>
  </outline>
</glyph>
<glyph name="dieresismacron.cap" format="1">
  <advance width="0"/>
  <outline>
    <contour>
      <point x="136" y="682" type="move" name="_aboveUC"/>
    </contour>
    <contour>
      <point x="48" y="715" type="curve" smooth="yes"/>
      <point x="76" y="715"/>
      <point x="96" y="740"/>
      <point x="96" y="766" type="curve" smooth="yes"/>
      <point x="96" y="789"/>
      <point x="81" y="805"/>
      <point x="59" y="805" type="curve" smooth="yes"/>
      <point x="31" y="805"/>
      <point x="11" y="778"/>
      <point x="11" y="753" type="curve" smooth="yes"/>
      <point x="11" y="729"/>
      <point x="26" y="715"/>
    </contour>
    <contour>
      <point x="35" y="859" type="line"/>
      <point x="278" y="859" type="line"/>
      <point x="288" y="903" type="line"/>
      <point x="44" y="903" type="line"/>
    </contour>
    <contour>
      <point x="219" y="715" type="curve" smooth="yes"/>
      <point x="247" y="715"/>
      <point x="268" y="740"/>
      <point x="268" y="766" type="curve" smooth="yes"/>
      <point x="268" y="789"/>
      <point x="252" y="805"/>
      <point x="231" y="805" type="curve" smooth="yes"/>
      <point x="203" y="805"/>
      <point x="182" y="778"/>
      <point x="182" y="753" type="curve" smooth="yes"/>
      <point x="182" y="729"/>
      <point x="198" y="715"/>
    </contour>
  </outline>
</glyph>
<glyph name="divide" format="1">
  <advance width="480"/>
  <outline>
    <contour>
      <point x="48" y="302" type="line"/>
      <point x="458" y="302" type="line"/>
      <point x="458" y="359" type="line"/>
      <point x="48" y="359" type="line"/>
    </contour>
    <contour>
      <point x="253" y="97" type="curve" smooth="yes"/>
      <point x="282" y="97"/>
      <point x="304" y="119"/>
      <point x="304" y="148" type="curve" smooth="yes"/>
      <point x="304" y="176"/>
      <point x="282" y="198"/>
      <point x="253" y="198" type="curve" smooth="yes"/>
      <point x="224" y="198"/>
      <point x="202" y="176"/>
      <point x="202" y="148" type="curve" smooth="yes"/>
      <point x="202" y="119"/>
      <point x="224" y="97"/>
    </contour>
    <contour>
      <point x="253" y="460" type="curve" smooth="yes"/>
      <point x="282" y="460"/>
      <point x="304" y="483"/>
      <point x="304" y="512" type="curve" smooth="yes"/>
      <point x="304" y="540"/>
      <point x="282" y="562"/>
      <point x="253" y="562" type="curve" smooth="yes"/>
      <point x="224" y="562"/>
      <point x="202" y="540"/>
      <point x="202" y="512" type="curve" smooth="yes"/>
      <point x="202" y="483"/>
      <point x="224" y="460"/>
    </contour>
  </outline>
</glyph>
<glyph name="dollar" format="1">
  <advance width="480"/>
  <outline>
    <contour>
      <point x="202" y="-12" type="curve" smooth="yes"/>
      <point x="324" y="-12"/>
      <point x="404" y="71"/>
      <point x="404" y="180" type="curve" smooth="yes"/>
      <point x="404" y="353"/>
      <point x="191" y="366"/>
      <point x="191" y="488" type="curve" smooth="yes"/>
      <point x="191" y="548"/>
      <point x="237" y="590"/>
      <point x="301" y="590" type="curve" smooth="yes"/>
      <point x="347" y="590"/>
      <point x="387" y="560"/>
      <point x="414" y="521" type="curve"/>
      <point x="464" y="566" type="line"/>
      <point x="427" y="616"/>
      <point x="368" y="653"/>
      <point x="304" y="653" type="curve" smooth="yes"/>
      <point x="194" y="653"/>
      <point x="115" y="580"/>
      <point x="115" y="478" type="curve" smooth="yes"/>
      <point x="115" y="325"/>
      <point x="329" y="312"/>
      <point x="329" y="168" type="curve" smooth="yes"/>
      <point x="329" y="99"/>
      <point x="277" y="52"/>
      <point x="204" y="52" type="curve" smooth="yes"/>
      <point x="144" y="52"/>
      <point x="96" y="90"/>
      <point x="66" y="130" type="curve"/>
      <point x="17" y="82" type="line"/>
      <point x="58" y="32"/>
      <point x="127" y="-12"/>
    </contour>
    <contour>
      <point x="142" y="-110" type="line"/>
      <point x="198" y="-110" type="line"/>
      <point x="223" y="15" type="line"/>
      <point x="167" y="15" type="line"/>
    </contour>
    <contour>
      <point x="285" y="624" type="line"/>
      <point x="341" y="624" type="line"/>
      <point x="367" y="751" type="line"/>
      <point x="311" y="751" type="line"/>
    </contour>
  </outline>
</glyph>
<glyph name="dong" format="1">
  <advance width="480"/>
  <outline>
    <contour>
      <point x="190" y="110" type="curve" smooth="yes"/>
      <point x="234" y="110"/>
      <point x="281" y="134"/>
      <point x="316" y="165" type="curve"/>
      <point x="318" y="165" type="line"/>
      <point x="313" y="120" type="line"/>
      <point x="368" y="120" type="line"/>
      <point x="481" y="675" type="line"/>
      <point x="415" y="675" type="line"/>
      <point x="382" y="513" type="line"/>
      <point x="367" y="428" type="line"/>
      <point x="347" y="456"/>
      <point x="324" y="476"/>
      <point x="279" y="476" type="curve" smooth="yes"/>
      <point x="181" y="476"/>
      <point x="74" y="382"/>
      <point x="74" y="243" type="curve" smooth="yes"/>
      <point x="74" y="163"/>
      <point x="117" y="110"/>
    </contour>
    <contour>
      <point x="211" y="165" type="curve" smooth="yes"/>
      <point x="165" y="165"/>
      <point x="141" y="200"/>
      <point x="141" y="254" type="curve" smooth="yes"/>
      <point x="141" y="351"/>
      <point x="216" y="422"/>
      <point x="282" y="422" type="curve" smooth="yes"/>
      <point x="311" y="422"/>
      <point x="336" y="407"/>
      <point x="354" y="374" type="curve"/>
      <point x="324" y="220" type="line"/>
      <point x="283" y="183"/>
      <point x="248" y="165"/>
    </contour>
    <contour>
      <point x="258" y="558" type="line"/>
      <point x="456" y="558" type="line"/>
      <point x="532" y="563" type="line"/>
      <point x="541" y="604" type="line"/>
      <point x="267" y="604" type="line"/>
    </contour>
    <contour>
      <point x="32" y="0" type="line"/>
      <point x="375" y="0" type="line"/>
      <point x="385" y="45" type="line"/>
      <point x="41" y="45" type="line"/>
    </contour>
  </outline>
</glyph>
<glyph name="dotaccentcmb.cap" format="1">
  <advance width="0"/>
  <outline>
    <contour>
      <point x="136" y="682" type="move" name="_aboveUC"/>
    </contour>
    <contour>
      <point x="130" y="716" type="curve" smooth="yes"/>
      <point x="161" y="716"/>
      <point x="188" y="740"/>
      <point x="188" y="773" type="curve" smooth="yes"/>
      <point x="188" y="802"/>
      <point x="165" y="819"/>
      <point x="139" y="819" type="curve" smooth="yes"/>
      <point x="108" y="819"/>
      <point x="81" y="793"/>
      <point x="81" y="761" type="curve" smooth="yes"/>
      <point x="81" y="732"/>
      <point x="104" y="716"/>
    </contour>
  </outline>
</glyph>
<glyph name="dotaccentcmb" format="1">
  <outline>
    <contour>
      <point x="120" y="587" type="curve" smooth="yes"/>
      <point x="151" y="587"/>
      <point x="178" y="611"/>
      <point x="178" y="644" type="curve" smooth="yes"/>
      <point x="178" y="673"/>
      <point x="155" y="690"/>
      <point x="129" y="690" type="curve" smooth="yes"/>
      <point x="98" y="690"/>
      <point x="71" y="665"/>
      <point x="71" y="632" type="curve" smooth="yes"/>
      <point x="71" y="603"/>
      <point x="94" y="587"/>
    </contour>
    <contour>
      <point x="108" y="509" type="move" name="_aboveLC"/>
    </contour>
    <contour>
      <point x="140" y="698" type="move" name="aboveLC"/>
    </contour>
  </outline>
</glyph>
<glyph name="dotbelowcmb" format="1">
  <advance width="0"/>
  <outline>
    <contour>
      <point x="-6" y="-30" type="move" name="_belowLC"/>
    </contour>
    <component base="dotaccentcmb" xOffset="-158" yOffset="-800"/>
  </outline>
</glyph>
<glyph name="dotlessi" format="1">
  <advance width="237"/>
  <outline>
    <contour>
      <point x="31" y="0" type="line"/>
      <point x="107" y="0" type="line"/>
      <point x="205" y="486" type="line"/>
      <point x="128" y="486" type="line"/>
    </contour>
    <contour>
      <point x="66" y="0" type="move" name="ogonekLC"/>
    </contour>
    <contour>
      <point x="178" y="509" type="move" name="aboveLC"/>
    </contour>
    <contour>
      <point x="76" y="-22" type="move" name="belowLC"/>
    </contour>
  </outline>
</glyph>
<glyph name="e.sups" format="1">
  <advance width="323"/>
  <outline>
    <contour>
      <point x="59" y="395" type="curve" smooth="yes"/>
      <point x="59" y="308"/>
      <point x="109" y="258"/>
      <point x="187" y="258" type="curve" smooth="yes"/>
      <point x="227" y="258"/>
      <point x="264" y="273"/>
      <point x="293" y="290" type="curve"/>
      <point x="274" y="330" type="line"/>
      <point x="252" y="316"/>
      <point x="229" y="304"/>
      <point x="200" y="304" type="curve" smooth="yes"/>
      <point x="140" y="304"/>
      <point x="108" y="345"/>
      <point x="116" y="413" type="curve"/>
      <point x="324" y="413" type="line"/>
      <point x="330" y="427"/>
      <point x="338" y="452"/>
      <point x="338" y="478" type="curve" smooth="yes"/>
      <point x="338" y="538"/>
      <point x="313" y="596"/>
      <point x="234" y="596" type="curve" smooth="yes"/>
      <point x="149" y="596"/>
      <point x="59" y="514"/>
    </contour>
    <contour>
      <point x="122" y="453" type="line"/>
      <point x="138" y="512"/>
      <point x="186" y="550"/>
      <point x="227" y="550" type="curve" smooth="yes"/>
      <point x="271" y="550"/>
      <point x="288" y="517"/>
      <point x="288" y="482" type="curve" smooth="yes"/>
      <point x="288" y="473"/>
      <point x="288" y="464"/>
      <point x="285" y="453" type="curve"/>
    </contour>
  </outline>
</glyph>
<glyph name="eacute.sups" format="1">
  <advance width="323"/>
  <outline>
    <contour>
      <point x="204" y="804" type="line"/>
      <point x="230" y="773" type="line"/>
      <point x="355" y="865" type="line"/>
      <point x="319" y="907" type="line"/>
    </contour>
    <component base="e.sups"/>
  </outline>
</glyph>
<glyph name="egrave.sups" format="1">
  <advance width="323"/>
  <outline>
    <contour>
      <point x="239" y="643" type="line"/>
      <point x="281" y="643" type="line"/>
      <point x="242" y="737" type="line"/>
      <point x="186" y="737" type="line"/>
    </contour>
    <component base="e.sups" xOffset="1" yOffset="6"/>
  </outline>
</glyph>
<glyph name="egrave.sups" format="1">
  <advance width="323"/>
  <outline>
    <contour>
      <point x="269" y="769" type="line"/>
      <point x="305" y="793" type="line"/>
      <point x="226" y="913" type="line"/>
      <point x="178" y="877" type="line"/>
    </contour>
    <component base="e.sups"/>
  </outline>
</glyph>
<glyph name="eight.dnom" format="1">
  <advance width="353"/>
  <outline>
    <contour>
      <point x="134" y="-12" type="curve" smooth="yes"/>
      <point x="214" y="-12"/>
      <point x="278" y="37"/>
      <point x="278" y="107" type="curve" smooth="yes"/>
      <point x="278" y="147"/>
      <point x="257" y="173"/>
      <point x="229" y="193" type="curve"/>
      <point x="229" y="197" type="line"/>
      <point x="266" y="217"/>
      <point x="305" y="254"/>
      <point x="305" y="305" type="curve" smooth="yes"/>
      <point x="305" y="363"/>
      <point x="260" y="402"/>
      <point x="197" y="402" type="curve" smooth="yes"/>
      <point x="127" y="402"/>
      <point x="69" y="357"/>
      <point x="69" y="292" type="curve" smooth="yes"/>
      <point x="69" y="261"/>
      <point x="87" y="236"/>
      <point x="109" y="216" type="curve"/>
      <point x="108" y="212" type="line"/>
      <point x="61" y="190"/>
      <point x="13" y="147"/>
      <point x="13" y="91" type="curve" smooth="yes"/>
      <point x="13" y="30"/>
      <point x="64" y="-12"/>
    </contour>
    <contour>
      <point x="191" y="220" type="curve"/>
      <point x="153" y="234"/>
      <point x="124" y="258"/>
      <point x="124" y="295" type="curve" smooth="yes"/>
      <point x="124" y="331"/>
      <point x="154" y="357"/>
      <point x="193" y="357" type="curve" smooth="yes"/>
      <point x="226" y="357"/>
      <point x="251" y="335"/>
      <point x="251" y="298" type="curve" smooth="yes"/>
      <point x="251" y="270"/>
      <point x="229" y="242"/>
    </contour>
    <contour>
      <point x="139" y="32" type="curve" smooth="yes"/>
      <point x="101" y="32"/>
      <point x="70" y="58"/>
      <point x="70" y="99" type="curve" smooth="yes"/>
      <point x="70" y="132"/>
      <point x="96" y="164"/>
      <point x="142" y="186" type="curve"/>
      <point x="185" y="165"/>
      <point x="222" y="150"/>
      <point x="222" y="104" type="curve" smooth="yes"/>
      <point x="222" y="60"/>
      <point x="183" y="32"/>
    </contour>
  </outline>
</glyph>
<glyph name="eight" format="1">
  <advance width="480"/>
  <outline>
    <contour>
      <point x="222" y="-12" type="curve" smooth="yes"/>
      <point x="336" y="-12"/>
      <point x="435" y="59"/>
      <point x="435" y="174" type="curve" smooth="yes"/>
      <point x="435" y="242"/>
      <point x="387" y="292"/>
      <point x="349" y="318" type="curve"/>
      <point x="349" y="322" type="line"/>
      <point x="420" y="362"/>
      <point x="471" y="417"/>
      <point x="471" y="502" type="curve" smooth="yes"/>
      <point x="471" y="602"/>
      <point x="395" y="650"/>
      <point x="314" y="650" type="curve" smooth="yes"/>
      <point x="214" y="650"/>
      <point x="127" y="585"/>
      <point x="127" y="476" type="curve" smooth="yes"/>
      <point x="127" y="424"/>
      <point x="147" y="387"/>
      <point x="184" y="350" type="curve"/>
      <point x="184" y="346" type="line"/>
      <point x="106" y="312"/>
      <point x="35" y="251"/>
      <point x="35" y="154" type="curve" smooth="yes"/>
      <point x="35" y="41"/>
      <point x="130" y="-12"/>
    </contour>
    <contour>
      <point x="308" y="345" type="curve"/>
      <point x="238" y="379"/>
      <point x="197" y="413"/>
      <point x="197" y="480" type="curve" smooth="yes"/>
      <point x="197" y="550"/>
      <point x="250" y="592"/>
      <point x="308" y="592" type="curve" smooth="yes"/>
      <point x="362" y="592"/>
      <point x="404" y="555"/>
      <point x="404" y="492" type="curve" smooth="yes"/>
      <point x="404" y="425"/>
      <point x="357" y="377"/>
    </contour>
    <contour>
      <point x="226" y="45" type="curve" smooth="yes"/>
      <point x="160" y="45"/>
      <point x="105" y="88"/>
      <point x="105" y="162" type="curve" smooth="yes"/>
      <point x="105" y="236"/>
      <point x="153" y="283"/>
      <point x="220" y="320" type="curve"/>
      <point x="296" y="279"/>
      <point x="363" y="244"/>
      <point x="363" y="170" type="curve" smooth="yes"/>
      <point x="363" y="90"/>
      <point x="295" y="45"/>
    </contour>
  </outline>
</glyph>
<glyph name="eighthnote" format="1">
  <advance width="480"/>
  <outline>
    <contour>
      <point x="130" y="-24" type="curve" smooth="yes"/>
      <point x="218" y="-24"/>
      <point x="295" y="31"/>
      <point x="295" y="139" type="curve" smooth="yes"/>
      <point x="295" y="551" type="line"/>
      <point x="370" y="526"/>
      <point x="417" y="465"/>
      <point x="417" y="396" type="curve" smooth="yes"/>
      <point x="417" y="363"/>
      <point x="414" y="340"/>
      <point x="404" y="307" type="curve"/>
      <point x="434" y="295" type="line"/>
      <point x="450" y="328"/>
      <point x="466" y="374"/>
      <point x="466" y="421" type="curve" smooth="yes"/>
      <point x="466" y="502"/>
      <point x="440" y="556"/>
      <point x="354" y="620" type="curve" smooth="yes"/>
      <point x="305" y="658"/>
      <point x="297" y="667"/>
      <point x="289" y="694" type="curve"/>
      <point x="244" y="694" type="line"/>
      <point x="244" y="155" type="line"/>
      <point x="235" y="160"/>
      <point x="209" y="167"/>
      <point x="184" y="167" type="curve" smooth="yes"/>
      <point x="96" y="167"/>
      <point x="33" y="112"/>
      <point x="33" y="50" type="curve" smooth="yes"/>
      <point x="33" y="2"/>
      <point x="79" y="-24"/>
    </contour>
  </outline>
</glyph>
<glyph name="emdash" format="1">
  <advance width="769"/>
  <outline>
    <contour>
      <point x="35" y="225" type="line"/>
      <point x="723" y="225" type="line"/>
      <point x="734" y="279" type="line"/>
      <point x="46" y="279" type="line"/>
    </contour>
  </outline>
</glyph>
<glyph name="endash" format="1">
  <advance width="463"/>
  <outline>
    <contour>
      <point x="35" y="225" type="line"/>
      <point x="415" y="225" type="line"/>
      <point x="427" y="279" type="line"/>
      <point x="46" y="279" type="line"/>
    </contour>
  </outline>
</glyph>
<glyph name="exclamdown" format="1">
  <advance width="282"/>
  <outline>
    <contour>
      <point x="21" y="-185" type="line"/>
      <point x="98" y="-185" type="line"/>
      <point x="113" y="-93" type="line"/>
      <point x="180" y="290" type="line"/>
      <point x="126" y="290" type="line"/>
      <point x="40" y="-93" type="line"/>
    </contour>
    <contour>
      <point x="171" y="378" type="curve" smooth="yes"/>
      <point x="210" y="378"/>
      <point x="238" y="414"/>
      <point x="238" y="448" type="curve" smooth="yes"/>
      <point x="238" y="477"/>
      <point x="220" y="498"/>
      <point x="191" y="498" type="curve" smooth="yes"/>
      <point x="153" y="498"/>
      <point x="126" y="464"/>
      <point x="126" y="429" type="curve" smooth="yes"/>
      <point x="126" y="400"/>
      <point x="142" y="378"/>
    </contour>
  </outline>
</glyph>
<glyph name="f" format="1">
  <advance width="282"/>
  <outline>
    <contour>
      <point x="65" y="424" type="line"/>
      <point x="128" y="424" type="line"/>
      <point x="43" y="0" type="line"/>
      <point x="119" y="0" type="line"/>
      <point x="204" y="424" type="line"/>
      <point x="303" y="424" type="line"/>
      <point x="315" y="486" type="line"/>
      <point x="217" y="486" type="line"/>
      <point x="234" y="569" type="line" smooth="yes"/>
      <point x="245" y="626"/>
      <point x="272" y="662"/>
      <point x="316" y="662" type="curve" smooth="yes"/>
      <point x="339" y="662"/>
      <point x="356" y="654"/>
      <point x="370" y="645" type="curve"/>
      <point x="397" y="700" type="line"/>
      <point x="373" y="714"/>
      <point x="346" y="724"/>
      <point x="311" y="724" type="curve" smooth="yes"/>
      <point x="229" y="724"/>
      <point x="177" y="665"/>
      <point x="157" y="567" type="curve" smooth="yes"/>
      <point x="141" y="486" type="line"/>
      <point x="76" y="481" type="line"/>
    </contour>
    <contour>
      <point x="314" y="740" type="move" name="aboveLC"/>
    </contour>
    <contour>
      <point x="89" y="-22" type="move" name="belowLC"/>
    </contour>
  </outline>
</glyph>
<glyph name="f.sups" format="1">
  <advance width="194"/>
  <outline>
    <contour>
      <point x="62" y="266" type="line"/>
      <point x="120" y="266" type="line"/>
      <point x="195" y="640" type="line" smooth="yes"/>
      <point x="202" y="677"/>
      <point x="222" y="699"/>
      <point x="249" y="699" type="curve" smooth="yes"/>
      <point x="264" y="699"/>
      <point x="277" y="693"/>
      <point x="286" y="688" type="curve"/>
      <point x="306" y="730" type="line"/>
      <point x="286" y="741"/>
      <point x="267" y="746"/>
      <point x="246" y="746" type="curve" smooth="yes"/>
      <point x="187" y="746"/>
      <point x="150" y="704"/>
      <point x="137" y="638" type="curve" smooth="yes"/>
    </contour>
    <contour>
      <point x="75" y="541" type="line"/>
      <point x="243" y="541" type="line"/>
      <point x="252" y="588" type="line"/>
      <point x="130" y="588" type="line"/>
      <point x="83" y="585" type="line"/>
    </contour>
  </outline>
</glyph>
<glyph name="f_f" format="1">
  <advance width="552"/>
  <outline>
    <contour>
      <point x="43" y="0" type="line"/>
      <point x="119" y="0" type="line"/>
      <point x="232" y="559" type="line" smooth="yes"/>
      <point x="243" y="616"/>
      <point x="274" y="652"/>
      <point x="321" y="652" type="curve" smooth="yes"/>
      <point x="347" y="652"/>
      <point x="365" y="644"/>
      <point x="381" y="635" type="curve"/>
      <point x="408" y="691" type="line"/>
      <point x="381" y="704"/>
      <point x="354" y="714"/>
      <point x="315" y="714" type="curve" smooth="yes"/>
      <point x="231" y="714"/>
      <point x="176" y="655"/>
      <point x="155" y="557" type="curve" smooth="yes"/>
    </contour>
    <contour>
      <point x="313" y="0" type="line"/>
      <point x="390" y="0" type="line"/>
      <point x="504" y="569" type="line" smooth="yes"/>
      <point x="515" y="626"/>
      <point x="543" y="662"/>
      <point x="587" y="662" type="curve" smooth="yes"/>
      <point x="609" y="662"/>
      <point x="627" y="654"/>
      <point x="640" y="645" type="curve"/>
      <point x="668" y="701" type="line"/>
      <point x="642" y="714"/>
      <point x="616" y="724"/>
      <point x="581" y="724" type="curve" smooth="yes"/>
      <point x="500" y="724"/>
      <point x="447" y="665"/>
      <point x="427" y="567" type="curve" smooth="yes"/>
    </contour>
    <contour>
      <point x="65" y="424" type="line"/>
      <point x="573" y="424" type="line"/>
      <point x="586" y="486" type="line"/>
      <point x="145" y="486" type="line"/>
      <point x="76" y="481" type="line"/>
    </contour>
  </outline>
</glyph>
<glyph name="f_t" format="1">
	<advance width="561"/>
	<outline>
		<contour>
			<point x="43" y="0" type="line"/>
			<point x="119" y="0" type="line"/>
			<point x="234" y="569" type="line" smooth="yes"/>
			<point x="245" y="626"/>
			<point x="272" y="662"/>
			<point x="316" y="662" type="curve" smooth="yes"/>
			<point x="339" y="662"/>
			<point x="356" y="654"/>
			<point x="370" y="645" type="curve"/>
			<point x="397" y="701" type="line"/>
			<point x="372" y="714"/>
			<point x="346" y="724"/>
			<point x="311" y="724" type="curve" smooth="yes"/>
			<point x="229" y="724"/>
			<point x="177" y="665"/>
			<point x="157" y="567" type="curve" smooth="yes"/>
		</contour>
		<contour>
			<point x="422" y="-12" type="curve" smooth="yes"/>
			<point x="460" y="-12"/>
			<point x="492" y="0"/>
			<point x="513" y="10" type="curve"/>
			<point x="497" y="65" type="line"/>
			<point x="482" y="58"/>
			<point x="465" y="50"/>
			<point x="446" y="50" type="curve" smooth="yes"/>
			<point x="400" y="50"/>
			<point x="384" y="70"/>
			<point x="384" y="110" type="curve" smooth="yes"/>
			<point x="384" y="123"/>
			<point x="385" y="134"/>
			<point x="387" y="146" type="curve" smooth="yes"/>
			<point x="444" y="424" type="line"/>
			<point x="569" y="424" type="line"/>
			<point x="581" y="486" type="line"/>
			<point x="458" y="486" type="line"/>
			<point x="485" y="620" type="line"/>
			<point x="420" y="620" type="line"/>
			<point x="384" y="486" type="line"/>
			<point x="145" y="486" type="line"/>
			<point x="76" y="481" type="line"/>
			<point x="65" y="424" type="line"/>
			<point x="368" y="424" type="line"/>
			<point x="311" y="150" type="line" smooth="yes"/>
			<point x="307" y="132"/>
			<point x="306" y="116"/>
			<point x="306" y="96" type="curve" smooth="yes"/>
			<point x="306" y="36"/>
			<point x="337" y="-12"/>
		</contour>
	</outline>
</glyph>
<glyph name="fisheye" format="1">
  <advance width="422"/>
  <outline>
    <contour>
      <point x="211" y="81" type="curve" smooth="yes"/>
      <point x="304" y="81"/>
      <point x="384" y="152"/>
      <point x="384" y="263" type="curve" smooth="yes"/>
      <point x="384" y="374"/>
      <point x="304" y="445"/>
      <point x="211" y="445" type="curve" smooth="yes"/>
      <point x="119" y="445"/>
      <point x="39" y="374"/>
      <point x="39" y="263" type="curve" smooth="yes"/>
      <point x="39" y="152"/>
      <point x="119" y="81"/>
    </contour>
    <contour>
      <point x="211" y="128" type="curve" smooth="yes"/>
      <point x="147" y="128"/>
      <point x="88" y="177"/>
      <point x="88" y="263" type="curve" smooth="yes"/>
      <point x="88" y="349"/>
      <point x="147" y="399"/>
      <point x="211" y="399" type="curve" smooth="yes"/>
      <point x="276" y="399"/>
      <point x="335" y="349"/>
      <point x="335" y="263" type="curve" smooth="yes"/>
      <point x="335" y="177"/>
      <point x="276" y="128"/>
    </contour>
    <contour>
      <point x="211" y="205" type="curve" smooth="yes"/>
      <point x="240" y="205"/>
      <point x="266" y="228"/>
      <point x="266" y="263" type="curve" smooth="yes"/>
      <point x="266" y="298"/>
      <point x="240" y="322"/>
      <point x="211" y="322" type="curve" smooth="yes"/>
      <point x="183" y="322"/>
      <point x="157" y="298"/>
      <point x="157" y="263" type="curve" smooth="yes"/>
      <point x="157" y="228"/>
      <point x="183" y="205"/>
    </contour>
  </outline>
</glyph>
<glyph name="five.tnum" format="1">
	<advance width="480"/>
	<outline>
		<contour>
			<point x="168" y="-86" type="curve" smooth="yes"/>
			<point x="293" y="-86"/>
			<point x="408" y="9"/>
			<point x="408" y="161" type="curve" smooth="yes"/>
			<point x="408" y="274"/>
			<point x="337" y="334"/>
			<point x="241" y="334" type="curve" smooth="yes"/>
			<point x="208" y="334"/>
			<point x="180" y="326"/>
			<point x="157" y="314" type="curve"/>
			<point x="211" y="508" type="line"/>
			<point x="443" y="508" type="line"/>
			<point x="457" y="574" type="line"/>
			<point x="157" y="574" type="line"/>
			<point x="76" y="268" type="line"/>
			<point x="109" y="242" type="line"/>
			<point x="150" y="264"/>
			<point x="174" y="275"/>
			<point x="216" y="275" type="curve" smooth="yes"/>
			<point x="285" y="275"/>
			<point x="331" y="231"/>
			<point x="331" y="148" type="curve" smooth="yes"/>
			<point x="331" y="44"/>
			<point x="256" y="-23"/>
			<point x="172" y="-23" type="curve" smooth="yes"/>
			<point x="98" y="-23"/>
			<point x="59" y="19"/>
			<point x="30" y="62" type="curve"/>
			<point x="-20" y="22" type="line"/>
			<point x="19" y="-39"/>
			<point x="80" y="-86"/>
		</contour>
	</outline>
</glyph>
<glyph name="five.dnom" format="1">
  <advance width="351"/>
  <outline>
    <contour>
      <point x="135" y="-12" type="curve" smooth="yes"/>
      <point x="214" y="-12"/>
      <point x="286" y="48"/>
      <point x="286" y="139" type="curve" smooth="yes"/>
      <point x="286" y="209"/>
      <point x="240" y="253"/>
      <point x="175" y="253" type="curve" smooth="yes"/>
      <point x="160" y="253"/>
      <point x="138" y="249"/>
      <point x="121" y="238" type="curve"/>
      <point x="150" y="339" type="line"/>
      <point x="308" y="339" type="line"/>
      <point x="318" y="390" type="line"/>
      <point x="111" y="390" type="line"/>
      <point x="59" y="203" type="line"/>
      <point x="82" y="180" type="line"/>
      <point x="107" y="198"/>
      <point x="126" y="209"/>
      <point x="156" y="209" type="curve" smooth="yes"/>
      <point x="198" y="209"/>
      <point x="226" y="181"/>
      <point x="226" y="133" type="curve" smooth="yes"/>
      <point x="226" y="75"/>
      <point x="181" y="37"/>
      <point x="137" y="37" type="curve" smooth="yes"/>
      <point x="87" y="37"/>
      <point x="60" y="62"/>
      <point x="41" y="97" type="curve"/>
      <point x="0" y="68" type="line"/>
      <point x="23" y="25"/>
      <point x="69" y="-12"/>
    </contour>
  </outline>
</glyph>
<glyph name="floorleft" format="1">
  <advance width="292"/>
  <outline>
    <contour>
      <point x="28" y="-52" type="line"/>
      <point x="199" y="-52" type="line"/>
      <point x="208" y="-7" type="line"/>
      <point x="96" y="-7" type="line"/>
      <point x="225" y="638" type="line"/>
      <point x="167" y="638" type="line"/>
    </contour>
  </outline>
</glyph>
<glyph name="fraction" format="1">
  <advance width="84"/>
  <outline>
    <contour>
      <point x="-211" y="-12" type="line"/>
      <point x="-159" y="-12" type="line"/>
      <point x="325" y="672" type="line"/>
      <point x="273" y="672" type="line"/>
    </contour>
  </outline>
</glyph>
<glyph name="g" format="1">
  <advance width="531"/>
  <outline>
    <contour>
      <point x="168" y="-224" type="curve" smooth="yes"/>
      <point x="290" y="-224"/>
      <point x="370" y="-152"/>
      <point x="396" y="-23" type="curve" smooth="yes"/>
      <point x="498" y="486" type="line"/>
      <point x="435" y="486" type="line"/>
      <point x="416" y="425" type="line"/>
      <point x="413" y="425" type="line"/>
      <point x="390" y="469"/>
      <point x="347" y="498"/>
      <point x="296" y="498" type="curve" smooth="yes"/>
      <point x="165" y="498"/>
      <point x="39" y="354"/>
      <point x="39" y="176" type="curve" smooth="yes"/>
      <point x="39" y="63"/>
      <point x="98" y="5"/>
      <point x="180" y="5" type="curve" smooth="yes"/>
      <point x="242" y="5"/>
      <point x="298" y="36"/>
      <point x="349" y="87" type="curve"/>
      <point x="324" y="-17" type="line" smooth="yes"/>
      <point x="303" y="-105"/>
      <point x="254" y="-162"/>
      <point x="171" y="-162" type="curve" smooth="yes"/>
      <point x="117" y="-162"/>
      <point x="71" y="-136"/>
      <point x="34" y="-104" type="curve"/>
      <point x="-2" y="-157" type="line"/>
      <point x="45" y="-196"/>
      <point x="103" y="-224"/>
    </contour>
    <contour>
      <point x="205" y="69" type="curve" smooth="yes"/>
      <point x="151" y="69"/>
      <point x="118" y="108"/>
      <point x="118" y="187" type="curve" smooth="yes"/>
      <point x="118" y="314"/>
      <point x="205" y="434"/>
      <point x="299" y="434" type="curve" smooth="yes"/>
      <point x="336" y="434"/>
      <point x="368" y="413"/>
      <point x="398" y="362" type="curve"/>
      <point x="355" y="154" type="line"/>
      <point x="309" y="98"/>
      <point x="251" y="69"/>
    </contour>
    <contour>
      <point x="316" y="509" type="move" name="aboveLC"/>
    </contour>
    <contour>
      <point x="164" y="-244" type="move" name="belowLC"/>
    </contour>
  </outline>
</glyph>
<glyph name="g.supa" format="1">
  <advance width="324"/>
  <outline>
    <contour>
      <point x="85" y="459" type="curve" smooth="yes"/>
      <point x="85" y="428"/>
      <point x="97" y="405"/>
      <point x="117" y="387" type="curve"/>
      <point x="117" y="384" type="line"/>
      <point x="93" y="368"/>
      <point x="78" y="349"/>
      <point x="78" y="325" type="curve" smooth="yes"/>
      <point x="78" y="307"/>
      <point x="86" y="291"/>
      <point x="96" y="283" type="curve"/>
      <point x="96" y="280" type="line"/>
      <point x="61" y="264"/>
      <point x="22" y="238"/>
      <point x="22" y="196" type="curve" smooth="yes"/>
      <point x="22" y="133"/>
      <point x="89" y="120"/>
      <point x="136" y="120" type="curve" smooth="yes"/>
      <point x="218" y="120"/>
      <point x="303" y="156"/>
      <point x="303" y="228" type="curve" smooth="yes"/>
      <point x="303" y="271"/>
      <point x="277" y="290"/>
      <point x="188" y="302" type="curve" smooth="yes"/>
      <point x="137" y="309"/>
      <point x="128" y="316"/>
      <point x="128" y="339" type="curve" smooth="yes"/>
      <point x="128" y="351"/>
      <point x="138" y="363"/>
      <point x="148" y="371" type="curve"/>
      <point x="157" y="367"/>
      <point x="168" y="366"/>
      <point x="181" y="366" type="curve" smooth="yes"/>
      <point x="260" y="366"/>
      <point x="317" y="424"/>
      <point x="317" y="500" type="curve" smooth="yes"/>
      <point x="317" y="514"/>
      <point x="314" y="531"/>
      <point x="306" y="543" type="curve"/>
      <point x="364" y="543" type="line"/>
      <point x="373" y="588" type="line"/>
      <point x="263" y="588" type="line"/>
      <point x="250" y="593"/>
      <point x="236" y="596"/>
      <point x="220" y="596" type="curve" smooth="yes"/>
      <point x="144" y="596"/>
      <point x="85" y="536"/>
    </contour>
    <contour>
      <point x="130" y="265" type="curve"/>
      <point x="148" y="261"/>
      <point x="159" y="258"/>
      <point x="171" y="257" type="curve" smooth="yes"/>
      <point x="222" y="252"/>
      <point x="246" y="242"/>
      <point x="246" y="215" type="curve" smooth="yes"/>
      <point x="246" y="184"/>
      <point x="200" y="160"/>
      <point x="141" y="160" type="curve" smooth="yes"/>
      <point x="101" y="160"/>
      <point x="73" y="173"/>
      <point x="73" y="205" type="curve" smooth="yes"/>
      <point x="73" y="231"/>
      <point x="101" y="252"/>
    </contour>
    <contour>
      <point x="218" y="553" type="curve" smooth="yes"/>
      <point x="250" y="553"/>
      <point x="267" y="532"/>
      <point x="267" y="497" type="curve" smooth="yes"/>
      <point x="267" y="451"/>
      <point x="233" y="405"/>
      <point x="186" y="405" type="curve" smooth="yes"/>
      <point x="155" y="405"/>
      <point x="138" y="426"/>
      <point x="138" y="462" type="curve" smooth="yes"/>
      <point x="138" y="508"/>
      <point x="172" y="553"/>
    </contour>
  </outline>
</glyph>
<glyph name="g.sups" format="1">
  <advance width="354"/>
  <outline>
    <contour>
      <point x="328" y="588" type="line"/>
      <point x="314" y="549" type="line"/>
      <point x="310" y="549" type="line"/>
      <point x="295" y="581"/>
      <point x="267" y="596"/>
      <point x="236" y="596" type="curve" smooth="yes"/>
      <point x="145" y="596"/>
      <point x="60" y="499"/>
      <point x="60" y="383" type="curve" smooth="yes"/>
      <point x="60" y="311"/>
      <point x="97" y="271"/>
      <point x="154" y="271" type="curve" smooth="yes"/>
      <point x="195" y="271"/>
      <point x="230" y="288"/>
      <point x="263" y="314" type="curve"/>
      <point x="267" y="314" type="line"/>
      <point x="253" y="259" type="line" smooth="yes"/>
      <point x="239" y="201"/>
      <point x="205" y="163"/>
      <point x="155" y="163" type="curve" smooth="yes"/>
      <point x="120" y="163"/>
      <point x="86" y="180"/>
      <point x="60" y="200" type="curve"/>
      <point x="34" y="161" type="line"/>
      <point x="70" y="131"/>
      <point x="114" y="116"/>
      <point x="153" y="116" type="curve" smooth="yes"/>
      <point x="234" y="116"/>
      <point x="290" y="170"/>
      <point x="308" y="258" type="curve" smooth="yes"/>
      <point x="374" y="588" type="line"/>
    </contour>
    <contour>
      <point x="173" y="319" type="curve" smooth="yes"/>
      <point x="142" y="319"/>
      <point x="119" y="342"/>
      <point x="119" y="391" type="curve" smooth="yes"/>
      <point x="119" y="471"/>
      <point x="177" y="548"/>
      <point x="238" y="548" type="curve" smooth="yes"/>
      <point x="260" y="548"/>
      <point x="281" y="536"/>
      <point x="299" y="502" type="curve"/>
      <point x="273" y="368" type="line"/>
      <point x="243" y="337"/>
      <point x="205" y="319"/>
    </contour>
  </outline>
</glyph>
<glyph name="g.sups" format="1">
  <advance width="354"/>
  <outline>
    <contour>
      <point x="328" y="716" type="line"/>
      <point x="314" y="677" type="line"/>
      <point x="310" y="677" type="line"/>
      <point x="295" y="709"/>
      <point x="267" y="724"/>
      <point x="236" y="724" type="curve" smooth="yes"/>
      <point x="145" y="724"/>
      <point x="60" y="628"/>
      <point x="60" y="511" type="curve" smooth="yes"/>
      <point x="60" y="440"/>
      <point x="97" y="399"/>
      <point x="154" y="399" type="curve" smooth="yes"/>
      <point x="195" y="399"/>
      <point x="230" y="416"/>
      <point x="263" y="442" type="curve"/>
      <point x="267" y="442" type="line"/>
      <point x="253" y="388" type="line" smooth="yes"/>
      <point x="239" y="329"/>
      <point x="205" y="291"/>
      <point x="155" y="291" type="curve" smooth="yes"/>
      <point x="120" y="291"/>
      <point x="86" y="308"/>
      <point x="60" y="329" type="curve"/>
      <point x="34" y="289" type="line"/>
      <point x="70" y="259"/>
      <point x="114" y="244"/>
      <point x="153" y="244" type="curve" smooth="yes"/>
      <point x="234" y="244"/>
      <point x="290" y="298"/>
      <point x="308" y="386" type="curve" smooth="yes"/>
      <point x="374" y="716" type="line"/>
    </contour>
    <contour>
      <point x="173" y="447" type="curve" smooth="yes"/>
      <point x="142" y="447"/>
      <point x="119" y="470"/>
      <point x="119" y="519" type="curve" smooth="yes"/>
      <point x="119" y="599"/>
      <point x="177" y="676"/>
      <point x="238" y="676" type="curve" smooth="yes"/>
      <point x="260" y="676"/>
      <point x="281" y="664"/>
      <point x="299" y="631" type="curve"/>
      <point x="273" y="497" type="line"/>
      <point x="243" y="465"/>
      <point x="205" y="447"/>
    </contour>
  </outline>
</glyph>
<glyph name="gravecmb.cap" format="1">
  <advance width="0"/>
  <outline>
    <contour>
      <point x="136" y="682" type="move" name="_aboveUC"/>
    </contour>
    <contour>
      <point x="140" y="695" type="line"/>
      <point x="190" y="724" type="line"/>
      <point x="83" y="847" type="line"/>
      <point x="22" y="810" type="line"/>
    </contour>
  </outline>
</glyph>
<glyph name="gravecmb" format="1">
  <advance width="0"/>
  <outline>
    <contour>
      <point x="108" y="509" type="move" name="_aboveLC"/>
    </contour>
    <contour>
      <point x="140" y="570" type="line"/>
      <point x="191" y="598" type="line"/>
      <point x="107" y="756" type="line"/>
      <point x="36" y="718" type="line"/>
    </contour>
  </outline>
</glyph>
<glyph name="gravecmb.cap" format="1">
  <advance width="0"/>
  <outline>
    <contour>
      <point x="136" y="682" type="move" name="_aboveUC"/>
    </contour>
    <contour>
      <point x="150" y="693" type="line"/>
      <point x="194" y="730" type="line"/>
      <point x="72" y="870" type="line"/>
      <point x="16" y="820" type="line"/>
    </contour>
  </outline>
</glyph>
<glyph name="guilsinglright" format="1">
  <advance width="252"/>
  <outline>
    <contour>
      <point x="51" y="67" type="line"/>
      <point x="207" y="215" type="line"/>
      <point x="218" y="277" type="line"/>
      <point x="115" y="435" type="line"/>
      <point x="79" y="413" type="line"/>
      <point x="164" y="252" type="line"/>
      <point x="23" y="96" type="line"/>
    </contour>
  </outline>
</glyph>
<glyph name="h" format="1">
  <advance width="519"/>
  <outline>
    <contour>
      <point x="31" y="0" type="line"/>
      <point x="107" y="0" type="line"/>
      <point x="176" y="344" type="line"/>
      <point x="237" y="405"/>
      <point x="284" y="432"/>
      <point x="322" y="432" type="curve" smooth="yes"/>
      <point x="372" y="432"/>
      <point x="394" y="406"/>
      <point x="394" y="357" type="curve" smooth="yes"/>
      <point x="394" y="340"/>
      <point x="391" y="326"/>
      <point x="386" y="300" type="curve" smooth="yes"/>
      <point x="326" y="0" type="line"/>
      <point x="402" y="0" type="line"/>
      <point x="464" y="310" type="line" smooth="yes"/>
      <point x="470" y="337"/>
      <point x="472" y="354"/>
      <point x="472" y="377" type="curve" smooth="yes"/>
      <point x="472" y="452"/>
      <point x="439" y="498"/>
      <point x="357" y="498" type="curve" smooth="yes"/>
      <point x="298" y="498"/>
      <point x="245" y="463"/>
      <point x="190" y="416" type="curve"/>
      <point x="186" y="416" type="line"/>
      <point x="202" y="477" type="line"/>
      <point x="250" y="712" type="line"/>
      <point x="173" y="712" type="line"/>
    </contour>
    <contour>
      <point x="218" y="730" type="move" name="aboveLC"/>
    </contour>
    <contour>
      <point x="227" y="-22" type="move" name="belowLC"/>
    </contour>
  </outline>
</glyph>
<glyph name="h.sups" format="1">
  <advance width="353"/>
  <outline>
    <contour>
      <point x="56" y="266" type="line"/>
      <point x="113" y="266" type="line"/>
      <point x="158" y="489" type="line"/>
      <point x="196" y="528"/>
      <point x="226" y="546"/>
      <point x="255" y="546" type="curve" smooth="yes"/>
      <point x="282" y="546"/>
      <point x="296" y="530"/>
      <point x="296" y="499" type="curve" smooth="yes"/>
      <point x="296" y="488"/>
      <point x="294" y="479"/>
      <point x="291" y="463" type="curve" smooth="yes"/>
      <point x="251" y="266" type="line"/>
      <point x="309" y="266" type="line"/>
      <point x="350" y="471" type="line" smooth="yes"/>
      <point x="353" y="484"/>
      <point x="356" y="499"/>
      <point x="356" y="514" type="curve" smooth="yes"/>
      <point x="356" y="565"/>
      <point x="335" y="596"/>
      <point x="279" y="596" type="curve" smooth="yes"/>
      <point x="239" y="596"/>
      <point x="203" y="573"/>
      <point x="170" y="545" type="curve"/>
      <point x="166" y="545" type="line"/>
      <point x="183" y="616" type="line"/>
      <point x="207" y="735" type="line"/>
      <point x="149" y="735" type="line"/>
    </contour>
  </outline>
</glyph>
<glyph name="hbar" format="1">
  <advance width="519"/>
  <outline>
    <contour>
      <point x="31" y="0" type="line"/>
      <point x="107" y="0" type="line"/>
      <point x="172" y="324" type="line"/>
      <point x="233" y="385"/>
      <point x="280" y="412"/>
      <point x="318" y="412" type="curve" smooth="yes"/>
      <point x="368" y="412"/>
      <point x="390" y="386"/>
      <point x="390" y="337" type="curve" smooth="yes"/>
      <point x="390" y="320"/>
      <point x="387" y="306"/>
      <point x="382" y="280" type="curve" smooth="yes"/>
      <point x="326" y="0" type="line"/>
      <point x="402" y="0" type="line"/>
      <point x="460" y="290" type="line" smooth="yes"/>
      <point x="466" y="317"/>
      <point x="468" y="334"/>
      <point x="468" y="357" type="curve" smooth="yes"/>
      <point x="468" y="432"/>
      <point x="435" y="478"/>
      <point x="353" y="478" type="curve" smooth="yes"/>
      <point x="294" y="478"/>
      <point x="241" y="443"/>
      <point x="186" y="396" type="curve"/>
      <point x="182" y="396" type="line"/>
      <point x="198" y="457" type="line"/>
      <point x="250" y="712" type="line"/>
      <point x="173" y="712" type="line"/>
    </contour>
    <contour>
      <point x="75" y="572" type="line"/>
      <point x="396" y="572" type="line"/>
      <point x="406" y="617" type="line"/>
      <point x="156" y="617" type="line"/>
      <point x="82" y="612" type="line"/>
    </contour>
  </outline>
</glyph>
<glyph name="hoicmb.cap" format="1">
  <advance width="0"/>
  <outline>
    <contour>
      <point x="136" y="682" type="move" name="_aboveUC"/>
    </contour>
    <contour>
      <point x="80" y="699" type="line"/>
      <point x="147" y="709"/>
      <point x="201" y="735"/>
      <point x="206" y="793" type="curve" smooth="yes"/>
      <point x="209" y="833"/>
      <point x="178" y="864"/>
      <point x="85" y="873" type="curve"/>
      <point x="70" y="829" type="line"/>
      <point x="129" y="822"/>
      <point x="144" y="809"/>
      <point x="143" y="786" type="curve" smooth="yes"/>
      <point x="143" y="761"/>
      <point x="117" y="748"/>
      <point x="75" y="736" type="curve"/>
    </contour>
  </outline>
</glyph>
<glyph name="hoicmb" format="1">
  <advance width="0"/>
  <outline>
    <contour>
      <point x="108" y="509" type="move" name="_aboveLC"/>
    </contour>
    <contour>
      <point x="81" y="558" type="line"/>
      <point x="149" y="568"/>
      <point x="203" y="594"/>
      <point x="208" y="652" type="curve" smooth="yes"/>
      <point x="213" y="699"/>
      <point x="182" y="737"/>
      <point x="86" y="745" type="curve"/>
      <point x="73" y="694" type="line"/>
      <point x="131" y="687"/>
      <point x="147" y="672"/>
      <point x="145" y="648" type="curve" smooth="yes"/>
      <point x="144" y="620"/>
      <point x="119" y="607"/>
      <point x="77" y="595" type="curve"/>
    </contour>
  </outline>
</glyph>
<glyph name="hoicmb.cap" format="1">
  <advance width="0"/>
  <outline>
    <contour>
      <point x="136" y="682" type="move" name="_aboveUC"/>
    </contour>
    <contour>
      <point x="80" y="698" type="line"/>
      <point x="139" y="708"/>
      <point x="197" y="733"/>
      <point x="208" y="791" type="curve" smooth="yes"/>
      <point x="217" y="842"/>
      <point x="172" y="869"/>
      <point x="85" y="872" type="curve"/>
      <point x="67" y="824" type="line"/>
      <point x="121" y="822"/>
      <point x="147" y="808"/>
      <point x="142" y="782" type="curve" smooth="yes"/>
      <point x="138" y="757"/>
      <point x="111" y="745"/>
      <point x="77" y="736" type="curve"/>
    </contour>
  </outline>
</glyph>
<glyph name="hungarumlautcmb.cap" format="1">
  <advance width="0"/>
  <outline>
    <contour>
      <point x="136" y="682" type="move" name="_aboveUC"/>
    </contour>
    <contour>
      <point x="67" y="704" type="line"/>
      <point x="185" y="818" type="line"/>
      <point x="128" y="843" type="line"/>
      <point x="22" y="721" type="line"/>
    </contour>
    <contour>
      <point x="223" y="704" type="line"/>
      <point x="341" y="818" type="line"/>
      <point x="284" y="843" type="line"/>
      <point x="179" y="721" type="line"/>
    </contour>
  </outline>
</glyph>
<glyph name="hungarumlautcmb" format="1">
  <advance width="0"/>
  <outline>
    <contour>
      <point x="108" y="509" type="move" name="_aboveLC"/>
    </contour>
    <contour>
      <point x="62" y="569" type="line"/>
      <point x="187" y="714" type="line"/>
      <point x="125" y="736" type="line"/>
      <point x="15" y="586" type="line"/>
    </contour>
    <contour>
      <point x="210" y="569" type="line"/>
      <point x="336" y="714" type="line"/>
      <point x="273" y="736" type="line"/>
      <point x="163" y="586" type="line"/>
    </contour>
  </outline>
</glyph>
<glyph name="hungarumlautcmb.cap" format="1">
  <advance width="0"/>
  <outline>
    <contour>
      <point x="136" y="682" type="move" name="_aboveUC"/>
    </contour>
    <contour>
      <point x="69" y="706" type="line"/>
      <point x="199" y="837" type="line"/>
      <point x="149" y="873" type="line"/>
      <point x="30" y="731" type="line"/>
    </contour>
    <contour>
      <point x="229" y="706" type="line"/>
      <point x="359" y="837" type="line"/>
      <point x="309" y="873" type="line"/>
      <point x="190" y="731" type="line"/>
    </contour>
  </outline>
</glyph>
<glyph name="hyphen" format="1">
  <advance width="299"/>
  <outline>
    <contour>
      <point x="35" y="222" type="line"/>
      <point x="253" y="222" type="line"/>
      <point x="266" y="281" type="line"/>
      <point x="47" y="281" type="line"/>
    </contour>
  </outline>
</glyph>
<glyph name="i" format="1">
  <advance width="237"/>
  <outline>
    <contour>
      <point x="31" y="0" type="line"/>
      <point x="107" y="0" type="line"/>
      <point x="205" y="486" type="line"/>
      <point x="128" y="486" type="line"/>
    </contour>
    <contour>
      <point x="193" y="587" type="curve" smooth="yes"/>
      <point x="224" y="587"/>
      <point x="251" y="611"/>
      <point x="251" y="644" type="curve" smooth="yes"/>
      <point x="251" y="673"/>
      <point x="228" y="690"/>
      <point x="202" y="690" type="curve" smooth="yes"/>
      <point x="171" y="690"/>
      <point x="144" y="665"/>
      <point x="144" y="632" type="curve" smooth="yes"/>
      <point x="144" y="603"/>
      <point x="167" y="587"/>
    </contour>
    <contour>
      <point x="60" y="0" type="move" name="ogonekLC"/>
    </contour>
    <contour>
      <point x="213" y="698" type="move" name="aboveLC"/>
    </contour>
    <contour>
      <point x="75" y="-22" type="move" name="belowLC"/>
    </contour>
  </outline>
</glyph>
<glyph name="i.sups" format="1">
  <advance width="163"/>
  <outline>
    <contour>
      <point x="165" y="651" type="curve" smooth="yes"/>
      <point x="188" y="651"/>
      <point x="207" y="670"/>
      <point x="207" y="692" type="curve" smooth="yes"/>
      <point x="207" y="713"/>
      <point x="190" y="726"/>
      <point x="171" y="726" type="curve" smooth="yes"/>
      <point x="148" y="726"/>
      <point x="129" y="706"/>
      <point x="129" y="685" type="curve" smooth="yes"/>
      <point x="129" y="663"/>
      <point x="146" y="651"/>
    </contour>
    <contour>
      <point x="56" y="266" type="line"/>
      <point x="113" y="266" type="line"/>
      <point x="177" y="588" type="line"/>
      <point x="119" y="588" type="line"/>
    </contour>
  </outline>
</glyph>
